<mxfile host="app.diagrams.net" agent="Mozilla/5.0 (Macintosh; Intel Mac OS X 10_15_7) AppleWebKit/537.36 (KHTML, like Gecko) Chrome/128.0.0.0 Safari/537.36" version="24.7.17">
  <diagram name="페이지-1" id="pk6XFleKU1Wl4GDC2KWu">
    <mxGraphModel dx="1468" dy="946" grid="0" gridSize="10" guides="1" tooltips="1" connect="1" arrows="1" fold="1" page="0" pageScale="1" pageWidth="827" pageHeight="1169" math="0" shadow="0">
      <root>
        <mxCell id="0" />
        <mxCell id="1" parent="0" />
        <mxCell id="Xvh4Ea2OsRVNu9SrrAmw-22" value="" style="rounded=0;whiteSpace=wrap;html=1;fillColor=none;" parent="1" vertex="1">
          <mxGeometry x="303" y="1319" width="239" height="69" as="geometry" />
        </mxCell>
        <mxCell id="6r981LjYlA-GBGmlzHzs-1" value="User" style="shape=umlActor;verticalLabelPosition=bottom;verticalAlign=top;html=1;outlineConnect=0;" parent="1" vertex="1">
          <mxGeometry x="90" y="50" width="30" height="60" as="geometry" />
        </mxCell>
        <mxCell id="6r981LjYlA-GBGmlzHzs-2" value="Server" style="rounded=1;whiteSpace=wrap;html=1;" parent="1" vertex="1">
          <mxGeometry x="180" y="50" width="120" height="60" as="geometry" />
        </mxCell>
        <mxCell id="6r981LjYlA-GBGmlzHzs-3" value="redis" style="shape=cylinder3;whiteSpace=wrap;html=1;boundedLbl=1;backgroundOutline=1;size=15;" parent="1" vertex="1">
          <mxGeometry x="354" y="40" width="60" height="80" as="geometry" />
        </mxCell>
        <mxCell id="6r981LjYlA-GBGmlzHzs-4" value="database" style="shape=cylinder3;whiteSpace=wrap;html=1;boundedLbl=1;backgroundOutline=1;size=15;" parent="1" vertex="1">
          <mxGeometry x="460" y="40" width="60" height="80" as="geometry" />
        </mxCell>
        <mxCell id="6r981LjYlA-GBGmlzHzs-5" value="Kakao_api" style="rounded=1;whiteSpace=wrap;html=1;" parent="1" vertex="1">
          <mxGeometry x="570" y="60" width="120" height="60" as="geometry" />
        </mxCell>
        <mxCell id="6r981LjYlA-GBGmlzHzs-6" value="" style="endArrow=none;dashed=1;html=1;rounded=0;" parent="1" edge="1">
          <mxGeometry width="50" height="50" relative="1" as="geometry">
            <mxPoint x="105" y="510" as="sourcePoint" />
            <mxPoint x="105" y="132" as="targetPoint" />
          </mxGeometry>
        </mxCell>
        <mxCell id="6r981LjYlA-GBGmlzHzs-7" value="" style="endArrow=none;dashed=1;html=1;rounded=0;" parent="1" edge="1">
          <mxGeometry width="50" height="50" relative="1" as="geometry">
            <mxPoint x="239.5" y="510" as="sourcePoint" />
            <mxPoint x="239.5" y="140" as="targetPoint" />
          </mxGeometry>
        </mxCell>
        <mxCell id="6r981LjYlA-GBGmlzHzs-8" value="" style="endArrow=none;dashed=1;html=1;rounded=0;" parent="1" edge="1">
          <mxGeometry width="50" height="50" relative="1" as="geometry">
            <mxPoint x="383.5" y="510" as="sourcePoint" />
            <mxPoint x="383.5" y="140" as="targetPoint" />
          </mxGeometry>
        </mxCell>
        <mxCell id="6r981LjYlA-GBGmlzHzs-9" value="" style="endArrow=none;dashed=1;html=1;rounded=0;" parent="1" edge="1">
          <mxGeometry width="50" height="50" relative="1" as="geometry">
            <mxPoint x="489.5" y="510" as="sourcePoint" />
            <mxPoint x="489.5" y="140" as="targetPoint" />
          </mxGeometry>
        </mxCell>
        <mxCell id="6r981LjYlA-GBGmlzHzs-10" value="" style="endArrow=none;dashed=1;html=1;rounded=0;" parent="1" edge="1">
          <mxGeometry width="50" height="50" relative="1" as="geometry">
            <mxPoint x="629.5" y="510" as="sourcePoint" />
            <mxPoint x="629.5" y="140" as="targetPoint" />
          </mxGeometry>
        </mxCell>
        <mxCell id="6r981LjYlA-GBGmlzHzs-11" value="1. 주소 입력" style="endArrow=classic;html=1;rounded=0;" parent="1" edge="1">
          <mxGeometry x="-0.0448" y="10" width="50" height="50" relative="1" as="geometry">
            <mxPoint x="106" y="170" as="sourcePoint" />
            <mxPoint x="240" y="170" as="targetPoint" />
            <mxPoint as="offset" />
          </mxGeometry>
        </mxCell>
        <mxCell id="6r981LjYlA-GBGmlzHzs-12" value="2. 데이터가 없다면 변환 요청" style="endArrow=classic;html=1;rounded=0;" parent="1" edge="1">
          <mxGeometry x="-0.5897" y="12" width="50" height="50" relative="1" as="geometry">
            <mxPoint x="240" y="252" as="sourcePoint" />
            <mxPoint x="630" y="252" as="targetPoint" />
            <mxPoint as="offset" />
          </mxGeometry>
        </mxCell>
        <mxCell id="6r981LjYlA-GBGmlzHzs-14" value="3. 변환된 위도, 경도" style="endArrow=none;dashed=1;html=1;rounded=0;startArrow=classic;startFill=1;" parent="1" edge="1">
          <mxGeometry x="-0.6923" y="-10" width="50" height="50" relative="1" as="geometry">
            <mxPoint x="240" y="272" as="sourcePoint" />
            <mxPoint x="630" y="272" as="targetPoint" />
            <mxPoint as="offset" />
          </mxGeometry>
        </mxCell>
        <mxCell id="6r981LjYlA-GBGmlzHzs-15" value="4. 약국 데이터 Redis 조회" style="endArrow=classic;html=1;rounded=0;" parent="1" edge="1">
          <mxGeometry y="10" width="50" height="50" relative="1" as="geometry">
            <mxPoint x="240" y="332" as="sourcePoint" />
            <mxPoint x="380" y="332" as="targetPoint" />
            <mxPoint as="offset" />
          </mxGeometry>
        </mxCell>
        <mxCell id="6r981LjYlA-GBGmlzHzs-16" value="5. 데이터가 없다면 DB 조회" style="endArrow=classic;html=1;rounded=0;" parent="1" edge="1">
          <mxGeometry x="-0.44" y="10" width="50" height="50" relative="1" as="geometry">
            <mxPoint x="240" y="372" as="sourcePoint" />
            <mxPoint x="490" y="372" as="targetPoint" />
            <mxPoint as="offset" />
          </mxGeometry>
        </mxCell>
        <mxCell id="6r981LjYlA-GBGmlzHzs-17" value="6. 가장 가까운 약국 계산" style="endArrow=classic;html=1;rounded=0;edgeStyle=orthogonalEdgeStyle;" parent="1" edge="1">
          <mxGeometry x="-0.1398" y="22" width="50" height="50" relative="1" as="geometry">
            <mxPoint x="240" y="432" as="sourcePoint" />
            <mxPoint x="240" y="445" as="targetPoint" />
            <Array as="points">
              <mxPoint x="280" y="432" />
              <mxPoint x="280" y="445" />
            </Array>
            <mxPoint x="-2" y="-10" as="offset" />
          </mxGeometry>
        </mxCell>
        <mxCell id="6r981LjYlA-GBGmlzHzs-18" value="7. 길안내 URL 저장" style="endArrow=classic;html=1;rounded=0;" parent="1" edge="1">
          <mxGeometry x="-0.6" y="11" width="50" height="50" relative="1" as="geometry">
            <mxPoint x="240" y="473" as="sourcePoint" />
            <mxPoint x="490" y="473" as="targetPoint" />
            <mxPoint as="offset" />
          </mxGeometry>
        </mxCell>
        <mxCell id="6r981LjYlA-GBGmlzHzs-19" value="8. 가까운 약국 정보 제공" style="endArrow=classic;html=1;rounded=0;" parent="1" edge="1">
          <mxGeometry x="0.0769" y="-14" width="50" height="50" relative="1" as="geometry">
            <mxPoint x="240" y="497" as="sourcePoint" />
            <mxPoint x="105" y="497" as="targetPoint" />
            <mxPoint as="offset" />
          </mxGeometry>
        </mxCell>
        <mxCell id="6r981LjYlA-GBGmlzHzs-20" value="[miss]" style="shape=umlFrame;whiteSpace=wrap;html=1;pointerEvents=0;width=55;height=20;" parent="1" vertex="1">
          <mxGeometry x="105" y="352" width="525" height="40" as="geometry" />
        </mxCell>
        <mxCell id="Xvh4Ea2OsRVNu9SrrAmw-1" value="2. 주소에 대한 위도,경도 값을 조회" style="endArrow=classic;html=1;rounded=0;" parent="1" edge="1">
          <mxGeometry x="0.2857" y="10" width="50" height="50" relative="1" as="geometry">
            <mxPoint x="240" y="200" as="sourcePoint" />
            <mxPoint x="380" y="200" as="targetPoint" />
            <mxPoint as="offset" />
          </mxGeometry>
        </mxCell>
        <mxCell id="Xvh4Ea2OsRVNu9SrrAmw-2" value="[miss]" style="shape=umlFrame;whiteSpace=wrap;html=1;pointerEvents=0;width=55;height=20;" parent="1" vertex="1">
          <mxGeometry x="105" y="230" width="525" height="60" as="geometry" />
        </mxCell>
        <mxCell id="Xvh4Ea2OsRVNu9SrrAmw-4" value="Pharmacy" style="swimlane;childLayout=stackLayout;horizontal=1;startSize=50;horizontalStack=0;rounded=1;fontSize=14;fontStyle=0;strokeWidth=2;resizeParent=0;resizeLast=1;shadow=0;dashed=0;align=center;arcSize=4;whiteSpace=wrap;html=1;" parent="1" vertex="1">
          <mxGeometry x="98" y="736" width="160" height="140" as="geometry" />
        </mxCell>
        <mxCell id="Xvh4Ea2OsRVNu9SrrAmw-5" value="bigint id&lt;div&gt;varchar pharmacyName&lt;/div&gt;&lt;div&gt;varchar pharmacyAddress&lt;/div&gt;&lt;div&gt;double latitude&lt;/div&gt;&lt;div&gt;double longitude&amp;nbsp;&lt;/div&gt;" style="align=left;strokeColor=none;fillColor=none;spacingLeft=4;fontSize=12;verticalAlign=top;resizable=0;rotatable=0;part=1;html=1;" parent="Xvh4Ea2OsRVNu9SrrAmw-4" vertex="1">
          <mxGeometry y="50" width="160" height="90" as="geometry" />
        </mxCell>
        <mxCell id="Xvh4Ea2OsRVNu9SrrAmw-8" value="Pharmacy" style="swimlane;childLayout=stackLayout;horizontal=1;startSize=50;horizontalStack=0;rounded=1;fontSize=14;fontStyle=0;strokeWidth=2;resizeParent=0;resizeLast=1;shadow=0;dashed=0;align=center;arcSize=4;whiteSpace=wrap;html=1;" parent="1" vertex="1">
          <mxGeometry x="370" y="710" width="160" height="180" as="geometry" />
        </mxCell>
        <mxCell id="Xvh4Ea2OsRVNu9SrrAmw-9" value="bigint id&lt;div&gt;varchar pharmacyName&lt;/div&gt;&lt;div&gt;varchar pharmacyAddress&lt;/div&gt;&lt;div&gt;double latitude&lt;/div&gt;&lt;div&gt;double longitude&lt;/div&gt;&lt;div&gt;&lt;b&gt;varchar depth1&lt;/b&gt;&lt;/div&gt;&lt;div&gt;&lt;b&gt;varchar depth2&lt;/b&gt;&lt;/div&gt;&lt;div&gt;&lt;b&gt;varchar depth3&lt;/b&gt;&lt;/div&gt;" style="align=left;strokeColor=none;fillColor=none;spacingLeft=4;fontSize=12;verticalAlign=top;resizable=0;rotatable=0;part=1;html=1;" parent="Xvh4Ea2OsRVNu9SrrAmw-8" vertex="1">
          <mxGeometry y="50" width="160" height="130" as="geometry" />
        </mxCell>
        <mxCell id="Xvh4Ea2OsRVNu9SrrAmw-13" value="" style="rounded=0;whiteSpace=wrap;html=1;fillColor=none;strokeColor=#FF1C24;strokeWidth=3;" parent="1" vertex="1">
          <mxGeometry x="372" y="840" width="106" height="50" as="geometry" />
        </mxCell>
        <mxCell id="Xvh4Ea2OsRVNu9SrrAmw-14" value="" style="shape=singleArrow;whiteSpace=wrap;html=1;arrowWidth=0.3076923076923077;arrowSize=0.4166666666666667;" parent="1" vertex="1">
          <mxGeometry x="284" y="774" width="72" height="52" as="geometry" />
        </mxCell>
        <mxCell id="Xvh4Ea2OsRVNu9SrrAmw-15" value="" style="shape=image;verticalLabelPosition=bottom;labelBackgroundColor=default;verticalAlign=top;aspect=fixed;imageAspect=0;image=data:image/png,iVBORw0KGgoAAAANSUhEUgAAAXIAAAFKCAYAAAAADdTJAAAMQGlDQ1BJQ0MgUHJvZmlsZQAASImVVwdYU8kWnluSkEBoAQSkhN4EESkBpITQQu9NVEISIJQYA0HFji4quHaxgA1dFVGw0iwoYmdR7H2xoKCsiwW78iYFdN1XvjffN3f++8+Z/5w5d+6dOwConeCIRLmoOgB5wgJxTJAfPSk5hU7qAWSgDKjAE+Acbr6IGRUVBmAZav9e3t0AiLS9ai/V+mf/fy0aPH4+FwAkCuJ0Xj43D+JDAOCVXJG4AACilDebWiCSYliBlhgGCPEiKc6U40opTpfjfTKbuBgWxG0AKKlwOOJMAFQvQ55eyM2EGqr9EDsKeQIhAGp0iL3z8ibzIE6D2BraiCCW6jPSf9DJ/Jtm+rAmh5M5jOVzkRUlf0G+KJcz/f9Mx/8uebmSIR+WsKpkiYNjpHOGebuVMzlUilUg7hOmR0RCrAnxBwFPZg8xSsmSBMfL7VEDbj4L5gzoQOzI4/iHQmwAcaAwNyJMwadnCALZEMMVgk4TFLDjINaFeBE/PyBWYbNFPDlG4QutzxCzmAr+HEcs8yv19UCSE89U6L/O4rMV+phqUVZcIsQUiM0LBQkREKtC7JCfExuqsBlXlMWKGLIRS2Kk8ZtDHMMXBvnJ9bHCDHFgjMK+NC9/aL7YliwBO0KBDxRkxQXL84O1cTmy+OFcsMt8ITN+SIefnxQ2NBce3z9APneshy+Mj1XofBAV+MXIx+IUUW6Uwh435ecGSXlTiJ3zC2MVY/GEArgg5fp4hqggKk4eJ16UzQmJkseDLwdhgAX8AR1IYE0Hk0E2EHT0NfTBO3lPIOAAMcgEfGCvYIZGJMp6hPAaC4rAnxDxQf7wOD9ZLx8UQv7rMCu/2oMMWW+hbEQOeApxHggFufBeIhslHPaWAJ5ARvAP7xxYuTDeXFil/f+eH2K/M0zIhCkYyZBHutqQJTGA6E8MJgYSbXB93Bv3xMPg1RdWJ5yBuw/N47s94Smhk/CIcJ3QRbg9SVAs/inKcNAF9QMVuUj/MRe4JdR0wf1wL6gOlXEdXB/Y487QDxP3gZ5dIMtSxC3NCv0n7b/N4IenobAjO5JR8giyL9n655GqtqouwyrSXP+YH3ms6cP5Zg33/Oyf9UP2ebAN/dkSW4QdxM5iJ7Hz2FGsAdCxFqwRa8eOSfHw6noiW11D3mJk8eRAHcE//A09WWkm8x1rHHsdv8j7CvjTpN9owJosmi4WZGYV0JlwR+DT2UKuwyi6k6OTMwDS/UX++XoTLds3EJ3279z8PwDwahkcHDzynQtpAWC/G3z9m75z1gy4dSgDcK6JKxEXyjlceiHAr4QafNP0gBEwA9ZwPk7AFe5jviAAhIBIEAeSwUQYfRZc52IwFcwE80AJKAPLwRqwAWwG28AusBccAA3gKDgJzoCL4DK4Du7C1dMNXoB+8A58RhCEhFARGqKHGCMWiB3ihDAQbyQACUNikGQkDclEhIgEmYnMR8qQlcgGZCtSjexHmpCTyHmkE7mNPER6kdfIJxRDVVAt1BC1REejDJSJhqJx6AQ0E52CFqEL0KXoOrQK3YPWoyfRi+h1tAt9gQ5gAFPGdDATzB5jYCwsEkvBMjAxNhsrxcqxKqwWa4bP+SrWhfVhH3EiTsPpuD1cwcF4PM7Fp+Cz8SX4BnwXXo+34Vfxh3g//o1AJRgQ7AgeBDYhiZBJmEooIZQTdhAOE07Dd6mb8I5IJOoQrYhu8F1MJmYTZxCXEDcS64gniJ3Ex8QBEomkR7IjeZEiSRxSAamEtJ60h9RCukLqJn1QUlYyVnJSClRKURIqFSuVK+1WOq50RemZ0meyOtmC7EGOJPPI08nLyNvJzeRL5G7yZ4oGxYriRYmjZFPmUdZRaimnKfcob5SVlU2V3ZWjlQXKc5XXKe9TPqf8UPmjiqaKrQpLJVVForJUZafKCZXbKm+oVKol1ZeaQi2gLqVWU09RH1A/qNJUHVTZqjzVOaoVqvWqV1RfqpHVLNSYahPVitTK1Q6qXVLrUyerW6qz1Dnqs9Ur1JvUb6oPaNA0xmhEauRpLNHYrXFeo0eTpGmpGaDJ01yguU3zlOZjGkYzo7FoXNp82nbaaVq3FlHLSoutla1VprVXq0OrX1tT21k7QXuadoX2Me0uHUzHUoetk6uzTOeAzg2dTyMMRzBH8EcsHlE74sqI97ojdX11+bqlunW613U/6dH1AvRy9FboNejd18f1bfWj9afqb9I/rd83Umuk50juyNKRB0beMUANbA1iDGYYbDNoNxgwNDIMMhQZrjc8ZdhnpGPka5RttNrouFGvMc3Y21hgvNq4xfg5XZvOpOfS19Hb6P0mBibBJhKTrSYdJp9NrUzjTYtN60zvm1HMGGYZZqvNWs36zY3Nw81nmteY37EgWzAssizWWpy1eG9pZZloudCywbLHSteKbVVkVWN1z5pq7WM9xbrK+poN0YZhk2Oz0eayLWrrYptlW2F7yQ61c7UT2G206xxFGOU+SjiqatRNexV7pn2hfY39QwcdhzCHYocGh5ejzUenjF4x+uzob44ujrmO2x3vjtEcEzKmeEzzmNdOtk5cpwqna2OpYwPHzhnbOPaVs50z33mT8y0Xmku4y0KXVpevrm6uYtda1143c7c0t0q3mwwtRhRjCeOcO8Hdz32O+1H3jx6uHgUeBzz+8rT3zPHc7dkzzmocf9z2cY+9TL04Xlu9urzp3mneW7y7fEx8OD5VPo98zXx5vjt8nzFtmNnMPcyXfo5+Yr/Dfu9ZHqxZrBP+mH+Qf6l/R4BmQHzAhoAHgaaBmYE1gf1BLkEzgk4EE4JDg1cE32QbsrnsanZ/iFvIrJC2UJXQ2NANoY/CbMPEYc3haHhI+KrwexEWEcKIhkgQyY5cFXk/yipqStSRaGJ0VHRF9NOYMTEzY87G0mInxe6OfRfnF7cs7m68dbwkvjVBLSE1oTrhfaJ/4srErqTRSbOSLibrJwuSG1NIKQkpO1IGxgeMXzO+O9UltST1xgSrCdMmnJ+oPzF34rFJapM4kw6mEdIS03anfeFEcqo4A+ns9Mr0fi6Lu5b7gufLW83r5XvxV/KfZXhlrMzoyfTKXJXZm+WTVZ7VJ2AJNgheZQdnb85+nxOZszNnMDcxty5PKS8tr0moKcwRtk02mjxtcqfITlQi6priMWXNlH5xqHhHPpI/Ib+xQAv+yLdLrCW/SB4WehdWFH6YmjD14DSNacJp7dNtpy+e/qwosOi3GfgM7ozWmSYz5818OIs5a+tsZHb67NY5ZnMWzOmeGzR31zzKvJx5vxc7Fq8sfjs/cX7zAsMFcxc8/iXol5oS1RJxyc2Fngs3L8IXCRZ1LB67eP3ib6W80gtljmXlZV+WcJdc+HXMr+t+HVyasbRjmeuyTcuJy4XLb6zwWbFrpcbKopWPV4Wvql9NX126+u2aSWvOlzuXb15LWStZ27UubF3jevP1y9d/2ZC14XqFX0VdpUHl4sr3G3kbr2zy3VS72XBz2eZPWwRbbm0N2lpfZVlVvo24rXDb0+0J28/+xviteof+jrIdX3cKd3btitnVVu1WXb3bYPeyGrRGUtO7J3XP5b3+extr7Wu31unUle0D+yT7nu9P23/jQOiB1oOMg7WHLA5VHqYdLq1H6qfX9zdkNXQ1Jjd2NoU0tTZ7Nh8+4nBk51GToxXHtI8tO045vuD4YEtRy8AJ0Ym+k5knH7dOar17KunUtbboto7ToafPnQk8c+os82zLOa9zR897nG+6wLjQcNH1Yn27S/vh311+P9zh2lF/ye1S42X3y82d4zqPX/G5cvKq/9Uz19jXLl6PuN55I/7GrZupN7tu8W713M69/epO4Z3Pd+feI9wrva9+v/yBwYOqP2z+qOty7Tr20P9h+6PYR3cfcx+/eJL/5Ev3gqfUp+XPjJ9V9zj1HO0N7L38fPzz7heiF5/7Sv7U+LPypfXLQ3/5/tXen9Tf/Ur8avD1kjd6b3a+dX7bOhA18OBd3rvP70s/6H3Y9ZHx8eynxE/PPk/9Qvqy7qvN1+Zvod/uDeYNDoo4Yo7sVwCDFc3IAOD1TgCoyQDQ4PmMMl5+/pMVRH5mlSHwn7D8jCgrrgDUwv/36D74d3MTgH3b4fEL6qulAhBFBSDOHaBjxw7XobOa7FwpLUR4DtgS9DU9Lx38myI/c/4Q988tkKo6g5/bfwFmOXxjs1rZpwAAAIplWElmTU0AKgAAAAgABAEaAAUAAAABAAAAPgEbAAUAAAABAAAARgEoAAMAAAABAAIAAIdpAAQAAAABAAAATgAAAAAAAACQAAAAAQAAAJAAAAABAAOShgAHAAAAEgAAAHigAgAEAAAAAQAAAXKgAwAEAAAAAQAAAUoAAAAAQVNDSUkAAABTY3JlZW5zaG90UQUSngAAAAlwSFlzAAAWJQAAFiUBSVIk8AAAAdZpVFh0WE1MOmNvbS5hZG9iZS54bXAAAAAAADx4OnhtcG1ldGEgeG1sbnM6eD0iYWRvYmU6bnM6bWV0YS8iIHg6eG1wdGs9IlhNUCBDb3JlIDYuMC4wIj4KICAgPHJkZjpSREYgeG1sbnM6cmRmPSJodHRwOi8vd3d3LnczLm9yZy8xOTk5LzAyLzIyLXJkZi1zeW50YXgtbnMjIj4KICAgICAgPHJkZjpEZXNjcmlwdGlvbiByZGY6YWJvdXQ9IiIKICAgICAgICAgICAgeG1sbnM6ZXhpZj0iaHR0cDovL25zLmFkb2JlLmNvbS9leGlmLzEuMC8iPgogICAgICAgICA8ZXhpZjpQaXhlbFlEaW1lbnNpb24+MzMwPC9leGlmOlBpeGVsWURpbWVuc2lvbj4KICAgICAgICAgPGV4aWY6UGl4ZWxYRGltZW5zaW9uPjM3MDwvZXhpZjpQaXhlbFhEaW1lbnNpb24+CiAgICAgICAgIDxleGlmOlVzZXJDb21tZW50PlNjcmVlbnNob3Q8L2V4aWY6VXNlckNvbW1lbnQ+CiAgICAgIDwvcmRmOkRlc2NyaXB0aW9uPgogICA8L3JkZjpSREY+CjwveDp4bXBtZXRhPgojtubLAAAAHGlET1QAAAACAAAAAAAAAKUAAAAoAAAApQAAAKUAAG+L1XdYDgAAQABJREFUeAHsvel3XMeR9hmoBYUdJEiKFPdFlKjdlmRZXiTbrW53t93tXt5z5pyZD/Mnzbf5OvNh3nNm5kyfHr/T3W53v14pUZtla7O1r9x3Yt+qAMzzi7yJKoAAiaq6VSgQN8mLu9RdIiMzn4yMiIzsWlKyLGUcyDiQcSDjwJblQFcG5Fu27DLCMw5kHMg44BzIgDyrCBkHMg5kHNjiHMiAfIsXYEZ+xoGMAxkHMiDP6kDGgYwDGQe2OAcyIN/iBZiRn3Eg40DGgQzIszqQcSDjQMaBLc6BDMi3eAFm5GccyDiQcSAD8qwOZBzIOJBxYItzIAPyLV6AGfkZBzIOZBzIgDyrA/ckB5iw3NXVdU/mLctUxoHVHMiAfDVHsvMtz4HFxUVjy+Vyvm35DGUZyDhwFw5kQH4XBmU/bz4HlgTKS0uLZosKC8TxwoItLWpbCNc51w26pnt0vKjfFrTPFYpWKBZNaO7SeVc+bzow9r7ldM5x8vvm5zSjIONAYxzIgLwxvmVPtZEDC+V5W5ibs6VKxZa0r8xM2cLMtC3NzmqvTfsl3bM4X7bF2Wlb1H0mzM/19Fi+p9e6BOa5UknHbL2W69X13n7L9/VZV0nn/AagZ6qYNpZq9qk0OZABeZrczN6VCgeQthcB6XmBs4C7PDlhFW0LE+O2MD5u5YlRW9D54vS0QHwmAXKBfFlAXhbg63lSrlCyru5ul7hzAvN8f58DeK6/3wqDw1YY0rZjp+V13D00qN/0u0AdSb6rUEglL9lLMg60gwMZkLeDy9k36uLA4vyczd28YfPaKmO3bO76dZu/etXmrly2+etXbEHXFyfHbUmS+aLAfkHgjQTuqTYqM7ZOXV8qA+w5Kw5I+u7rN5M0Xtg5om2Pde/bZ6V991vvwQPWvfs+K+3aYwXdA6hnKePAVuFABuRbpaTucTorU5NWHh+zeYF1AOxrVr5108pjNyWJT0oClzQ+Ial8elJS+qyZAHypUl7Wl6/HHsd16dJNoJ4rSjovStJG1dItyVtqlfyAQHtohxV2jVj3zt1W3LVLgD9sRUnqPcdOWEngntMzXV259T6RXc84sOkcyIB804tgGxGAQdJFZOXZjZMyWKIOESjPXb1ss5cu2MSHH9jMF59b5eZ1SeOoUMbNpP/uwoi5gO5bboVutMyFdzXKPoylGEdJ+YL05pLWB4cE4MOWG9hh3SN7bOdz37G+B09ZsX/AVS5ddAQyjGIw9U2PZnp152D2Z5M5kAH5JhfAdvr8oiToBRkkkaRRn5RHb9nsl5/b5Htv29xlqU0E3osyYi7OzUji1j1I3ALxJXmrdMlrJSxmJV1JGtIxojobCXDOy7NFevGwIbH3WGF4p3Xft896Dh+1vuMnrPf4A9KtD7nBFKm+Sx1AZiQNLMz+bi4HMiDfXP7fs18HdN1lEBdBvE4kdVcmpT6ZGLPFqamg+756xaY/+dAm337T5m9I7y3jZa5bIIoqIycViCRfl+DbxSU6C9QwyaiBkUJO+vTSkWPWd/JBG0A6H5H6Zecu6xKgFwYGrCjPF1Q2rrZJXBnbRW72nYwDkQMZkEdOZPtUOYAf94LUJkvyKqlI8p4TaM9evmhzF7VdviBd+CWrXL8qo+WkWUXeKQC+nrGc/LxrVBepErWRl0UpXfe66kXSOh4vObku5kqS0nfvteJ9+63n4GErHThoPft0PrLLuodHZCCVzl33ZCnjQLs5kAF5uzl+j38vGi3LMkxW5C5YwftEgD13+ZKVr1+T+uSaLdy6FfTfukdoKfDrTqTvDmROHFkwEQla++WmOLTTinvus27f9kr9ouNd2vCEGZbhFPWLJPW8/Ni7mHSUpYwDLeZABuQtZvB2e/3MhXM29fknNivJe/biBZvVeUWeKJVbV30yD5N6fCal3EgEja7FwKNky6QE0PFi6VIHlBsUcKNukS69tFeS+v4D1n/0uJX277eSrufkx56ljAOt5kAG5K3m8D38fjdeasLOglwHcRmc+fILm7tw3mavXHAd+IJUKhVJ3YvT8vfWfdKfuASOsRL1SWJqXIND+kUGzmDcxLbJ/U16qazxldpLsS9Zn6bkblQvksw9SdpmwlGO2aI9ksBxZWRyEQbS/QetV7r10v0HrGfv/VK79LjLY+03s+OMA2lxIAPytDh5D7/HATUBMI9vIjdAJOuyABrf77Im6Ux+9IGNvfGala+h99ZkHXml4J3iSaDtLoMbEb3xHkFHTkKtId25nvZriwAodJDiPeGszr+AcfKIv6dLqnl1LPpseD2/xxs28Gqk9GQ2KR4wOalfkNB7HzhlAw89bAMnT8mdUWoXqVzwiskxa9RDAshbBpsAfGkqPxugMbvlnuZABuT3dPE2nzmMlosYIfE8EXAz2xKwRgKfPf+lzV+66GC+MDZmlfHR4C7I/fhos5EAqbsBld+7ZPldu8O0+eFhN37y3kWm5mtSEC6LdA4uoeMy2Ij+mc4B0AV8dezuhj5BqMeWBKpOs4y0VpGf+TLah2ys+xfQj8CvfDpYy+iZ0+zQHD7ofQPWvZcZpJLOjxy1HknpRQF7Xr9hQM3jqaOwAFnKONAoBzIgb5Rz9/hzqEKIY1LWvkKAKoFp+cY1m9OknaD7Pm/z57/S1PnL8v3WTEsBWa4UfKvdL7te/iRAXpABsSi1RP+pRz3IVWV01OavaZanOo8QXyXM7Fwqh9gqdBBhkg4fFBCvlUSbjyr4Bmoa3BtRiWh2Z14qkRzBszQtHx928rikvc3Jf/1unc9a39I1l7D1rQV54yzRIWgrqIPqlg69V/7oPYeOSJ9+v6T0XZbfscOKmllaHBh018suAbpL7A1+ex2Sssv3OAcyIL/HC7jR7M0KoGfOfakp8uM2r6nycxcE2hfPW/nSJenEJSHPzEj6ZnJPnCEp6RYp2bF0HUC9AzH+hATbru6CdQvo9v7D/+igh648er2EmCsaCUCLvGAqir/SJSka3/M423OtT3jYW6mC3C/c1R7yMFF8ldJ99we/cIEp+u3pzz+10TO/tQXFd7FZ6fSl5tEH1nrlxq5JFeSCOhOakglHHnmxT6At75Zufb90v3Tph4/InfGg+6d3axIS/ulBFbWxz2R3ZRzIgDyrA646WUR1wkQd6bcr4xM2+9UXNvXpB1bRtQWdl2/JbXBUcU80bX4RaVjqCXetS0lyjNDPu4t799qev/lHG/r6sw5yPjKQ4XRBPufzN65rKv85qXXO2dzZs3JvvCbD6s3gg+5SfW2BIq3rzZK+UWMU5SJY3CN3QQXK6t6jDZ9wqXDwE69MTdj4H35n13/+L0Ei17tCxxQpq31vA8d6n0+Q0qNdefzSpVKRYTS/U7NHCdalPCOll/btd8m9KFfG4qAAP5lB2sAXs0e2EQcyIN9Ghb1eVisKGVsWkM0JHGfOfmnTX3yuGZcf2Own77vEjd6Y1XYQt93guN6Lmr0u8bUypdmdmk05+MyzNvLdH9ieF//SpWUXbSWxI1WXpYuflW5+Sl4y4394XTNDf+dqFyYf1SY6GlQV+d27FQDrAb3ve9anfVFSbw5Vhr5TkOERf/fx996xm6d/aTd+9v85+ONl0sokBY+re5aWpK9HPaTwud2aYFQ6csL6Tz5i/SdOalNIACIxyismSxkH7sSBDMjvxJ177Df0xL4MmoyGuAyWNS2+LAkXKXdeumFUGPPXrkgffcVnYyJ9u6sdKg9UDBJOddjSxOIQGDELMgYOPf1N2/uTf7ReqVq6NS2exGxLoh8yUiiLvtnzZ21GuvryzavynlE+FK8FTxd030i13fLlRg/dfd9egfgJfw+6cY9Tjj5aHdSsOq8r/+2fXCKf+ewTfV9ZxbOkhQk5P3gDJQZh5Tkn9U6ByUaS0JHSuxk9MOmI0LrSp2MgRZ/OAhmZcbSFhbMFX50B+RYstHpI9mnmDOvlMrgonXYZiVYAWEEHjvT9+WeadSnPkyuK8y3d9yJhYpFsJSUSP2QzEjrtBcVd6T/1mO3+27+3oSeesoEHHlpT1bGgTqkiY+vctYvyoDlv05LSlyqLcvXbqRjjmkIvKdc9R6TKKMhDZIXumY5NuvPJ99+1c//r/2LTn36sbIf4Lq3usG7jq2hxdZV+IM4MErrJ66VbqpaS+6QfVX4IC3DIRxRFLY7hHjcK3OUqIIy4Kam5bqMtu9DxHMiAvOOLqDkCAcSy9N5zAmpcBueuKtbJFQG3Zl2Wb2nhBum/lyTh4trHhJ3oJ4747QDR3OcbeprOB0MqBsm+x5+0keeetx3aCoSalTRdm1xCp5NS54MBFs8WJF06oTxqCYFhADypWdx3u6rzpnObkYoG3fjl//q/u3RPTBVGHpuSRLcnVC0AMyAt/T6gnhdw52UgLUo6L+2jgzqsSUfSpys8QH5AAbyYlMS9GZhvStFt9kczIN/sEkjx+w6AkmZDmFgZL6X7ngfAL0j9gNugtjnNuiwrgFUFNzu5FvLMskSHX/ZmAUEEMfiRSKd5GSK7JYGOvPCi7fr+DyWJajq8wDmNBNgvqAMbVwjd0dfP2M2f/6vHgsn3SR+9WTyoyVjoS2STIJSvOhySu0zK64aZo6X9h1xCZ8RBh1fEvVGqJF8wg7jpdFrqDLK0PTiQAfk9VM5RzcDEHAJUzVy4YNMf/cmm331L0qq8TxTn2xcplmeIT3wBMLUtS3GbCWBI4RoRLCfR5bptAfnO73zfRp7/c8Uu2SWVyeDyLc0cMNGpLC+YG7/6Dxt95bRNvfcHzUidCBL/ZvJhdaaSMuIywOxGZ+nvGWUw2iBmeun4g9aLcfSBB1yfXtyhWaRI6KhnsrQtOJAB+RYuZqbJI3UTcdAjDWLAlP4bg+WcVAZs5QvnfOKO68iTGCEO3C6tbZIOAXByvb2AG0NqXnTI8MhEnQLLrg0reqBc8zw8rHytBx9+zAYeecIKzJKUrjuNVJHqZl7eKjd+8e82+upLNvvRH+VaqdWI0KvIZdH9vjVCgVdt15ffIYOiTJ1v6PRyGEilairIKFqULr3n0KEgreNWKQmdEQxul4TXZZYpUnrwPrrDB7KftiQHMiDfksUWiEYnPCcvDXyqccVzDxRCxmrCTFnGTIJWCTEV1qMoMOJfZ6QwQUerBc3OiyD02Yo/Ikm7sGOX9Uiy7DtxwvoIOKWZkEXF+Wb9zG6teJ+myqMitdK8Ri63Xv61jb3+is28/446wOuiaU70CMBFU74o7xbpqTuHcyvLD1BHDbWoGaTyo/SFpYu79lpB8dJ7D0mHfvCQR2PEb74ocC9g8G2xN85KCrOzdnEgA/J2cbrJ7xDvBH0pCxLPy80uuA3KZVBT1wlahSoFyZxVdhbkE44qBR04Mjf+1JsK4q4ekJsdRIgg1r4kYiBSN26Gpfu0mv1ugY0ky9LuPS5NelxvSZNInCzWkHY4WOendOQzsh/MnZMN4awiN8qeMH9TERtvab1QdYIE/wpLzwkoJZl3AfCMZJqZ7dlkPVj9eJd4uohKCvoAc1QqqFyIia7Oj06wIANpt4cEkB5d6ikmH0V9+govntUvz863DAcyIO/Qogo+xpIFMV5q1mUF7xOpAmbPfWXTX31hM9rm8DzBaCngNknnNGh3YdMQupPAxiVpAU2uICBklqVieBMci1V2mJ7ee/SowOWAz7TERZDZjO1MxJWZo4PUlP9ZefTMfPWlA3tZ7owVOslRecIsVpz+dtLV0LdqbQ3qcOgAc8RyYeGLxJVx4MEHfcTDxCjULrWLSrvaTWWVpa3FgQzIO7C8YsRB3AIrWk3H/b0/+9hmtL5lWdPRK+PEOlEgK/0e4p3IeMlSaa4Dl4jmDbFzGmOOtS01tC9pqN935Igkb02PH9EkFwFJcVA6XP2eL0mS1NDfZ2O6/r59BUPnt6ggWRiLF9UhMrJhwlRFIQnmtCQdC2Wwr9wkRIE2uWx2bNLoB3WLJ6R09PzqQM1HQSxX1yu+yxtIE476Tj5svZrpyoSrPOEAxP8892Xql44t3vUIy4B8Pc608Xow/IUJO8Q8qUwr6iBgQrAquQxOffqRzWibE5CziDHSoa9QQyPV5qrSNtJb76cY2pdOPOQr0fcfP+7SIUZNV5kINJbdH+mA2DA2+kxS9jUdkgCeez3PxFBRxsN5Om52jILiSAivHmK8MFN06otPPIAYIQxYOKOsgF2Ls9MeLoCgXsvAWS9j2nC/OCT6gnHU65nyBc8wgpZOSDI/LpuEwLykMLsFgTsBuwpSzfhi0sR5ScpnRTm0ge7sE/VxIAPy+vjVkruZcYkUSJTBsoBj7oqG+FqgePbLz6U+0VJpN7RYAxI4boMubSFxJQBXC3Qtoa75l+Ln3PvYE5oyv8cBhOnlridH+gMsGP4DGNowfGJozBU0qxSdtAy1IYthpqn7SWvSDjFU5IKhWN7Soev5NBLhCyryBDKpsxSDVvgnAJRdgjjsFYzKmgE7rTKZ+ULlotAAXDN1rL6akRsA0qCiRe9IpHQMtw7uYiqSek6qlYKiMeLC2HfqER8pde8iHIBcPaVfR1JHSs+jrstSx3IgA/JNKhp3GZRuuzJJdMExxTqRt4kMl268VOwTjJnE4K4opCogLgR3D4pNIrfhz9Ld5OVOWNBiChjimH4ekoBE4BBAHRAPcbi7APa4Ae7MbtR9vgnc0fnm5R+d08QdlyplxGMpNX/PHcAGUGb2KkG3fIEKbA9sAm6m6S8tlD2EAdEXucfUufrvuo6NAuNxZWJMOnTNjlUo37JcOyuaGdvlIyTgMVFnNMyp6oOhixZ/EKYZJVR/Su+I98aJRuIxhuYiC14IvIuKa1MckfsihmeuDw355gG8cGPE1tFBBt/0mLJ135QB+SaV3bQkbYI9zZ5ngWKtc3lREt5VVppX0CekbwFEUJuE2B+bRGbTn3XpTzpoFlkIo4lkJMGbORQguB7XwVoqEoE1krmh13XVkYBc4N3FohVdALrOdYxXS7e8L4Yf/7oNP/mMT45BVbNeQmWFsbisjpFtUW6GvniG1FgLUpMA1EzzX5wRoMv2wKxP9tyzOK/YM1JnQf+i/PYXFNuFVYuWZIDuohNwsE0PbsURtEvaumxB72ZrdQLU2YgImdfsUQzSBQUawyDNgtKEAygR60XAjhtjTuWQpc7hQAbkbSgLjJcYJ1npxqfLf/W5Rxosa9m0iqTxBYyXuLoJSJYEFItarMEXKmb4q63ZZuxg2lQ+G5cKwWoHOtQVa+UEsdPzKfhCykM/LpUJ11Cd+B4ecN3DEmqPSgB1jNQCw9/4rs/8xG8al7rbEuArsEUtcuvV0x5PZVEjobhyj0voFYE1U+F1H0u8+TJvoncRiVXnS4uKyJiAKdd41nS/38t1bc2WUaQb0J6T4bqiEQTHfcpr6Q4jjfhcs3tGLNQ5RkaMiHLdYak6j/EiibyAq6hULhhJe/Yf8kWle/cfDJONUlJtNZuH7fx8BuRplj4NWhuGMp99pwYPiJQxmmmizsynn9jEH9+2ibfeDAsU43UCwLm3CZgldzFJOsBCw8DA92sS8AeYOiDW7v2YP3dJyeuqUqcurPxEeAHA20Ti6YTS294S3Sprf3D9tXg39JyAXHFYhp/4mvUdPuo8XM6rHoBuYq1PfvBHu/Bf/zeb/fgD66qxNeBPHhd8qH3/3Y7d/5qOp8EUWej1Re/gnKKbE5hOir4ZdRgzqj8jAslBrYCUxx4Ah8Qo55UOmuP4nQn3t6teememb/tISKoxJm31PvCgFpV+xAYfedRD7TKD1FVfPoKiMw4dcGYgvTOP0/w1A/IUuQkoMyRH+iZedgWvE/kmT3/xqVwINdsSv2SG9TJsopMl0qC33gi+NE5tsZFvlLTQoPWcQGA1KC03doGOgw9eLkh4jN1BBaUgASegJFpcOotUIKlBJx0O76eTir/VEgjtvLuJtEzrqnc42EUeJb+5y6Ck4tLh49b78KN234t/ZUNSs6DHddVMvE90z1w+rwiHb9rl/+v/8NjjBUmcYT1O5YT3rnr3qs/ffgqhzrv1KL79kdorfDOqTBb0+UWdV7TNidZZ6NU2LtXamLZugWKvVE0jMvAOSlou6rykZeO4nhcNqF8cdPWBNcul9sONHLuQoXzyHdRfGKhlnygMSELfucP6H3zU+hU+ochyeUOanSu1jNtCmA+g+zMjaSNMr/+ZDMjr59mKJzCcLUiPij83ixSX5feN/7Gvc6nh/NzFi1o27TNfbb6iOCg0fY8XooN6AXvFh9XwHYQEsoA/sUEcoLX34TGGQjZiWycNEG+QENNEHh9usEqACL2z9M8hCahRKej9JFcjYPiTjtkwBLoKgk4IVYSAXSMO9M9B3aDzJFc0YpfMwktT/+udlr7dpfCuhZH7bPdf/JXtePY71q+p/QWt/hMTtE188K7deu2MXf+Xn3rkx4KeoSCa4n/8wAb3fIvywltxQeBY1gHqEwA8gvqMOkrUKvPiKyB+Q/WK3wDr3QC5OqBelVuveNurMgPQS+o8C8ug7tny+sC30s6f1xbyQB3QHgGgVy6MvaceU7AuGUg9AiPeLiPWpZmlRbk4FonzIs8iV9fofjqELKXPgQzIm+QpsU7mFBa2rCndc9KBz2q6t8f7liqlwvR5eZ/kkH5pWOhX9T2XgJv6Lu8KrnGLc2V/X65HkhJBkjTJpqD41CxlVhgiHre2HjZWi1ejwiNEQ3VfNAK6lFDnMHQmIXH7cDpR9yxpxR43CjJzFAOhAGZhWt428uBgjc+FCR2P6VgjDaa1u55Zr43R99KHEycTSp2nvn7oUs4Gvv60DT/7bV8arlfGuZgwWF4//Qu78dJvbeLVl90mUejvawug1ErKADLAPc+msotALuWbwFpSuQhGMue+sn6fUAd0U5OUZgXqZT0DWLN1Cwv7JJkPqFMeUFkC7v3qsPsE7t0C9gjqvIf3tST5e70mC6BVd6T+ycuFMY/Hy577fTUmvF169rEOqUIvaB5BUeECCgA6HXyWUudABuR1shQgK8tASZTBBabMa0o3s/5YNi3EQNEixQCb9LIsFrwoH2Tc5TDQNdWsaDw0Tg27UXUggeN+V9AsyYKGtSzUS0Ni8QFfUEEqhnxfn3tzFATmSEUGiCOJ+4YUHoDcvUaQlpRckuMbCbVB4lYHJEDnmI2FiisK+cosSPexFj9QGQHkGG995qlc88g/iY4LiawVSl2WhmM0UNSSaH0a4t//X/4H19+6VC4ALIvOq//+U7v58m9s5qMPPRYNS6W1SjIMHAWUkbyDysQlb9GC9M1xWXt+i2BLvYh1A/AFuCdVzxzIHfQpD9jXJV1517J6BakcCb0vAXKMokjrnCOtA+p6nVILu1PUbaovLnVLneKLXGjmqM/alYRe3KP4LprVy5J7LFPnUru8YfLUxUw6p3BSSRmQ18lGwsVOarr81OefhmXSBOLz1y7botQpiwIugI4KSojR0EBjE63zQ6tvV+NGol+QlMY3AOlerUE5/PyLilVyXG5hmmzDVPc+BZpSQw5qFkXwk7SEdOxJKBOlxNWvv9s5AB+Txz3XsN8nzUjtgp97RR3WgpaJm7lwTpNmPpP0+4pNf/iBP5IviQYWhABYliErvi2FvWirTM1osYUDtu9/+p9t+JlvWv+ho+4Xzojp0v/7f9vomdO2IF99d+tMRh8pfHnFK+BtBHJAe0blhL4bqZqx2ILK0CXvFU+tPFkN5C65J6OjlXeGfpG61i1w71Z9A8h3iNe71WnvUmc1pJEX7/PJp63g+2qC9C1UXtFo3yW1iklS98lFzO5VrJeBhx+xoWeek9olLHy9+hXZeWMcyIB8Db65ekGNMHqUIH0SdXD6MxktNbNvVmDFMmkYLZFKF7VgAxt6cm81AKaMi1XoW+MjG7kEeKtxkFgkICeQLmryCw2ijxCl8uvtPqDYJTuGgxuYDFFBL57oIhMDZ9qxM+CLq19ACMAJnSnXpA6oyI0SqXz+gmwDgLqiCs5rlir+8Yv4aqsDcAldANQ0fyIPAStJsET7G3z6OS0L910b+e73bE7APa1O95pW/5l65y3RKpDhq+JLmimAZQBMjtFzY7Sc1/cAcIoQAPfRDvs7fLweIOc1dBzo0DF8skVjKOoWvF12KhQvEnpBYB+Mo+H+YCQNhNyJnnBHHX9VHyDKXUn1XbfXqGPJYfzESCr9OYtKDzz8uLZHHeQZTeJO2qyxvA4q77lbMyCPRarW5h4ZanyuPtFkjxDCVMulsVDx+XM29rtXbOqDP2nK/E21xgWpTFT5JN0F6bsFsqZoAXTQaTO9ndmRg1IfDDymRqDFiAn52skJFdTYO7/Tcmrvyv1PfPMY6TdCZ0cnAMillQEBJ6qjvPg0/M1v231/+4/qSL6y8T++ZeMvaeEIjRI80h+jlSaT00x90XvYXIUiAEN6Ri0yLSEgAHkwRKPi2GiqF8hXvzc+X1C9wQf9wEC/7VI97ZXEXpS6BaDH48V16UJcYX96ZbCKGDoZxijue6+6HDyNtC/LbfRbz9vI9160vqOKO6963Y1akJm/KZTPKjK2xWkG5Ekxu/eJZuyVJ6X/VpQ7X99SYWJnL553IK/IjbAyMeo6b1QbJDdaqiUwvE0NkHhveDuik+u9S0cfsH4B98BDD0salzFJEk1RahSknE5OPptSenOf1i7pfOqTj23y4/etokBgHqckyWkacK6KLJfCnC0KzPFz3vHstxT24LpC0mry1RefqfO97q5zjRiag8IkUBn12q7jFnCjQgG855HAE28UyiQaLx3MQMsNpgjEUUd+J9XKeq/kHWzQvaxDT3TpGEgxjOLSiD4dAynSeehqoDON0qhS5m8ULQxL/M3i2ZK24giGUU0uOvKA9am8Bh95XAtKa4UjxafPJPMq/zZ6tO2B3IMiabg/r1mW84rtjeESr5NZrXdJvO95ATmhZJl56R4fGGmQsOponBstjHifN341srxCvZYOH7OBrz1tgwLx/gdOhsh0GC63UGI5OqTz6c80IerDP9nU++/YrELDuk0B18YUeBkgSJMtBaoY1HqPHHXVV1kLRSzSAauTrrfceCcJHMKxMkrelRoAj8CLNwqAzj1M3gEcG0nxfc0AOd9dEI3QQkKtEg2hADiSuqteVJd7AHPRi6TOFtUvaQomTsSqP+7BJfqKWsqvR4LKjm9805fzG9AKUagRG+lwV31iW51ueyAn/sac1ric+uQjSYsfyX3wSysLyBfkXsd0+drp2m5lp4E22EjrqVlMP+9/4hs2KLe6QQF5j1ZOx0Dka0mmrOOth65G7nWVlSRWwJzOcvSNMzb+9ps2K57j4eOG2UZevMYzAJBP4We0grpFhkb09wzr6y03QI3ERJ05gfSsdN90FIAk0jdAyfd8i8faez3xJ+v/kxaQ+5cjGlNl9c9lYl1DCu/RhnTuwC714IAAHp06e36Leas/Bxt8wvklYsTjgkIr9D/2lO145lu249vf0WhTqxtJZ56ljXNg2wI5jZt408y4HP/jOzZNzG/NwGQyDz7SJu8QRLEoGcQ2sXHWNnCnvsc3c/JzZkWXHS+8aENPfVMxox/wONFbfZYcqhbWGZ340zs29vbvbezVlzRR6oJ1CRgDJDbAszs8EmA4ANgdbrvtJ8CU8kbydrVJIm0jdfObugQHOo7TTqkC+SriMLb6iEHgySLMRe2RxrtRtWjrkaS+W9LwTo34UMkUJcmnn8NaosRnjchYeKTn5KNupN714g+tWy60rBSVpY1zYNsCOd4TuKYxdfvqf/ybVpr/UnrUay7xCr03zsE07xRQMOQs3q8V0RXwf88Pf2xDTzztkynavfxZmtmqfRfS+YzUVZMfvGdXf/ZTrXr0kXVpolHw6GgtbNTScadj13uro5+QUQ73QaTvVoD2WjS0EshXfE+sppOqzRfqoP0SItgOKFwtk45a0cHW0kF9Z41RQi0MP/e87fnRT2T4zIC8lkcbOd62QM4wf+LD921UU7dv/uo/XZXStSgjpipzvUPwjTB6Q/ckQF46esKnPe/5sx9Kb/h4olJp3ttiQzS0+iZJhayPOf3ph3bpv/2TTb//ri0p+qPHiNmsDjTJM9IqqhOCVUV1yryuAXbt6mJaCeQrJHLxGok7qFkwfKJuyduIJPJhqTXQobdSIg+jJQ1Ame0sNeLSwWO281sv2MEf/8RK8mDJJPL6GuK2BHIqNB4NN189Y7de/o2NvfRrapQm0yQTZ+rjYXp3J0Dew7Jojz5pu77/ojxV5GuryT/3zNRm8R67BIHEmKgzqWiQi/ISkhJbXjqbO30bCRUfcNwHkcQBdrxPAogLzHXQakBvFZADnNDP+3FDjDpyn+Yv4B4ScKMfR6WCuqXlOvKEnormIFQU33zx0DHb9e3v2fG/+TvryYC8bkzZlkBOfPDZ69ds7I1XbfSVl2z81d9I6akh3mZ7gyRAXtx3UKqVB233nyui35Nf96Gmx0apu3g77wEkb2KDT8p75eq//LPNKKzskjxKAPI0vFeayTEgJ7W4XAoxaqqzV3lETxT2rorQB1oJ5mkDOSMMVCZ4rSBxxyn8/VKbDDpwY9xEHy7fct1HCAB3pwX1W5QwvIZOU1EetajHnPThvccfsoPPf99O/u0/ZEDeAN+3JZCzLuO0AlrdfP1VG3v9ZZt6/be+0ktes+A2NQFmanh5BfHv3nvARn7worxWvmF9WuWciH1b3b/WJ4TIuDX50fsydr5po7/5ha99SewY4LF10FF/qUJLCG4VvFNCsKsgpdcaO9OmOS0gB4yx9OB5E6Vv1CX98lTpk5cK4I0bogfa0j34tYTU2nKgoySPjHrYRmcV7rnUZztPPmKHX/iBPfSTDMiTgqhrt22BfFIRC89JtTL2mjwn3jhtRYFJqRMs5arkqFEI+tT31DMC8mdtWGDOLM6trjckVntF8WhuSJ2FbWLmo/dsQT76xGDpxIRQCqwB1u47rk42TgAijgouiVXVSzo5SAvImbmJ3hudt+u98Rl3TxR8xeXnLnIBezA8Qng6ObjzW1BdTYl3k3ToUquU5clEfKAMyO/Mt7v9um2BfEJAfvaVM3btld/a+JlfW4+a64CMLnFSRKzcaUtcdysQfmfoyWryLIbbo1lvQ1971vpOaAacYqt4zAo1yq2UAoBPaJbsBbl7fmHjb/1OoQ40w5MgVgTf6lAgr+UxABu24HoYjaEAfNClhz3HpEbrTT1AHjx9mAAsX+wEuOPkHvzDkcCHVVfYc87EIO4Ndbt+t8xafqx3HNsNv7v0LU7gdx87QEIXTEuN6fzTMXF6ilqMIgPy9Ti6sevbHsjPnf61XdQQfyC3ZDsH5HKlCo8+URFOvDG2dqC5diHR1Pg6IWvzO3fKg+UJG376WVn1vyN9+YjULANrP9ihV+cV4nb6qy+kTvmdjb35mpXPnxOIawV68XnTPIQa5FUoG4GUygcQjzFV0Pn6NH3tUb20A8h9cpI6DoQPXAV3a0TJpB5WEiIK4qCuRdhuVz2O/IG92BpQScUgYlMC8OARpBg0+j3XpTqeATmsajplQH46AHleroe9vYoUh/5QQ9BgAAqSThj4t0aCWa8EqegYBokel9OyWt2KsdJ35Kj1HDtuPYeP+iK4RS0iwWpDrB6/6YbaJCOLGjITt6aikLa+2IZCHUwrYuS0/MXnryjkwY0rWn1ekSIVRzyM62tluPW40VnXvWy8fIJ07hK5ABWpE3ANhlF552A01bUopW8kF+tJ5Ei1pNp45KwOhPqkT4CN98lAvug6b4CdeOTsI3cb7Vg2QjP3RJ5APx0cPJjVRueGCgoJnLgxkVdRpROAPFOtbJTP692XAXkC5AtlhVeVFINhyC37AnRcsQB1DEYsfLvcKtbjZguuE6CL2ZBEWSR6X89DD1nvg6e0pNkJrcCy31cEYvV4oscx1Z3woT4bVcNoJ5ihNK0mzaTGyrDe5U6O1Uh9xSI1WOK1z4/eUOCx6wo8Ju8URT2c/kihDzRzltXoWVEmp84prkiUJlmb8a5aCRSpF7xlAWWm8wNebjCV/M515xj8ugOh6wE57KYYAWg3WoqHw5K+UZ3EJeACcIey5it3+s4dSKj7J/+O/kA7EjijFPI+kxzDA2Kxk9wIu1wfo0SeAXndTF/1QAbkp4NEvliZl/5ZYVBVyeKGvrGkrQcdo0CScySimMKwtcUNhoavCSq0YuKKM32flYFyBObXiiv5kV3Wr3UTBx99whe9JUYLqpewlJtURGroacetQIpaUPxvYpETdKw8PioAn/Sl36YVDGtKroUVXVvwbVwBx7SakBZ+ULP1fNQbvCryu5X7UJbxC/WVaawRETij1MnejaSSzFEvBEk9SOkB1uL3qvu1gBxqUJMA2CwWQXxxwtJGl0IPSSsi3HiZvCrSUn1za46gl3ySvyh5s3fwTn7jntDxiwbV48gvurZMIk+nXDIgrwFy4ouHFJoBgI5vLYYiVC1sgDkGowj2OlyumK1sPKHyS70jaQ8XRRJrJeaGhqRqOWb9ct8qsIq5FlcoSjrPy4DkK54rT/neHnddBEBZjBnjYhcdkkvv1WYV8h7+EmqUGSQ+41LHS1I9IXUD3sSoYZQAiLNYxPz1q4oeeVPL32npu6++sJnPJX3zO2CvxLei62QreRQor/kr+oMcHHbKBWJjABV+ggUqQKcPPw74IonXn+LZuNW8st7DCHTBfTHq0QV++gobn3CgS14M4AGMuOZNSU1Foq7tkPfJDi0cgi48qk2IOU5d9Hwlz7dqRy1xvmgPvTFfUY2CBI4qBRBHvcT1u6cMyO/Oo43dkQH56apEXgXywDyvuKq0gDlSDw2opMZTkrqF4+ghQIMihYq+kQoc3t/wX9HkyTEYNNL3tRVkGPVt116tmRjW7sxpya+cdP++wpAmPOW7tQiz9gTwxzMGVcdaiVHAUrkiiUmbXMQW51kFaVYRITUTTy6EZaJDzs/62qQVhf4l1C9SOWoW/XGAXH5vpHP5QpsOajo9EJMOcJF8KU9eWKKLUY6vYQqIwxeNaAB7IicyfZyOq9nkpaU/gJ8bRfXOCHi+GEWiS+c7sIotgiW+3qzN6etwSgr3CTvJjc5WjlucAk2hw1iWvsUfpHDvoDTSmhNfyUukKXQu1bNAYjyPBGdAHjnR7D4D8g0AuVdkgXmU0JdBXBI6qhe2MLyVdKebY3VN4LbZMlr/ecBJIBBBN6ep/HmpXnK9Uq2w2ko3QC19NICN9F7QpklPeIuwOYjp97USYAeIB/03oD7nw2CMlIsK78sSdx4ng+sTyULMihjpUj/fE0+cGWu9vMlr8NeH6kn+XaytfacXAmUROjgVnBuNHagBbo1K4AvLi+W0gg7ribI6DRI5ADovN8k56fdNHZXBg9p3N3gc64SrW/QNl1q1x4gZjIBBjw7pCA7qVvxLqE+iBI70HVLrZfDql0Kn4qF7kw4oGjABcfLjeVI+4J2z3mmHa/EtCdm37TIgv40lDV7IgPwOQL6ap1RYQIMQoDQ2Ylagq+wpBAOpe7oIPGKDoyq3vslVqRRcmQpUQqRAGIlSEmkEOQdvgC02LrUx1B05VC1rtDcAnPd4ciSj09C2+p28QxKjXta2vJJPJOXaJcSqXBAposXzi4Qtjx5XMQmsCzt3yTisyHpDA1YYHHJVVPfIfWGFd7l1ElIVQ+0twjZoWT+bnhKYq+NKBcprKVx5HEEddQQaL+oRQoPnM7mVeuTFsPLRlp3Fb/NV9N3EnkHVw2SeMJoIAE5dD2ajWIkilfH8TiRmQH4n7tTzWwbkp9dXraxmZDTYuF5V9ZRKjDcLja4oqa9bAOKuXwI3pCikdCZhtDPxNZfSBQoBxJOGBTBoW5EAvNXXkhuCxLtSrUA/tvKdyfP+Hv204uUbPwE0As0rv7f6DUHHL99zSfxhMd8BV4egIjKNPjD0dku9VBwUWGMjAMgZkXQLzAXoBB/LyV3TF/r167IfSBJn9IIL56xio4//6T0bffW0Tf7+TXVQ8KzxfK2mf71zJFl45xKt9qwwREnVllajvF3vm+tdhwYEFkYJrjZRh+kSuMA8xqDhdzo37Zw/EfTXe+f61zMgX5839f2SAXkdQF5t0rGJqSKqMgN6DuoCbfTmeLig13T3RR0DBssNUyfx6fqKagveTUtfkWrPYQpAGTZudcMqICY+unE0OUbadxAXT/GrN3znJVmz+EZeoQxQjXT1FCVhD1mvZsMWd+2RwXeXe+y4m6OMhAB6AbUKhbEq+ehDvu8TAvFrv/6FTb71pk1rbVHcPXPyErmXEyXiI60kk67DTyRw3AijL3hZ16jja/Gvcf5kQN4471Y+mQF5XUC+knkAe4QmVfHlHyXISUrH31eALvBwNYxAifjOy7p0v7s9HgfLhLXhIHBB+ao1NMInSXbwazkBzgJml44T9UeXdPjo+LtQgyj+hkvPgDZStO7BldL12pKscb0EsPMco9/WCAgDbl6LFPg9gLd4Tmfh4XG1RyW2VsL3feqLz+3Wqy/bjf/+b7agBaMXpR939cw6z6z1nq1ybbmMVB5I16hOorSN2iT6gQPqC3SwlJv+V/vA8IZqfinX1deqv65/lAH5+ryp75cMyE9vXLVyO2tXVmDOgnQTrjO5CGNVXFILnToSO14uqGAAeOp/bAI8teWSgMANogxNlABLd+EjUxxj+ESHzsgEiRrwRq0B0EraZXWYfN+gqzcA67yW/cpjfJQvPMGUkIpdMhaYu3eJJHKfzcrvksbzcsvL610NJdHOwtAzF89JL37axn73mk2++QY6M3UcDb6zIULa+xBFFVUo8+pwmTYf/N3lD67z6FGTFKnXT6TxkELdXknxWtdW3rH2WQbka/Ol/qsZkDcF5JHhtRU5SulUfF3Xf1zG0JUXpTsvCsS7dYw7Ga5lgDo6dhJviU/7hS3wB9/y4FMeDKPoqwFB3PhySNaSnHMYFvu1oK6Db2JoHASkBdzcI502OmpD4naQF9ALsAF2Ij7SMbh6xTs+1C7il3i54noDvKIDmr162Sbee8uu/PP/abNffCbjprxUKI5l4GrgxR34SBwxUr988g55V9nNysVyWsdI5vrve9fVe5UM9TL8bUWmMiBPi6sZkJ9uRiK/czFE3SOY4Dp0HQDabFW3xRATOkjq+g2Q2iIJ9Qm65+77DlhBM0yLmozkfuuStN1bpCRpWqsuAeAFSd0uWSN1Sx3SJUk6gD6qE7lKCriDMVOgLUnegVsdXR6dOAxMOeHVsyCvlPF3/2Cj8lAZO/0rK1+/7h0Jn6JTvVdSNF6iKvFAVgJwDJhlIXc0aALipGqdjdAfrrfmbwbkafE1A/IWAvndCgkNecENo3lfagspndgu6cPW3Shp7HcmChWGh23niz9SqN1nrPfocQG2QFr5QJUCGJOIrVJANQJAd0iqaHLTvNYOvfqv/2xjr562+Qvn3D/e1UAdQmNaZCCBT8h1cFoqlBl1vq77FqhX02bVuAzIq2XQ3FEG5JsI5BQdTQgJ3RfBFdC5L7pUCUGHHtwX3VuguXJuydMukQuku+/bb6Ujx63/QQX0OnLUSgcPJfptgbr01xgfC9rS9XhoLktTZ7+yqY8/tBu//rlN/fEtW5ye9tmcsfNp7u3tfZo6hEAd1CNBtI7ug9Fw6Xpvid3cg+okSuDtpXTV16BHwkD3wJCNaI3aI1oh6ORf/42WepP7KKq2LG2YAxmQbzKQh0YVGp/7oAvEAfM4o89VLgJ4wDzKs+6yt+Eibu2NUUeel1qlV8G7+k49bIPacP/DRTAv/TiqlW5Xn2DsxB1T0NMCdclGcureNJrUMvrW7+2WVima/P2rig/zuRthN4umjdC93j1ec/SHeoSaJPp3M4GHVYwmteGVwnWUJVWj5XpvbNd1OhNt5QUrDe+yPc9+0w5/9wU7/v0XrUd1Ke1Ab+3K1WZ9JwPyFUCOzzDyTftSaIgByPk0X8dFEVdFjKNMMsJQCqAzySjq2H25LoGhmkL7iF3rSzRGgQaqFNwFC1pvtLBD28heK+7RrMl9e61Hvt29Bw7ruhbFwNPEwwVI/bIJqaJIjHMKsXvzpV/bLZX9/KVztjA2uqWAPNTQLknX6LwlYcu9BBDHeFl1IwyhZPFGoYb4M6ov4dlNYPyqT3oQNtGc12StwYNH7IgWGj/w7Lds3+NPuDtpJ6nhVpHekafbEsgXBDyTWnz5q5dfsrNqzKwQRBjbvMLYthvIa2sFEgqaSyRvN44KwAFsB3I1whjTBck9bvwWG+dmQjp+4kRD9NGCOqAcUpUWviju2W0lgPxQshjGyG4rMplHERqLktZRu7QlOeBpqvn5s5r4867WDH3Zxn//uoKHKxCYpNZln/O2EFPfR1aXL9I3sU9QlwDgIdqgAlcB7Lruy6o5qIcawfOdIolTxwmvQKXF2D2suPq7HnlcCy//me059YgN7t8vh6TN6eTrK5XOuntbAjmVafL6Nfvi9G/t7G9/1TFATtVYlp507A1Yf9iz0RiRzF06F1gyc5SVYdwf3Z/dZPmcRgqdohYXviUkQNGYw2tleETL1smzRUCOUbT/+ANSwTyiKfUj/kyr/zBqqGh90LG33rAr//LPNqu46eXLFxNVj7pO0dqJiW46UgZ3KWH03pOKTBlnXgLkSOewP9yjfXJMnsLz/BLfxNVWp7W+J0FFBtdFxa8paP5Az8iIHfvLH9uhb79gu7CvqC7kVZ87tSxazbFm3r8tgRyGzYyN2aV337bzZ07bV//95zY3dlPhWmdUidDhRm10M6xN+1kaBpHxwuIWcbZoD+qXRK+O6yKqFxJ/N0uXDvS4LjoBdg+Ziz84vuU9monJika777P+Q4dlHD2m5esecO8Xd0Nkcg9qGnVYrkv33DT/p+yzNz+VJH7Gbvzy3zV784YiODJ7U3p7fatTEyxEAncpW4BN3O+4+k6QvkMEQpd0V2SinaC94sOrTtT1uAQu/bzKNp9E4BwRcO997HHb+/VnbOShhx3EC3JJzVJjHNi2QF5WGNZJhSo9r9l8n/77v9i4DF4z1y5qWIc/c+cP7Wo9FFhsYIdUFBhJmU1KQnoH7NMEw8aqWNKpJOBOxMKF2TnXqzMrs/+JJ233j/9B65GesG7p1LuSqfkFSWbrTalvhI6Zi+ftmgB87I1XbOrdt/wVuEV2ekLaxl2QSTvTksLHidAo9QngThl3ispkfT6K1gWp3FAH9g1ZSaOy3j177eRf/chO/uWPPE6OTwZb/wXZLxvgwLYFcmJtz09N2dhXX9qV9962q398x66//67NanX38uS4S5RCwY4FdSSwIKNjHA0qF9ebi+ZuAXrQoYfYLoQIiI0+ymnx2Q3UkVRu4btOs8dPl45U4MQMzYJczYoyhHarcXfvlv5c65CW7ttrJS2OUdTQm0lGHqGwQV060uD8rRtaO/SPdvmn/4/NfPyB4qePhzx1iCTuvBFF0TWQPdI2AO4SuPYc++Qd6b5j2W3WiOtuFQL6KGvylVNd7NPC4QP377dBlfPwoSM2pG3k2Anpx4/4HAM8mbLUHAe2LZBHts0x5L561S5LSrv0+zds/PNPbULSW3l6Qj6uWmoLu4yAEFDv1ESjQUKDTkDd3RelcsHzJXq7eEhdqWUc0MnIZmdH9Lr6RVLmghakyGsN0ry8XUoHD1uPb0esd/9BN5QW8SuWr7GvciRJPSwYcfcMOF/kpzz5yUeKo/KKXfvpP8lL5aLCBfR7/iMgbna5ihXL7oMANmoUZl4SeRAXQoyalG9EcMq5EyXxFfwUvR6aQuqUEa0nu1sGzZFTj9quB07azhMngy58sxl/D31/2wM5kjmz/GbkxTKpeNQ3Pv/Mbnzysd348H2bvHBeEvp1lxw95nXHFTxNJwAaoEVnwxkbDT1I6vJ2kd4/xHthNaOgU8cDRrdEbNicnIlm93YRUDH0dh9zLU3n8VfweNktKV0SejcSutwYUb/06JygWRuZgUlHjLvhDbkajmqxiKl3fqcFoce9Q/DMb06u/auhpMKoiqBV+H2X0X+LF0jeEdDxTok+4KGk9XhSzptI/m2fpqOJQI4AQShnRoXdAvLdjz/pYD78yGM2IHvIgGwjW0GtdVsmO/jCtgfyWDaLikddkd58/NIlGz33ld34SLP+JMmNfvqxzWloXp7ScLzWCNqBjWk5L4C6ktqTGz9pUMH/PCxLh3GUcAA0OK53xBBd4OWgLtULQMW6onlJ4bgwFnZhHN0lTxd5NsiNsUhcFzb95kG2lL+10tzNGzajzvj6f/6bjb/5mlWuX9E6o3Me12Wt+9t1jeJBfQJYswHieKDEc2ZlAozihCcAXCxRB70M5ckvm7tz4SGSINLwVkJ4AMRD/ZJeHPuNZv0OHD0qbyV1xFKv9Nx/0O0h3VKddbqxOWav0/cZkMcSUsMBSBbkC42b2pymbCOZn3/jNbv65qt2/b3fq6YW5FJXNSYClDSvTk6RRECAYzbC6fbJW4PoiwPaWJHGAT3JS1W2anPOQLgkLatPIFj0+sIQmgFY2LvPeo8dt0FJd0Nf+4YVfYLR2t4O4x/8ycbe/oMm/vynzWiERfacC6Bim1PkP7xF4kYKn9SIYVz1TbjtG7kHHCMX4r791N6dOa62SmiFnd0a6REnaFD1CrdYNkaFCAlMAPOY8lq1Ka8Y8qV9B2znN56zYW0FPJnUaWepOQ5kQL6Cf5KC1LgIyzo3OmpjX34mAH/Xrv/+NbspIK9I5qiodUWJiSYXGp8AIoLEivd15gkNDGk8RmAsSoJCl46XS1j4Iqhmoh4WIImg0q4cOXgBFIl/tPNXLoweGleSeDeTjA4fk2FUs0d37ZbUvsd90lmLkw65Mj7mC0XcPPNbK5/7wsqSzt2oxotamGrfDs+QrDFcLhswlR+mzBP32/3AJYmH7rWFRDX56lDHgw0GMSYAdOgUox3G5zeoHrGGLcseUo8iL3yPAESIY/mP5xXSmM64/8QD1qMRVglbiAyiBc03cJVLi8uoSXZ05OMZkMdiSUCjMjnpXg4z8mZhFuCsFh2Y/OhPNiHpnChyNL4pudBxzFAYHSbSSazcnd4oyW6tNMU5Q2GkqR41vhLSlM6D10tsjB0QCkB0ItUyC7Oi0RIdLql0WEP1B6R3PfWkDTx4yv3SFzWimjn7patURn/1nx6REVfHqr+HP5r6nyh182IHP/0FtKkzUX0yJUkciXxRG3gVOssIeamTlMoLXc2jOu7qOTp8CQEAN7H1WQUL91ckcn4nxbyv/jj8wVuJRb09rAPPPiXJ/Klv2vAzzyqMw8Gw1qrenaX6OLDtgRxgWJDedF4S27y8V2bOfmEz0pHPy/BZvnXdFmQsK0u6q0zIi0WgjUdB1Gfi4+suYdoD6vym/56iNBuqdec11NohPA0QNRHhAGIUxhDvJcwidWldN3hn5XJWGInUV9VSultlsCh1BLoIuNqleOc5LVLRLf/kgoyjpf0H/EPlmzdt9rNPbU6LRYRVinItHVUAUgCexz8RbdQHrxsA+RKGTF2TNB5AMXSmZMDBLSXWpPka6IyJ+oHk7cZLOvuajt4BfbluxCdCra+ehSPKi3pHI/E97921S53xMRt6+jkbfOxJ61NnTOTDNOcQrKbjXjzfvkDulUngiwSuIErTavCTkrqnZeCc++oLzfy75vGpPVQrs/80eYRGB4R5bAs9D7ATqAhXsWkNlfH5ZRhdbQK1R53aZMHEpGGphtOAAHOkLRqvS+lquDReGi2NmgYZ/mxek3AQFxGAOnYNEu6JealZunJFRdWbN5vVTF1J55RItSTSpdnfqz/sy9QBATijNXcfVH2IHb2qhd8TOsN0aUjrbeTBy1Z76gTH0EuwNkZpqOKYo8CkMzeg6xzZObYLnq8vBVVmQXMF+p/8hg0/97ztfOH7ViSkAzHts7RhDmxbIATKz6cAAC9LSURBVGdot6CGPn3uS5vQZKCp99/TZJEPtWqMhu0zDN0FBLoHCFg2vCVsddWEjlXXfbgOoNNgfeq0nkFipzFH+KARkzrCOySQsuKvk0dmlKKPcmzEwnLXndOI8U9nMWkaNg25I5J3QsG/o0vDew/CJfBhCE8Zoy9vVYJjC3o/NhMk8Kg+8XOkb12nFlD+gbtVoGwVTY2+N9ZpShXwxl2VMkbnTXnHMucavzuAw+cmE4HWiMXTc+KU7fjW87brh39t3VoekPj1Wdo4B7YtkC/Id3xOvuMT771jN8/82uYURGlOE4Fyqri4GUYQ3igrozsZ3ghRJ8q1eD2COe+Lw8rmm8FGqWvuPuhELxrBHOkcUI+xXVw1o3tqO6oIXM19uf6nV4576i3F9b8Xy4puIahHghEzduCuC8eQKUCnY69VTaz/1s39JZZRzBt71pP1RcI19yDG8ImqtaCCi3enQ/uS7E3E4MkfOu5Afv+P/s66s4Ul6mbutgVy9N4Tck8bff2Mjf7mP2xBOnA3wDQoZXij0B/2UXfu06slmbO8FkNu1C4YuXzYilTT4LfqLuUUHvDOR+8BrGnggHmvpLMA6kGXjrQWgRQIjUCRwuc39RXkKcKXr3mpMoyjriiFMwJD8YbMXc13ON9U4tf5OJRV1SdyKFHZAdj9ifsgxu/ahcFhQOTBOq9s6DJAvqhFRyoHj9nIt5+3oz/+OyspxHG2QlB97NyWQA6Ysl7j2B9+p2h4L9n4S79UaM35Dc0WvBt7qexI3+5uJgmNYTZSmhu/1NijESxK67UAebd3b+bvtRKmD70F6Ctcz3wIHsIC4MaItM59sfFXwW0zc7Hxb0M3NKNxiqOqWHbMwJzXD5QrBm46aDpvZVf5jTne+LfadWfIT5g6j2FbXoJehthDgtEydMxRAg/lFziRZvnxxtBGJOTIhlHGuHn0Adv7ne/Zib/9ey31lgF5vXViWwJ5RZ4qs1KrjCny4ZgWGJh4/bSMY9LVEUI1xRQlOWRT93aR2iVKcESzI44GFZpGUgt6KZLQklcB6hHYaZQ5gTbuZ0wwwijm7ozaI7lHYNtK8jl5CpJ1AGmk7ynFhJmSPjdOoQfcuWcrlZvrwUU3LqaMpPq0ud1D5UT5IZXHhG6/FQneUifoFBmx3pqatNliyfpOPmwHtWbnQz/5hwzIG2D8tgXyqatX7LLib4y9/pLN/O6MFVSpilp2Ku1ExaVJ0O4ZlruknkjpeDYg1bnErhvQrQaASJuKdN/napOknXvDlCgKoKFH90lFUcITQOD14qoYAQUSa6em0OGE7gYJG6ABwGPwqjiqonzoxChPEqqmzksQV6ULGqMLIdJ27GhjefnMXu+UqjlJsle9kNIRfIN/rCXKzNYpORygWhk6+YgdyoC8YS5vWyCfuHLZzr70G7slIJ8VkJdUufq06EG1+jfM0w09GAAdsAiA4W6M0qUDIEFKD2BBgwJeAl211MWmVnttQ59u8ia+W/vN2vPqMSCBhIfXA5J6vyaNuOuiQCV6PNS+pUmimn48Agx+SkiKsxVigFd8Kn3w/+YTkee1n9v8XITuB5rojgKNHAUAD/MDCtKjeFkwYko8j2pz0cpj563oYo8wQx0fn6/YmDzDyuU5BUkbsJ0C8sMZkDdcDNsXyCWRnz3zkl195bc29spvrE8Vbbiv3w08SJfVxtEwb+/4IM0tDHWDDpYp23g+xOnbUQIMk4y4O0i9d3xpB/0YKA5Bu3Bd62Porj2b+yML5COw10rD7cpCgN9QznSqs4m3kfNfYLM8cxf06agUOVslykcIDuCBk+pDvRNF+iamDjxnpEQ5oEKhfnNPK1MsU7x8yqrXrpJir05yRjM7g689LqLz8hsfzIC8ycLY3kD+yhm7+PJv7JqMnX3y+B3s6xPIBF0hFV//BZ9ry2FN8n358fj+OMnIjaM+pFel14xAgIVrK/yRI7hA4/KbOuugFlwAbNzaABaAZNnFLeE1v7NFcGkHdDLqgUb4Dshgr5jFu0iSeFnXowoFriLZdg6fq0DufKIuwDvRCQ/DSEi8lnqLGDrowRkZVV1FubM1YkrkEXRBVpC+l5y3ADfCSgR0eM+mCRvWnQG5ONZc2vZAfl6xqi/95heWVyXr7etxlzoit/Vr+Anw0ISp9lTOViZ/f/IRQLtWSqQR4MI4K7DRTO/QAEQMANO5xrbIMzVvNViyBq2Ajf67hNgraRFjGzMFwz6sFMO98ek0eR7hmHfTQaIDnxZPMTwjKdJhwncACd52dgIIA4XRHRR7RORnXEjE+a3bWAy7lTmCt/H98BAQJ64My9OhooLXXNf/Zd4yIl3SMnDM5MxUK83Vtm0P5OdO/9ouCsi1HJB8V7slvYQhKIsar5740g7QpDkANLRRpEXAhX1UtbBHqkHPGBtGc1WgVU8nKOP5ActrAZLZstKhIzUmkjq8RloPw/+odkmPNqQ/eAlgO/8Y6QhsIl/dxx++O9AAehGW0qMhrTcxcqEuRt/vOHUeXnKtXUv7waFYyhjqUQPSQc5L6HBjMXV1uYMMth+eqXaS6ozkCZQBefM1IwPy0wHIKzK6dHWHxXipbLjUYaQblkuix5lAz8gQdRMkNcYFNBjgfUoS5FRZko5LOQHQXbJpvi6k/IbYxOHm6hQ6Kh9a66egEgDUczakmDZE00OyRB0QU/UoXrn7PlLAnQDLhKRDjwEubwkHbgFPGCHUvp2nas/v/p123gFleJkA2rW8QqXS7rQsdIhlcXRD/cTFFgCPo8cqj2OJRFozIE+rzDIgT4B8saIJQTVAjtRABQwSuiRFNR7ABXUL0pC7buk4Vsm0CmSt9/CN2AR88olb/sOEFNzjkDBpOAy1MS4RgQ+QdOlS51UJaK23b8a1kBvoI0X66CPhL7ym8wTY6TzjSIg9eOXAEB5d8ZfXke8IIIxYwjA/jGpQo0QJnHudP3pnO8pwBaErTqCkSgFdXOQLt8ET8g1PgrqEY6mj8AXXNXgUgHLFS1t2EnkMn6lvdJDUP1QogHkcKVIPY14o32oOIS3mOQPytAoqA/LTQSIHyPMlJPJqlXOvEl0BtBn290kqRwVAwwFwaEwOLjx1W2VNq4hWvidQV/W2YCgLQCEJsUSBA5calhtPaWkk0RZT9Sheadc+Nt74vYQ2Pw0hYOE3yYEr4TVgFXlMZEafNQqv18gIjzO8J5BVBBkMl6hQABi8J/hCEF7XeIF/vd1/Qp6D4ik51g7qyGMQJoL3CbpwgJtODjtOhEcAs9UptgUAHF5GX3u3NUiV4nHWBeQk2gJlFhK0xePkUgbkkRGp7TMgXwHkt8/sTJqWV0UkIiR09u4VoD1AQ2jPKDHFkmlL49LHAC8PnyqQAsRcYldDmxd4RQkJ3XBMNLDVzSr+tpn7KoVQEWANWon3ASZAM3yvSuO35wKeAzI+GtH9LpEr77y7Wh6dl/9IL1SSZx+JKN8IEGFCVZgtG6VvOqIqUCpzLUi1XPIY66pbgDYjP9eDq36F0U3ScYqGahmG8rsdwFcTmknkqznS6HkG5KdrJfLbgRzGRmkkNiDAhFgVBTWooArASBempEeJsVa/22jhbOQ5GhxAgJcA+yCRJ2oXgVr0Twfg+S3IpLXNdCNfae89DryilVQFLGKEBOl8PWp4BNBJHl0uN+4H9ts1alqPvtXXPYcilj30UZeQuhn9RYHBBQVdxxc8dGLcWe2WVr8ztXPnZTRgBvVdVEuxj4Z46hxqFMoJyqop5qp65fajDMhv50ljVzIg3wCQr2ZtaEoB4KnAgHYEdIa8YVHjEBjfG+vqF7TgPH4nqieiiiV4vSwF9UtiIOW32xteC4hK+ZUrgWLtl0c+rP3r6qsbAZvVz6R3TlnFsgC4dyoGN26vrgvXOXufBSuIVDVrSwKO6SYAamYbE2PGZ7hKEodeOOab/rBvLmVA3hz/qk9nQH767hJ5lV3Vo1CZwxASSc+ldDU+XOp6JT0xDdqHyDRI/Q5wthM8oc+lJSQmnbhRlKGx9JkuWSUgUntP7ATIT5bS4cByPRFP4WqoB0ECp85wjtTNiC7OXVCVWa4v6VCx8i2xdJ02/VRbB+hYUE/5TFfVFZ/hqlEOwL4yxbesvFrfWQbk9fFr/bszIG8QyNdiaQDPRVe70DCZVYd0jm901KG3e3hPc4uDXuhDn4572KQkLbwN4nCZhgrgc087O5y1+HgvXYsg6aCNiiR27Mpk9D4ZKBa9rpBv+N9qxUm1PkRVXDReBj97JHDqB3WDFDqfNIDbX1fzJwPyGmY0dZgBeYpATkm4VKs6j2Mixiqk8qDnVKD+5Bw1TJDG8EpA7xsacFMleYeHYxN0kNAfpK4I4Ehf0YWRa7W6dN22Sq/MG0jxjeFs+/2FD+vzAPCOCRBE9caojLrARDP2HqZA+2U1in6Pqfp0vJLOPnyhy+0IQfKmHkjqJiwB9UCSN3s3mLvNJXy3dcJHBuTplKxqo4CnVfUmLRpTfw/xyCcImqVYK3FmZ3A/XNvYWR8BkqfE0eXGrAYa3caYcRdBPRqzAHXXhVbbcX2fq/PuWmkMGvF0wRMBfSgLJtRK6TR2ACtUkGo1iYBQ56fvodsDX9bKEL/QpOARIO5BwjCEc6yyZqQWVClV4yUSeJW7a7218WvQ4TSxF12Muhy0BdjRA4UYM7Fjr47KYlfVyoqZAXnjJbvyyQzITzemI1/JRprKygpf2zCRuJHQ1ZZ9zzmNOjZs/IJRwSC11b6ndc07UO8NPGncUTcaJLKgcplVY0dXCrjXjhnoDACpLK3kQOy86ZhRp+E66MCtY8oaV0qvC+Id/GslB0NN4jtBqACoZ9RZs6YsZbzsW69jJPBYX+O+lbRVuZYBeZUXzR1lQN4iIL9zsTA1XBKZWlnwdgmzRuPM0WgEi80rgiaNKza0O7+//l95L0AUFw6m4c+rgROoC4nNAT4B/frffm8/QZ8WOrdqMDC3iyCJq4wB8Vim7eKEisrrCmWK+mTlouDJxDFXn6iWJZUq1rN20QiFWayVdLidAXkqQN5YYVSBmaF4l8cYGZbhCykOACChn6x1QwPcWwnm/s0EBPhOAAIWAii7GxozJTGMIsWFFPf+5B2uJT/dM7tqvn1OgcAabyXifxMrBnVaKMFQhvG4XdmnfOh8WYmHmb8YL8Ncg6Dyqda9dlG01ncyIF+LK41cy4B8E4GcAkNvGSEB6Zxp/+hTAW+kOAykeDdwjl7d/6kVRmCIzzZS+Os9E94d/kIdYD4jgxiuiz4sd2kdMNcGsGvjHv1fTlFKXb6wxQ/IGmXFKMpHU2JPLJ8Y+zvYP4Jahd9q2JF67ikdpymhC9VYNGBSLrGcmN3rdg+pVSI9rTNe1ptN1RnVqdKOXXbf08/aIS2+fOwHf26lwUErpLx+br2UbbX7MyA/nYaOPJ1iBwzZGOKywnk0jBG3u1QQQCQz/nyGYwLl1W4gHRrWewsdCLR56NfEOLrsawyga0NIjx0TeVh7qA6chE5ivW91zvVl6PN8AYUejoERk/Ln7oPownXOgsZuBxHxlEl8shV5gXteHvoKZYL0jSosGK2De2lQjYXZvtxNWazP9c0ok8ChLvGuf99+O/j9H9r+Z79l93/9KStppa68rmdp4xzIgPx0LZCvDJq1cTamcydVGyBUm/OGSsNDsisK1cPKOritBQMaeyT02EBbCRzkDlr4BsARpT+PuZGAOGBS0WRt9OqASNS1d470Ry7qS+SVRHn4aAkAd75Xy8BDMriUDoeqfPKTFvyJHSq0MR8AbyNfiUf76D4Yg4N5h5JUDMqhc5IoUx3pUie46+EnbM8TX7cD33jORh540Ab23W95qRc7i97O4dx6lGxbIJ+6fs3Ovv6qnReQn//lf9jC/KzlFMY2VKDOqPQ0VtqhcMI9WpDEkf5qV6YHWAB77gFx2kk5gI4kHvZBxRKj4TGk5zjBkeU9FbGdNPK9ehL0RvrYO+/F4zC5K8zWpQOlY0XtFTneWhk8dKI+2hGBqE3oLNF944nCKMnVXOpEqTNs3sE7eMcSiLmqhxtp3gt4R1qWfDGJ3l0jdvCFv7D7v/Et2/PgQ9a3a5cVuktej9P88nZ417YEchrE9Ogtu/T2H+ysVgf64mc/tfL0pHWpwXblCto6Y1gXqz1N0LcEsFG75OT1gjSIftZju6gT4jxI6KHRtg1cRJ9YKrBGWg9SO8Y1ZgjGGODLbVj3evwQB5nVTYwcB9oDdMXj1fe14lzUQ7te7etfCqThK8ZLps6754kDN7yPfG4FHbe/E64QmjeAN0v+sYBxWDqNTjTQzZ474VzsXvy0I/4ggS/KYB7B/MC3v2OHv/+i3ffYkzZ89LiVtNxbXrFmaINZqp8D2xLIYdP89JSNnf3KLr35un35y3+38fNnbebG9VDR1CBChWonkNRTeAHwhCsO3sEPPawxGgEnSOkCHL02DlPJTWjq9XyrsXtxd/Ohv6RGjG0evMslR+B+ZXIAEnGB2+FvO4GcL9KvOECLiiBxh3g5SOLEzaHzXE33ylykc8Y34AcdH5K1j3bEt6jGCqvvAOrE/o68it/m6dXX4m/t3YcyDR0KevCcVn4q9g1Yz/AO6xsZsQPfet4OfPcFG7h/v/XqWpaa48C2BXKXELRe4ChgLsn8/Gsv26U3XrPK1JgkBy37JkmsS9JuSJ3ROFYWdQBEhDCoA6xxf3PDm0YUuL9xDCjh8RKVADxFc2950kf4Dg0aSRJVS1wAg3M8XaA8gBZ2gSDlVuGyfTwHwFGTwK8+8a63GOJ/e/gEGNU+UpbBG+CmA5xTh4gfPwCOSsXZBkn0PB2aVpSp+Jov9ljPrt028vCjtu/xJ+3gU89Y7977rWfnTgF854yAO5SdGyJr2wJ55M7s+JhNXr5kV957166883ubvHDWpq5ctrnRMavMTtui1vJUq9H/zlC3RLrZOyjXoDJSOIDEDEIHcoESU8QJDeAzC2lUOg7ql/CmmsdrX930cYCZ8BfJMup1g+5c+nNdC9fDb0ienIu8BDfTByreH1Pkk+/V0YVp88H+gLcQ/AqpNR1fLX/cXTAZrdDBRddBpG4AnfPg4hko4tlOBXJAPHLZ66DUU719g9Z33z7b+dgTNvLo47b7kUetpPPisIAcIYNCz1JTHNj2QB65N37poo1++YVde/+Pdu3D923ss49t+solm5+4pYoWdOfx3k7dA1QRrPB3DhOLAHKk88RQqobFOWAeuoLW58aBB+k7+aL7NicA5XpfSZu4zrFVO5l0Gzffdt4A5no10jcqKVwIce3kOCzowOglJO8ok+O0d7Va7Bk3Wgbd9xxqFAG3g7f2qFgAR+fLbYBHrmpTpLz2WiuP4/fDdzmDVs5YvHxA0vag9N5DQ0M2eN/91nfqUes9esx6Dhyw7v2HrLTvgBX1e173eQ/eSlLv8XdnQJ4U8PzUlM1NTti0vFkmJKGPff6pXf/ofbv23ls2PzZuC3MzunO9hrKyQm9WnYkNie/T8NWWliVwJHHULCWNLAB4Jh5xXpU8W0s1nItcQvqOEjhui65CEIgD8HHmaPi9Cgz1SG2RD3wzPscxPHEekH9JgkiM0fvE3QidZ9wZUqQ3nqe15710Kkjb5NntCYtac1W88HwnvzuIwzX9j/lIi4Z03qOuLpDnOBzqWBAYehnlqI71SEVZlCG+2NtrhcEdlheoFwcGref4g9b74CnrO3JMapZ9ltfvqDOz1BgHMiBP+OZDQoBkZtpmb960sS8+s2tStVw4c9qmFSlxbkK6c1VaHOrYk9jdPn+vCgR+06b+CRRGEqAMIHNdsBqNr8QuUAPwkUPZAxjtzAGABnixgAEzR2eZQboUVAqAPN4aS9BVQ1XC/pgt39fSzO+UJ8DCpv++j2uruvTtIB5dN2ufXvHa1E4AvFB3wgQefL+npf9mc3WT8r4ytZ6mld/b2FnkPdTBV1KXLsa4QUxeY5Wsfm1xdrLfJAYwi5NyxPhZOnLceh582IYefdL6Tpy0nn37rCCAzzGjM77YH8z+bIQDGZAnXFool21hdsZmLpy3mXNf2eRnn9qU1CsTn3xoMxPjNjs9LZcvBZAidrMqpa/Urmepy0h6Wycx9A0AFw2i+KKHxS/ChBcaJf9Cquo8W5HHCLq4/QHqrksXqKNeiDMVo8cL3I73R0CJNAXvnHBGeYT4J2HEUYo2AwGIe/Xod4qMHLay4wo8DPwL+SH6oLx4JDAweSfov0NOVucn5mvz9lAU60CggvKJdLr0rc7QbQsJf+NM5AjgtzULPe9JP+R6eiwvl8PuA4et98RDNvzU09Z37IT1SAUD0GepPg5seyDHQ6WCFH7xgs2elwuivFhmL563+WtXrXLjmlVu3bDy3LzNy8PFQ7omjTAYpII0iUTpVTzWcoCivnJo2921jRF1QiGRTMOUc+nT1YgAdgymSO9khLwAjjFPMZutIBpeomII/E3ADkOgriPRggXObw5qEoAcyA2dVADsxNc+ySP5CfkgJ1VQqnlNw4e1vGE0QMcUVSXQ7lI3LpmSSgF1RhuURfRb7zzVSeCvszkp+1APcHkNainsCwgDgDn8ZsN4XFtTVpZSDXvFA1JOUnj3/oM29PRzNvS1p1xCz/f2dMxcjhqKO/pw2wP5/Ngtmzl/zm69etpGz5y28tWrtiAJPKehoSMDxUdtVI1mB4gAMlFaJLrclDbULTRMEmDB1nkJ+lbSxVmgOhjUaIw0TJ8Ioyh+SF7Rw4NjEvenC4P+2uU/TqX+hO9oL74C4q5qAdQBweW7wwGUsUErM2Ax6EIuKiOn2v+seiilU14dwQuaWU4PsGb6vOvAdc4qPKzExO+kzqofUBUZFCm83TWUDh6jeZ+Mk0yWQkVHnYDHqL9I8S3h7C5/aVPiTa6/30onTtnO575ru//iR9Y9PKzJQZrhmaUNc2DbAvmiVCll6b2npT4Z/cMbNvX+ezb98Ye2OD1jS/otJ19in+GpykuqNtQghQMm6Dk9zrOAHHe6KKVHyXHDpbDJN7p9gDyqFdIomfyCPpllyaJ7Ho02SOqJVFtXi60/g+H18SOh23AJFlCPWFPz2ngJqdzBJel0Yrm1susRSd6xLft+M2pD6lb9QC1E/BlUcQgBMXUWkEeqVu7hPvyMHj6oTKIaLkjf1JbQNhrr2PWU2k5Ohs7SsQdtWJOE9vzl31j3jh1WKPWsJCY7uyMHti2QV6Ymbers5zb6xit24z9+JjXKVVuanV0B3nfkXPJjlNA9EqAa8LQaLJIXDTgC5O3vqTboOmWY21+V8hWXfgU4QVWBNB6G0f0Au29xCB39rNufA8AZAKlNAEktV2t/a9Vx/B4gTSc+KdUJozMmPnFeTbXUxqdqr1Xv3OyjZap0gOqN0dmggljtkOcJI504KkuLziWFcXCJ/Jj05JLI9/zwryWRZ0BeL3+3LZCXx0Zt9O3f2+jrL9voS7+0RbkfYn13sTSR5jbCzDDsD/pQdKFuyHIwF6AjkWl4jWTGb1Eg62xpLKFTPIiNGqmsqhcF2JHW1aj1A40d6Yw8hSdaD6iRrtryifBYey3t45g/INpHX4lR1t0IE3UKx67DT/vjLXjfWvYSt5uoLEOM9eBK6AZNlTkVYi3eN0JafA+ToZZwPTx83EYE5Af/+ieKT54Beb083ZZADvjOKa7KrVfP2Kh04+OvvyR1ynxwfaqXg8n9NHIgzGfp+XA66EdXr1BfCzi1x7FiN/j5lB6LFFWp8cae9EBM8ihK3eKTixK1iy8oLX0pYC5lVAD06uMp0bX5r4EFcGdBnTJAHQzfKmMBOHpwOnAChnFP6NQ2n+ZAARSRQqHEM7+kfAiz9YuAW7pvRlzYFihLytgNmbrmHkG6h/q94nl/SWN/4Cd1a1YSeQUgP3jM7vv283b8b/7eenbszFQrdbJ1WwL5ghrdrCb+jCmM7dhrL6UC5JHvVFCv8NrT4KOU7sZRSR/s8ZmuldpoYuu7wdF0Ng8Z+Xo1eeYSSVz6UZHFUNslNgG7LzicGMECxaHxV5/fWkdBAk/03yq7qD5zXXj0dVcZhzIPIE4Oby+tdpXhnb8TR4/QCDgD1Oi8g947qM7w7GH0Fe0MlHHaCb66EVgqqHFNtCuXem1ALogHn/++nfzbf8iAvAGGb0sgr6DHlHvhdQH5uIB86o2XrEsGTo+F3AAT13okgEDwrkC9gvGL4XgwiFVnMKJLB9S3QoJKwIAU1UO086hecakOQNeUd8AA/Tq/oZqJ9/vDW+APuax1gwxSN+UYDZmh3GLR3Tl/vK0FiHgbH+/8nUiBgzcSuMqHERbxeFYvEh3rbyjt2z7U0AUkcOp6WUMXtyUslG1ybtaWevps58lH7PALP7CHfpIBeSPM3bZAPqnZmmelWkEin3/jtHVLUi5JMmhF8saQtAikdWG3S+ZEtPPFcbXHCyaCZCtoaOU7aaAkgAJAw9OF2X19iu3eLxdGhukYyiKQ+M0d/oc8uWup4qpPaA6Bj6Ioo4RuJNUosXd4VpbJQ9oGxIdkvGSBaFeHKSPhnzppz9Py7akeULcZnWIIZiHvKZ/RWrElgXmxfzAD8ia5vW2BfAIgf+WMXX3ltzZ25tdWku5zQLq6WLkBpLSBJ74PMIjS3myibkFS95VeVNmRWtgAEzb9d1o6b9JIqH0RyDkjj9AJmAMaSH3M+APYkdLha5TQGb5zfwRHnm9nit/m++TBpUWVB50qI6gYzIpjfqMcYlpfFRbvaO8e0gDLyH/4HNUjbsAU03vEfwzVlAVqsJgHniHVZC9caOBv7bvgmfv8a89oFMFlRjpxXHbDSFSGTgF5dwbkDXB65SPbHsjPndaanb/9hfVpislwf58bfJAgUQu0Aswj+5elIDUfJJWgf00MpHi7qOKzYTzFiEYDgZ5qc4tNJr6RZrj6Wvyt/fvQAYVJRsR0GdIkEmaNYhyFt0iHDOvbtWDDag4ETgUdfgAceB/4HwBHKpTElnF7PegsXpM3QBxvGnTfwSgdjJZ4n2DDoAyIMYNBMybmO6SdqNeMW0ROEjsnqBGJqz6ukU0tT+nQF3WtqKn6mWqluZLIgPx0APK8JIWe3tKy4YfKH41BUUp3cGqO3yueBkxoSlR63g2g46rIMN4ldMCc8wTUkeK5n+eiNKXDjkyxMZNDgBDpHABHSiQcgHu/JJIhEnvwSm+tcbR2jBUk8MBbeB0jMEZbhs8DgNv6L3KV/E8H8TqAZfRWp0N0jxPXdwfwRvpmZMR1pPLgB17NAnWp2RS4Ev7CU7cDqb5GPnpdTuwK/KYq7CnUX3U+GZA3WwSBn+rJ0yjPVIhp10swdkbVSpTIF+V+mC91L0uLzGp0L4xEiuG4lSmCDAAIsNAQAHVmBbqni86RapAeaTABV2qbUSupa+zdEcxjFaPxIoW5sU2gTqwOJEWmfAM47XBfhHXwEP5iuARookcR4M0ICP7SKChxaA7dbeB1Y5xI+6lAX+xkvHMUP5G2EUAY+VBf4XNUr4T6lTyXPjkuhADU0RWTjpG6iyCCsZ9JU6RQByIvMyBPqygyifx0kMgjkNNuMcshRS7redUwGJYSX4L41S1qDstlGoEk7h14EsDxYb8AnYayduNYfk1HHKyWEmjCgDnAghSJlA5P3W9Zx4B62p0m36LM0NcC2oSORVeLD7guOXD7nrt0HmmG1s5LgUbqBiNG6iULOPSguloGbnisOiziQ0fUmlzAV/zq4euYvL7iQtvU1yhwMIrUbVCyTET1KAPyZaY0eZAB+emVQF7LTxoDEk209hNrGcChwXhDUY10CUMPsaeCskUgqH1Xs8c0lmWJByCKbnC6Hr8XY7yEK4GeZr/b6ucBdULORh6HMADJBCPACB7rH/uYIq/jOXuAbXVCBnTdsX6Cdy55C8jRhRP7nGsh1bx89Us26dxzQ56SehXrG+Ac62VvMqIJxkviyqdf5nAmctZ5ybkDNQb7MHJEqMCdECEDAI9FEe9fn64MyNOqXhmQ3wHIYXKsyFTKsHyaYk9oRXD0uhju4jT1qnE0gEIVXtMpqtiYaFWA1rJkrsbjoQB0DWCicdGYoHz9BpQOTWm9ZTWPUQkQ3wNQjx4X7EmAeFQX1H4/qkRWXBMf6AABbiTwSbkSwqPAnfCu2vs76ZgyZnPQVi/mBuKkw1uWwqmD4lUrjJbwAo7TNcAv6jM8xo6DlI0KJYI3x6RQjqGc/MJd/2RAflcWbfCGDMhPry+RRx5SiVV/PQEiDP0BcjwC3JikxsQwF6NSBBkkyOSR+JpU9qGxmAMUDQu9rushdYzEGY1MYWgr0E9oX0uKTYWglF5Sy2N4B4gDUg7k8FUXyTvABs9Xy54R+OA5x+wBnGBnCJIjIK5LnjqRHwgLJPqsoN5LVE+qW91aoi8upE3dQxcOH+BHzK8/3OQfeEyCEt9EE51hdSGM4E1FPaO+BTfC6lR/f3jDfzIg3zCr7nJjBuSn7wbkVOdQvSNYwFMkJJfK1ZgAdDc0qcE5sOscEEoeu0sRNPZzLZR5UC41rBlJnkhHMb4LDc0lKGXhdn0p+SLFphvONudvpAUQDkDslIk0Oka8LeA3jnPkg+PVQM79wLePSHSM0sQlSL0wAF2QbkNuOyHPUFxNcAAghzLAmZmWEbCj73f0/PGy1J3e+VVfkcoR3w+0YBQOEjh1CvfYGdUxjgF2+Axf6RBFqlIjPM2APJVCg/uqPNVWlNZbO/w9d/JauRPpsbFxjw95vRKHigzguJ43AXEaYQD3qt9ukBPv9IX6fotNB9CiUSGFB116kJQAMpectA9uYEEnzHPQHxK5isfJpU3cOTglNRISI2AHmgPd3omtQTJV2ctI9LN3ANeBv06/ATorE7+svrbyjlae8fVIM+DswM1oL+m4gq99EAoY7VFmMQtQ7flKiUB/t96Fx5QDdwRsfSV6+ASvnvBV/yuewr5YRvWTkgF5/Txb+4kMyE/fTSJfm3G3X636SyON0/D65UmAFwZqgSARq9LTGG9/OLUrNLCoJwfY5zWbCMOer9QuPXGI0MddiURHY/TUSqqSTzS4W5aogQwncz1aY17ih9a7L/4e+BDPNmMPkFM/kLb7lxfERqUU1EmolgLIhrykKQyQ+9iReN51IcZTxwbjqij9EPTiQS3FMxH0/Zmm/mRA3hT7ah7OgDwVIA+AQFOrAvWSqwBWN1BAHum9lSk2UAdrAQXqCtQvNEwHdAE7ngZB9RA9N6BoPbpC/lpJ853fHeArULcejXd+Q+f9KgBXPaA+DCYdPhJ5UBtRj0JpVOtTujmgRGs7fBYVJ6TstACc0ZvXoeSTcZTENVK1BJqtFxmQB442/zcD8hSBPBaHNwIBKBWe6dI+NVoNNswUDQvWItWg6aUxo2PknMTf2GD8QhN/Vsr+QfUSp6GjPwfMgwEQsNemb0UdtdOgaxBUpawJYpp+FIoCJU2/qk0vQNoN/AsjCcoYCZsyZ/PFG5DEtawgrq1cA7jTlLprswoHa1Vw0TBeQZ2izh2VStV4ubL21L6netxsmWRAXuVlc0cZkDcF5BuryLFB01DRmwPsSGJI63jAcIwk1kojVm01wZvDp/6rAUfPg+D5Eq4jqXMPjd47HNGdpbtxoLYuBCiGf8AhHTXlSzlH3+8wASqsgwp3WwXgEY6hKNhQkLyDHhz1CeCNBA6t/HMzctvKOwPyu9Wqjf6eAXlTQL4xNkc9JA0aMA+xuoMbHdPUI5A7sKuxozPlPgS60Lw29p2N3AVoADk0asDaG7eOo2EUY1ety16U0Hl3BByOs3Q7B7ysYK4SZU25etmqLNmHjjuAN4ZMJkLFkVgo6fBss39rwTsYvzXyctVaUs7JaAyJ3D1QqGhJapUqJ75/5T4D8pX8aPwsA/I2AHlt8QDqgCcNOK5WzxAb8EZaJ040exo97YsmBkC0IjkwC555PzR53JFEd46khrsZ8V1Qv3APABEaeqSHN2QpcsClWvERHlF+XpbqqHFJRf+Nai0aL5F8W1G2oUQQAkKZ+sQxgFvl6L7guh5tI9BL94zQ0N4UvkvNzoJmpcP5DMhP13qtFL1ip8Patd/iEEgDUtsBGGlESG8cuw86gO5TrwXoSHRq/IB+q5oa74UmNlen0LhEH7pSXw2HYTjGUe0BdCQ4z4P+BrpaRdna/Oukq3DCsVBEUYbwAxXKgPTdcdp8AO7wG2UdJd7I92byEzgf+R/KhbJj83gymjZPvHsvN78edORxklhQ+bWubt01b6JpYX4+hLF96BE78r0/y1YIuivT1r4hA/LT7QXytYuh9uqSS29I5X3a2DMsD4APEAgUdDuA0MoEGOB2RuQ6jKLRtzhOMtJPIYkOBwSdcam1VCXf3KRdzDKfj+6kfiweANhBfaLY691yO1W5tWVVJBEV5xFQXkjbAPekglixCg8qFcqy40pGNKnLEfEarezYZfd9/Sk79N0X7Pif/dBKg0OW7+6GtVnaIAcyIF8B5FSe2Fw3F5L4OuCNLhUwR5fOWpgM2VcAu0NnkMY2WOYbug0uLAO0TlC9oFMNxrHg8eLAoetR1w5gQDeS6dZPK8EPXrijJnmkXDRScp23yoORE7MvY9nEqfOt4EGQn0N5u33DgTvEPonBwJjZy8jJAbwjy0L0a5S3pE6me3Cn7Tz+oB37i7+yfV9/xnadfNBBvEs8zdLGObAtgXxBFX3y+jWt2fmKnT/9Kzv/m/+0xfk5yxUjkG8uEC2DhsoxLhiAfpUZfwAGQM6GFMhQnnsieEJ57Io2Xg3WvzNwIvwFOJD24kIMLv2pMUY3Nn7TLf59hxodt3rksD7lzf6SdI4JM6NKBJ5jz/CZu3SulEsC6iuNl/AhnZKIZQpv40ipVvqOrqTRnRQQJ/FcpNsvdMCfJeqItuLAoJV27rDhI8dtz8OP2aHvvGA7jp2w3h07LQPx+gtqWwI5bJq6ecPOvfaqnRWQn/vVz6wyO2O5fOt15PUWEU0SYKdRAiAO4AC6DKQAOwszACRI7UhrodGnBSG3U8sXABP+ARiAOAY1BxPtOWcDS6A7JxqhaSsm8ulSrYhH2sZlEH/vEjzXeXAdZbm6mMP0+V5bptgt4HNQcwVPFHjt6i79xj/uj5165/Fc/JS6Z3GubMMnH7KRx79mB5562vY+8pgNHToilcpgBuINFtq2BfL5yUm79flndv61l+yzn/+rTV66aOXxMetSI+2SpNUpqRbIwQsaadSX48bo8V0AFQeWMLwH8FvVmKuQFaTDMLwPgF7WcLmsGADoZQGbCOjRuMazW0lCh99I4EjfvQl/42gIHvMbfOYfKX0YDwZoHwUlgO1GZ/G3rE4G3vsmEI8dTufxWFwR7ahRSKXhERvYf8R14vu+9pTtOHzEBu7fbyVJ6HmFLs5SYxzYtkCO21NlYsIuvf0H+/jnP7Prf3rXxj7/1HLSQy8P7WjJHZHCUDkMliGI8yptAWxCrI6+xH0RPW1to67e3ZoMASQM95n2jaQ+pdjfU5ryDZgDRMR4qaVnJRUr87Pyt/aeuVMgAC1q0YPjQTQonrI6FIDeaj7GkmY0wzHSNmEVYuzv0DnW8qv2uL28WlkPI+WioeZQYfnCBXiqUAQ7Tpyyfd/+gR145hu2//EnrFDqkUozA/BmS27bArlLCbLsT169bKOSzM+9dsbOv/qyTV++bHPjtwTmAh4arkvnrW6+zRWjA6ReEQ1wLJ2G5Ngt5TkqATak96qUnr7s6M1V4CMMd8kUNQAA7pJ54vmCOyPXwj0hz9Bepas5Pmz8aagNZUoHxBmJDpHwsdFwibqKzfnXolFOlObhWlXvXbVF+Lqi4hkATgcZaQ0Ud8rfhJ/wcrESJHDWmlAbyin8wODBozZ4+KjtPHrcdj7woI2cfNj69+61/p0jSRvLDJvNluS2BfLIONbqXJiZsYtvvSnj5xm79dEHNnH+nFXmZuTjOmeLkiqXJBEtCYy61JilG4iPdsw+GkdpDoAibm8ez1p7pEg3xgnIg2E0UQe0IRuAJADkE40Ac/ESfbpL7g76aviOAVViqketYy9wGL4T/sI3VCWuB1cnCL9cnSIpnA4xgm1LYFT5jyoSolRiSKazw3CJNM4x/KLzI7W/0wvfXfevaBN1+llcgp3iV04raOXzJese6LOeHUO289TjtuvUY7b71CM2dOCg9e3eI3tU56gv183bFvrh/wcAAP//MyxXqwAAQABJREFU7L2HexRJsvabCFmEBAjhXQvh3eDGMjs7uzu7e86597nP993/9N77fXvOec7ZndmxDAODGbwRRngvZEAO7vuL6miVmpbUVt0NlVCq7uqqysjIzDcjIyIjF7xRCu9xevPmdQiTr8OrwRfh1dMn4WnftfCs72p4cvVqeNF/IwzfvRPG9dvEyEhY2NwUFjQurEluUYkL0pQt0IcF9u1NWKgvjTqaFzaElgULQ5vob9XR3NBgv3HfG/tXmWLRul7rj7gcxl+/DmOTk2HMzq/D6OvJMCrej+q7NUPR2UA5KMBbKV7Ct37M+wL5KDfjD7xpXSh+6FgknrSIR80NC9N8CaFBv+ckJe/cZr8RvkzqGJmYDC85JieMF5Ovo+v87rzwTpqLM7PnUslf1XJUh29EN6mhuSW0LOsO7SvXhvZ1a8OKzVtD95YtYdGa9aF1xYrQvKg9NLa0qh81U8mVJOy9e/eC9x3I4zX+RoAy/PhRGLp/Pzy/dSsM3ADUrwjM74aRhw/C2PBAmHw1Ej2yoCHdyWqzQRo4p3t/g0hsFL1NAu82gZaBus58b1KHArC4B9CgNBwOHHH+FPM5emP0JMA0oYFzQkBloC5+vxKAjQjcx9PXZ86jPEDu5aPs8GHRwkYb2FoNxBncGEqiBA/LmXib8UDlHk/zAD4wmL1KD2rwh8GGoYY088BmP1fhD+CtYRkaVaAF4ltDU2NoX7UmLF69NnSs3RAW62hfty50bdgYlq7fGBoXLw4LW9uqQOv7k2UC5Fl1/Uag8loN9fXERBh+eD88vno5PL18OTy+cjE8PXsyDN25ZU8skOTW0Nioz1MdP+tVVfzqABSBgRNiICawNildyL1IYN6mMrSkQQ3J3UBdIMIbyg1kToedlQGSMSA2LF4jlQLoEwI0pNRoOJn2RBm+vIlmJypvu8rd3tRk0niTeOGDWBkymfEVwm6VF+lbbUvHK3222YieoMhv85sagxek6XUZXZvvv4C3jsnx8Eb19WZSAsLijtDS1RU2fP5lWHPow9C1cVNoX7EqNC9ZKoBvsj5iswq1rSRVjgMJkM/C27HhofDy6dMwJEAflFT+7OqF8Pzm9fDy0ePw6tkTHc8kob8Kr8fGTOWyQABRDykC9EhKbxaItSCli/ZGHSap8hnAB+DSBXI4KUf54u8EtMcF5qZu0QDKGSkViXVCv/E7UixHJKnOToFIVopyiGYa6YFLlyhfiyRun5FEZY4Gr9nfWtiv5A6/oJ2DGUh0luQNkAPgOigf4F7r6Y0Q26RwEYrw0tyxJLQsXRbalq0IbQLtxWvXhJV7PgjLe7eG1qVLpUJZFBZKhZKoT+avZhMgz4PXk2OjYfzly/Dizm2pXG5Kf35ZoH4lvJDa5dXjJ2FscEBTTHVfUESd03oxvTmTpn3JXJ3/D6BGJG0z63AMMSDXFBkQB+j43trYYNKqFEgV7Y9whuECWiIJfVLqFtQNkbQ6ZiqXCNwjQJ+Za7zL9dp89oGpCfBW2VCfoA9vkT7cVBaW79ty8Mw55P8LtLotAPAGzEdVFqRxrr/WdyRV6K3JRDsmLYgGUBq1gXh7R+jY0BM6e7aEZVu3hyVSnSxZK534mrWhTVJ4kqrDgQTI8+A7Bp3XmkqOvRwRaA+GEUnirx4/DK8kqWMc5Ri8d1uS+iMZRYfN+CO7YkD9wgFU1VpCuvXUoAEoUqkEU7ugJzZJXbRH0msE7qhkIhm9vOAHd5waANClWCRWpPMJHW4AnNCdfJ4ahiLuuvQNQDObAMT94JobfZllOHjG83VeFHuGL5MMOtCcNuAyGPlMw6Vym1koE+O/8bPYHCv3HA4Ab8YlhetMO27tWiEd+NqwJNUTlmwSiG/YFBavWh3aurpDk/TfGDGb2toiI2blyErePAsHEiCfhTm5fqIDTqqDTgrUXw8NhSfXr4VHktCfy9NlsP9WePVEEvrQQJh49TJMjo9K7TJOrzWgMl1hDYL6VDkdTiNPF3THSOctAnS8XdzTJQJNAWgFgCgaKAD2SJ3i6gkDb/ExAnd+dVqhHvVJBNbQZF46on2hwBwA9xR/t18r9Ux7QD0CnW7A9dnEq/QgBIg7gMO7KYpKzb0cz4uTot3YqRNeWQ2N6LZbQtOi1tDauTgsltTd2bM1LN+6Iyzr2SxQXx1aOjoE3C3WBspBRfKO0jiQAHkR/KPhYxQVoocxAfa4XBMnBOyvnj8PA7dvydPlmhlJB+X1MnznZniNexadRB4SCyTt1mYSgVkQQzkBHjeONgvU2wTquC/irufG0UqVB4oYBJ0uPhlwpmE8DomAowOkY3dlBhplpJxsKBFtDCy4Dg6Nj5vhEgncgNuQ0e/jmQgrncboSrX/AuKSvtU+30zSpkNo6uwIrd0rwpIt28MKAfeq7dvMI6Wla3loRPKW9wnug6hZ6sUmVG0uz0f+CZCXkcsTMnzivohh9Hm/dOkXzoZnly+E0cHnYVzS+8ToWJgcfaXjZQagDNgdecpIS+GvmgJMnnXABLQMJEVjJOnGdM0CdvTqAD0SMcCJTl3CcCYZGGe+Ffchet3USwFRUhzIp7/Z75h+tZhv5GoDCGeBNuMKPvGoe3CZHJMaxb1QAHUkcyR0kqtwom+189fWTohOqy95liBZL2wTSC/qCO2rV4UOSeBd23eFrt4tYfmmVGiWZ8pCqU6SVLscSIC8nHVDJ1YHjxZJTIZHly6Eh+fOhgGB+os7/WHk3l3p0e9L/fIw8gIQSjQs1CIjSblTaQqwpq5V6xOINEWPAZrKCFAD3oskleGXjgHRPUDcX90pjuuy/Vq9nH2gYFgwFQ/StsqPRw0GTI6RtPGS3yPD8BS/3i7ndH6+/ft8XFEblfugGqrUKE1SkSzTgh0W8GwMizemQjfgndocOtatDy2dnWqfsvOorvVnPohL8iiSAwmQF8m4fB4bfvJYvugPwojOI5LURx7cD0MP7oWhe3e0wOi+jodhXC6Or0dHhejqKwL06aCeTy7zdw+AJrzKJKRxd1dsVkfHuIhxFBUMC40ahfiRTthBgDfUR4JiJGsW6ADcYzJ4Y8Q010gxARVKZIgVMKb5UglVTjm4heug+X2LbvC4dXl3aOvuDotWrtYCnnVhqUC8TYt52qT7bl/WFVqXLQstSOGswExSXXAgAfIKVxPTcdQpY8PD0qE/C4MPHoQBLft/cuFceHbpolaN9odRXX/zRoss9A/lxFRyAJy6Ur1PDsELzHCH8Y4EhQ0CcNQuLQJuQJwFRubmB6CnfzOpTvfWC5RTPICaMALowFm4BJizgIfrgDwcqD3jpYgyyjinE7RKB94gGw1hJpZu26Fje1iu8zJJ38vWbwgtch1s6uj0J5JznXEgAfJ5qLDXmoK/nhgXoI+F8bRxdOTJI6lZHoYRHS9u94cnVy6EQRlKRx7cldpFPU8IaRJ6xjhaO6AOgMVFc5dEUbeYcVSAjs4cNUuzDlQwHc0CkXRZagnMI65GRklvCoC2L9qJAByVilwghe4MYBGIwwVXvviT1T6Ls0jfGnAsWRuS+kvxTzp7ekNX+mhR3BMMmou0qKelc0m0gEd6clZiJqk+OZAAeZXqbVKrQSckqY8qIBcLjR6ePhkeXzofBq5dlPvioBYgvZIUJclPg8AbeUSYd4FAxKCD+XEdJKjEhZHl8Es0TTc9usAc8u3Q7z4IVLM4SN+mAxdYowOPglgpgJU+o06J4p9AYQTe1aQ1V95mvNQPxkupthZoJrSwqTk0ykDJIp2OjT2he/cHYcWu3WHl9p1hgVZdLhBwN+J5UidtKVe5k2tTHEiAfIoX8/rJJCcBBzFdJl6NSvUyFIbu3g7PrvdpgdGV8PzGdRlFn0odI790qV7wdCHGhbkwmnG0PsAc1ZK7LxLXBeMofunNEtkjbxedpX5BocQghbRuEv881Qb+6XifvEIKV10QA8V036C7En+jj7UJ4hK/ZbdMRx9skPFyyTKLNNi2clXolMFy9a69YakW8bTqe4uW1rN8XrowzfYYUOujDVlFJH9m5UAC5LOyZ35/HH3xQobRRyahD0hKH75/T6oWjKUPw+jTx+Hls8dhYlg+61LPIK2DMkSfU4+cX0ILyM0XwvAIEjmhYi1Ilz6bcVTnJl1Dx44qhqJQmghGC8hojlv9nREwp+O4CMTRedsCHs18UKdwpDE8TYs/ybk2kgkBqv8G6btxHWwUODdrgU5r5zK5D64OnWvWyXi5xjxPulJawCM1ysK2RQbetVGChIpycyAB8nJztIT3mZ8yOk6ByYQ8WYbkrjiId8vjxwrW1ReeyCd9UBI7kvtr6dtN2m3BfTGSZ0vIel4ehV58sCP9ebRqtFW0t0pSd4BvkrSOpI4nSLmSa7KR9RlY8AE3CVx8joJYRWDOEntAHD2/NEKxNO1L7Ho1PqoM4xOaoY2HZrkHEnmwY9NmWz6/VD7fyySFL5MHSvOKlVEEQs2ArH0wQibpneVAAuQ1WrVIXaOK6zI2ooVEWjmK++LQ/bth+J7cF3UefPhIEvudMHT7hv0uDNJqO3VaddxaTS4NgymSvTMqF3NjlDSO66K7NCK1o19H7UJyKXmqbLlVMBFcpf+mscujKyJ5jzOY6GAhz6iWMnJGL04QKx86oM/Bfyq/Kn6CPnnOoEZBB9W2YnVYvC5lroOd2sChXRJ4u1wJ2+VS2LpkSWiV6yD68QYiECbpveBAAuR1Us22IlRhAF6iflHQrseSzB+fOxMe/PytqV/Gh0cF4oIfVC3q+NOVE2lEq7myOnRKSjfgFngLRdGhtzcpDAD6dCRK/Zu60wsRAW/8eqaU6YsAMh+HJcFGMc+l/wYUdQ2pnCPyQImk8MzznsW8nqHUKYiVikIoRe6DUkG1NIcuhYxd9fEXYfnm3rBswwb5fXeF5vZo951k2byx6737kwB5nVQ56hZiYkzIg2VCHi9EYcQv/eXjB+HR+XPh7olfbBejV8+eKlCXgnVNSPUiIxghAKJFRg4StVlg8AopHZWGuTDqAjr1VoG67d6TnmlQCo+THoO7TKGiFZjRSkzUJxaBUJIsoM1vjHE8h+om+sy3WpG/oUlHpt4abfu0RoF0x1rttpPSystt20LnxpQk8k2mF2+Rfhw9Obv0NIhXtWwvyVRS8qHsHEiAvOwsnf8XPtLiols/fh9e3LohvfptebkMWATGcYXUJZb6pCRSC4wkMPNUu8G7ANoIZNGls4em7TMaA3JbMZqRXr1EUQyUyTRgE7hqJL2YB1UKqRZcHaeonfpk6wZU5gWyFdiSeFRMin1CjJOWzqXmhbJMQay65Tq4avce+YV3JVunTbEv+SQOJED+DjQDWzX6YiCMD0hC1wbSzxROl9guBO8akvfLoI6JkRfhte83Kkm3Qa5qtSy9Aeb8J0XGR2RxkawD7VEuGZrbcSf0gYDvfuhjDujnarWTVD1jGmg12LCyslk77CzSEvqO9ZsUMrZXGzeslxeKls/L84Tt04j9zcKdRIVS7XqrrfwTIK+t+iiJGmK2jEuPPqTVokOK8cIxeLs/DEhSH9XWdKMDT8MogD84rBgvw0I5Ng6oZeNoJJmn8dx4A5Cn1cYRSuuCQ7yBNqoJuzOfIFYlsbvoh019IrUP0jcuhNHWactD28oVYbH8vRdrI+MOLZtnA4d2gfoigTvug8nKy6JZ/s4/mAD5u1TFBmICMtQL2tACf/MR7Vo0KH/0QUBd7oxsgPGC4/o1CxuwUO6LUymCxKnvtfvJXBlVXtQlSOxvJ4f/XL+9fXd5r8yWt+pHIE64BnaWb5YUvnzv/tC1e19YtjHaNq1DS+gt9om2VUPyTtwHy1s77+LbEiB/F2tVZQLMWTXKXqOsGuXAnXEEUL99Kzy9BphfCQNaRToh0J/EvU0J0MCNcUrstcs198el71rVezvDLLQCsU9knmDwke1Zuu9OGStlvNSKS+KfLNqYCu1r14d2Sd64DzazbVoLBswk+qDzMTnPzoEEyGfnzzv1K+DOnqL4pD+VuuXeT9+HO//4z/BqSGAvwJ8U8KOvaGgS2vBJ908ll2yBUP889WvyKc0BgbUlWMRMQeorwFwe8fqqxU6aAXXIZXDV4U/Dmv2Hwrr9B0MDqy4lnRP7hEiSSUo4UCgHEiAvlGP1fL9AxmK7EKxLOnLiow/KKEoExiGFAmBXI66hSx8fHNIWdoPCofQmvA0eYCkB8ZmagPEqHfeEmDgLWxZp1x3tvNO+SEvn14XFa9ZLAk+FTum/+Y4Bs12xv4M2eMBWYbOLnGqimXJMricciDiQAPl73BLYzYiNpAFy4ro81V6jGEYJAfBSOvWXivGCnp0t7CbHFI2RndVZQSOwWTB9Dft7zEUVXQMkfLEFWexliu5bu8u3dC5XuFgZK7tXRrvPK+7Jii1btQpzpfl+J54n73ezKWfpEyAvJzfr7F3obEmE1MXfHMBmQdELbXwxqIMNMKKdjaRXl3H0lQJ3YUR1b4s6K26FyI2Wz78WX1qWdsnzRK6D8jZh38tO6b3ZgYczxksMm02trQLx5vRAmMxuKlQp791rEyB/76p89gIjgb8ceC5/9KdhRIedFbgLo+jgrVsW58VcGGU8xXBn0jkf3iuVQOR5gp8jIRGaZLxs0eYNHfL5XrJBnic92vNS4N3WpS3VFNRqEQt40jvPz8795NeEA8VxIAHy4vj27j6FmsAPjKMCdrxdhqR6eazoi/dOHAtPFRLg2eVLWomoxToCsgW2gbSh+jvGl7ThMtu4K+Ml0Qfh00LFPlm6bVdY+dFnoXvrttC9udek8FZJ4Kbzxn2QQe69GujesWZQB8VJgLwOKqmaJGIcRfXC6tGRR9pvVAbRQVaO9veH4acPbbs6Npge00KjSW2QgdcLEfqmb1NXzRKUkrfKYoOaPE9YMap9L3ELbJSXySIW7ihc7LJNm2wbtc7N20K7pG+Wz6Mfb9R9pSTsFxw+qOLNwoDg51Lene+z5B2nw/OfTxrypfV9vy8B8ve9BRRQ/ozHi7ane0UExquXw9Mrl8KTc78ZuI8+fy6vmFFBOW6MrBjF/Q6plqOO9MFGs0jOGHRxwxSQBsVNl593m2J9L9+1J6zcuy+s23cgtGv3edu4uESp20ETA/SYBs9xxciZnJwwMF0orxbcE5u0PJ+zuyqatC/qypWchgmtKxjXPrPjCtKGW+qkFjFFNGhD7SwaEpfJcnG/+PckQF487967J006FMhMjmMcHZfKZSAA3iOPH9qq0QHp0Afv9lvgrtEB/aaQu5OvFApAz+COVx9gHhkvWX3ZKMm6SQdqEiTwjrUbTAfeuW6Dvq8Mi9CBy33QYn+XuHgHAH2pfVoHxLcHmuE80TZ/zxXd8pVmOQB6k7xh2rRQqEM7Aa1atSqsWbsmLFZUxEWKfliuRP2OKPb9C9Xbvfv3wyOtCn6u+h3VKlSAvUkDSEtrS+gUDStWdIc1a9aETm1usVg8SlJ1OZAAeXX5X/e5R+EAxhQjXd4ut/vDc7kvRlEY78on/Z6MpY/klz6gLeqGpJqQ+2KsxJE0WQuSemQXMEpQXzQ2mw/4Im2b1i6wwvNkiTxROjelwlJ5oxALpZzGywlJvC/lMXRXQc7u3Lkbbt++IyB/HJ5p1gOQ8zvx2gHyziWdYY3oWr9hfVi/bl1YqQGmra3VJPQYawv+SB6jitVD/nfu3Am3pDp7+PCh0cDsYFJqpUbZQ5plEwC8V2og2yAaNmhxE3S0oHIS0CepOhxIgLw6fH+nco3CARDbRaCDG6NWiRLXZUCLjZ5pE+mnF8+FJ2dORguMpCqwJMA0I6m5vsw3O6aremwZvTa2xg2nQTOHxRu0aKdna1ixY3dYvnVLWLoxZe6DjeY6KMASmFkY4BJVKV7qoaEhA80ff/opXLlyLYxo0BsztcpkRk/u+ulGSeZNWkDUJC+YAwf2hz27d4V1AlLAtZSEFP7kyZNw9OixcP78BQ0sI1LvSK3C4CtJnQManA7UKy3iw/4PPgiHDx+ShL6iZBpKof99fzYB8ve9BVSi/Or07sJIsK5n0qU/On3CFh69kjpmTO6N4wIvW2QkoLAkEJ2/GOkYLiMDJuNIgwDJ4n53KQKhjqUyXC7Zsk2GzB75gK+zsLKlGi9zsRl1CkB58+bNcPnKlXDy15PhtqRh9NGkaMYSezI9ecHwyrO9vZvDtm3bwgf79hqYIxUXqq8mf/Tg/f23w9WrV8KZM2dD3/XrBtzTaPCJk8ZAB3bOPT2psHPHjrBbA8omGX4BeHTpSZpfDiRAPr/8fm9yo5PL1cO8PUaIkX69Lzy7dVOHPF6uXQ4vbvZp9egdxX4ZMp4gnTfomJ8kIETaVBxwXChbpevu2r0/LN+5O6zQ5g1LN0qNsm69NndQ8CrtvmOAWibpO14+ABS1xY8//hROnPg13FeYhGF5BwGEM4E4zzuQo8pYvnx5+OMf/2BA2oW+vkD1BuoU8jx1+nQ4duyX8EQbfb9QeAbyn0aDA7kREIE5gwn5odr581dfmWTOzKBZs4UkzS8HEiCfX36/l7lFi4wGwksMoxjwpHt9+UCql37p0+XO+ELRGEe1qxFSOkv/o8N8GMvGL1OfEOGRAUYCY0tnlwG4LeJJ9Zgv+BIZMRfLIwXPlJb2xdKVK76MdNOVShg2MSge/flYOH36jIydL006zilVx4A0GiQjqjoWt4eDhw6F3bt2hs2bN5vxM+fzMxRiYOBFuCs1GPkzmIwqDg8qlWkgnuvZtGTOT43aZu7jjz4MH0jNkkppECxRzZMru+Ta7BxIgHx2/iS/lpEDTOMtwqL06GNyYXwqlcJjbVN3/9SvYfDm9TAsQHnzelwbIkuPLqCIDj7EUMw+xr5n6OO+dLKP6e+61fcs1QTBQvQ2tcpgl9LuO9o+bYU2Ml6+dYf2wdwUWvD/LlCi9SyLOd+7d0/qjGvh15Mnw8WLl2Z/hRfZi6nvSMStLa1Sb/SEXTt3hIMHD4QlGoRQb+STGBAeSQK/dOmSVCq/hd9+Ozs7gMfytvfrO+9g4N2+fVvYuXNnOCi9fbfiy8w5EORDYHJP3hxIgDxvViU3lsoBOr1JkwL011IrjCqk7ijhAOTxMiRQY1u6J9r0YuBGXxiWG+PY0IB5ukSIns5dU/4GRWIUUrxNjt7/mtjfILbfLom6qUNxvqU+aV+93jYwXrFlS1i0YlVoXb4itCoGeHOnwE9RChcKAOcTgK5fvyEAPRPOX7gYbty4YXlb/gBmjuJ5mfwMkAPauCMCpB8ePmxugfm4A1IPDKz37t0PZ377LVy4cEGAftl07HNK9DFAR80DrevWrg1bt24Jn3zyifT1a21AnE9eOk/e13MC5O9rzddYuTGOEoXx0cWL4fGl8+GZPF1ePn5gIQKioF5jkfsiQC3ksEFBQIbqIwKMtE5XoLJAnh0LCQ3bKC8U+Xe3r5TPNRs5bNmhDYx3hFXbtyu07GK5GLZWjQvQf/ny5fDL8RPhmqTyO3I9BEALBXL06Us1GG3d2hs++fjjsFaAilQ+VyJ/XA77b98OJ0+eMqn82rU+A+C8gDw90PAeErr6zT2pcOTIkbBx4wZzlUyA3FgzL38SIJ8XNieZzMUBCwUgKZ0djV7Kh/qJVowO3r8bXkmPPKLvr2QwHZdb3oT2JGVzjEnpci0So1QhC7XvJQuOGmSYbNYCmSbpaFuXdFkc8CZtl9ZJMCvpvzvlA24SOBs5YFCsoP57tvIiSSMNG5D/cjz09V2XnvqeGTkbcKPJQxpH7fRaM4+F8u1mkVBvr4D8k4/DepUVo+dcyYH8lozP6Mah5fqNm/kBeezlcSBPyWvl008/EZDL1166+zkHhNh7ko+lcSAB8tL4lzxdAQ5MCKSHMYjKOMoWdaheRhWJceLlsAH56NCghdx9LeMl0QeRvlGL4CJoGzkI2FxdApAv6loWWhUDpU0rNFnIU+0EkCMNo8o4flxALnc/VBxI14WAH+/hflQpvb2bw2cCUQNyxXyZK8WB/BcNJleuXA03ZLNoZEAUT/NN2UD+8ccfyQ1xow0uhZQl3/yS+3JzIAHy3HxJrlaZA7bNnKbtTNwnJYGP63ijxUQTWi4+OiRAVxyQSHeOSkVeKFKhNAqkG3QswJ9a0nmjVCcLtYjHpvi6qVam+mUBcpXZgFwSfNmBnJlKPrMCaiCmWkEiT4C8Oh0nAfLq8D3JtQAOvBZov5HaxVaQarEMIG5AH3sH0uzCBvkV4r6I2kSSJbpyVmrWWioLkKtQqFZQxZQdyBOJvNaazJz0JEA+J4uSGxIOlJcDZQPysqhW+k29w8rSGyXoyFfI5TCVSplETvyVjg754VfJBlHe2qqPtyVAXh/1lFD5DnGgFoAcdkIHXivH5TmDH3tfX55eK7G6cNUKgbO2bOkNh7Q4CfdDAnzViiorRu47+zEB8ne2apOC1SoHagXI4Q/eMqdOnVagrPPT/cgxTuShJwfIAezNm3vCDvmy79+/3/za8W9PgHz+WmAC5PPH6ySnhAPGgVoC8sePn8hj5YrFWjmtxUmyMOSupRmA3YF8p1aW7tq1ywJ4JSs7c7OwklcTIK8kd5N3JxzIwYFaAnLbREKujydPnTJdebSRRRRrZZpEnQPIXa2CofkjxVrZv/+D0CM9eRJrJUelV/hSAuQVZnDy+oQD2RyoJSAn+uGgoh2eVLyXoz//HJ7KX5/vxJwxIHcBHSCPJUCccnAP4XP/8pc/h48+PGyrSvmepPnlQALk88vvJLeEAwaA1V4Q5NXAClNC6bLC87IWBZ07d87io+MeHnnxp+/MAnI0MKhh1qxZLW+VTdrk4kDYotWlgDgSepLmlwMJkM8vv5PcEg7UFJB7dbwYHDRp/Icffghnz55L79M5YQt+kLxdjYIEjlshoWvZw5MNJQ7IwJnvilLPLzmXlwMJkJeXn8nbEg7MyYFaUq04sWxygZrlpiTz23JJfPjwUXihWOXEJ3+l/UTRnZMa5Y2yRPuGEiSLfTtxNSTyIe6GiUrFuTn/5wTI55/nSY7vOQdqEcipEqRudgvCAAqQP2MjEH1nw4uRkZcZffiyZUsNxFetXhU6FOelvb39Pa/R6hc/AfLq10FCwXvGgVoFcqoBnTmHb0OHND5KfBsdzc2NOlq0C1GbbeeGrzhG0WQFZ/UbcALk1a+DhIL3jAO1DOTxqnA6McxOKNJko2LXANwJeMe5VBufEyCvjXpIqHiPOOAAWc0wtoWyG7XLNL/yQl+Q3F9RDiRAXlH2Ji9POPA2B+oRyN8uRXKlljiQAHkt1UZCy3vBgQTI34tqntdCJkA+r+xOMks4EEUdrJUFQUl9vBscSID83ajHpBR1xIFEIq+jyqoTUhMgr5OKSsh8dziQAPm7U5e1UpIEyGulJhI63hsOJED+3lT1vBU0AfJ5Y3WSUcKBiAMJkCctodwcmFcgxxcVIw8rx1hg4IF4WGhAxLRKLzSI8p0wHpI331+/ngrrpnhAGTqgpxZWrNHpIzpfG918jo7XtvluvEE0pAMaseLOafcgR3z3a/Fn3vfPzltvDxn+iu/xBG/hpfOT9uFtpFDe1jqQwwto5HC++IIgyhznQZxHtfT5fes38wLk3hgIl0ksh5cvX1noTJhNam5utoA77e2L7OzbRNFgik3eCDl7pRL45+WrlwSVEBi+DmPjY+G1zp7ID1paW1mGHNHC4ML1Umjx98919g7kZ0AFnr3UMulJDYBcHxsbF93jYVzX2UU9ngAUItK1tLSGJkWnI9Ao9Dc3N+l7s50ddBzU56NccRqr+dn5Gm8T8JcDASNali7+8n0yGvCdXvjUaIN7BOC0k4ivEW9bWpptoHT+ztZmyL9WvVYmoW18woJlsSx/bGzU2hy8sfLSV63s9JNWG8wA92om6pUUr1foBWcmJsbVT96ov0T1an0+jTtOc8MCRXNUP6E83m84R3VMPTdnBi/vN/5srZwrDuQOogSsf/Dgge3U/ejRo/BKkdbepBm6sLEpLFbgnY0bN4S1iqS2atVKi6YGoBeTqFgqkTgRL1+OKFD+YBhQICDyZWsrABIJY0KV/SYLDKnMziVLLKLb6tWrjRauUdGVTgbaClAE3Qx40Pz0yVOjm+/8brRr8IGv3oCdLsCjoQHwBmwarZN1dHSEZUuXhq6uLgv6z2C5SLxepGh18LfandBpr/QZftG54e3IyEgYEj+HhoasTT5/puBQCgoVAfp4mNC98FkBuTNJrA0LxNuFDZqp0fHV0RnsI94uC0uXLguLF4uvad56XO5cAyW01CKQ057oK88VLOve/fvGmwf3HwjUR03wWbiwwfolW7nRR9esWROWLVtW9R2BqKsIuF9av/EyPHz42MqDIERfn5jUMaG+ExPeqGDq1foNsyz1c+p4ydIloVsRHles6LYytrUtMqAnyiN8qLVUMSCnUXAMDwOkLwzAb9y4EW7cvKm4x0/UOCIQjcBnoZjUFjZuWB82bdoYenp6jIFLBUARIM3MOM/HJSoqlIb3/PlAGBhIHy8GwrNnA5bvkycO5IAh6p1ol5OoYpDINagoohuNlIFls9GyQh11qUlcuTpmMZVKZ+aAVmgel0Q4LGAZUOjQiO7nij4H3c8E5I9tQAJooudiCMPHrIkLjbJBjRGQpixd6mxL1TApQ0dnZ1iqgYoIdosWtYfWNkkharyA+rsC7Jk2wYANb9NtArB+obZAGyD+Nnx+pM4OjwF46oA2YTxW280AufNYfAbEnb8M8M5bAI1BEyEA3nbqcyThNZlEB29dGOD9tQbkzqP+/tuh/3Z/uHPnbrinjZmJgjjOzFUqSKRRZqsIBQg569evCxvWr1co23UG8Eiu85GoX+hlZkr9IrQhsCEsPtHx4sVgePb0WXj8BCAfUt0yEFG3aQEopk41etP9x+uVfsN2dd3dyy1c7/K0EMS1ToXwRQhyaZ06hS/lwoVi+VcxIIdpjJQ0iKvXroULF86HG9dvmjoj0o+jFoiC1FMxMAIpZvnyrpDatCls3brVDiKt0SFmSuQDwCFl0SGfSbp6rI76GOlbZzrtS/02oVGYykSl4h096qnRaCwCoizUaaGFqdWKFSs0qKTCbm0qu23bNgM674wz0ZPvdRoi4UEfP46AhMb3VPTz/YlmDZRlQvyDhxzQDGDbmUwAlxlSdE+EPjRKb2yoBha1LzagWYmk0bXMpA0A3g6B0Gy8niG7mrvsbc9Csgqw6dTwE+B++PChSZu0F1QHzl+eISGdGf9m4q/qQIo2u4d2Am+R0OjMSG2A+cqVKyTNdYWlNoBO8ZbfSORVa0AOb+grx4//Gi5cvGjCFwAInSTKGnWRqM+2qU92dHSGrdu2hF07d9rGEvTd+Ujw77notf6erltC7969q8FHMwnUKAzKU3ULvkRlyPSfHITG+w2CUGMjKpcmUyV1qWwMYAzYSOmrFIvdBCPVKaBe7ZltxYAcCYcpGoGB2J0bQGfEjBpEBJr+GQYaE3WZqQvT1U0bN4Xe3s1hy5Zek46z+c79VB4SLO/loGLJE5UE06shjcbDgHi6MfIO8gQQLYGNNFB1Xv/utHBu19S5S2C3fcf2sHPHDmusVGQpCamQGYrTjLQNgA8PD4neaLoPAI0I5D05nzJ08sNMQMNPzs/MC3RNUgjvodEB1sSRXtyhQ2caJFIkAxcS5hIBOvUwXxKWk1nqmY5Lu6Pun0glRVt49jwa3Ac0uxkeGQ6DGjBfiP8MpAzq1h7SGTuf86Ejm8d8B9QRRuBth3jbrjO8ZDa0onuFSXe0H4QTOv7ly1fCsWPHQt/165J+79s1BoR8E4DG/dQhfeWzTz8peKceeAYvoq3erkjguqit3m4ZEKL6dJ44nyhnlO9CE2zY6o2Z6wf79obNmzdb26oEqEEnAhsSNvXKgIzE/VRAPkRfV5/hOr9DH3Q6zfDTyzEbb3PVKffDY1NJCg+YxS6VVO6gzjn6rNmuQL1cgt5sdOb6rWJADlOvX78Rfj15Mvzyy/EMuMCUOIOnESU8pRLQYTH9X7VqVfjqqz/Z7tzT7tMX7uP9fX3XdfSZPm9A02Y3pHo+OSswBuT23uzvXBRQYkykATF9ZED5+OOP7WzPFPmHqep1dVzovik10/OB56bXQzr0xue0xwecorID7CkbhwO/PgPqlIt86HQ0UqaN8Hvjhg2aCW3RtLLbQKiofKv0EGoqBkVA6YpAEpsIU22k78jwNWFtz4AmV53PRfdsz6T5mgERMZ182gTa8BcJbo3sP9s1s2NbNPTpV7RH5tGjR6eAXLYN6iRTV3PQQ17cXwqQw7OhoeFw6tQp23zZ1E4a7BbOQYuDHvaYNqnnvvzyy3Dw4EETBCoxq2OAhk7Uswx8d+7cMTBHdRvZNiamBsJYW8+wcLa6y9w08wd47Ykyoyqjz6xQP+np6bFj8+YeE4D8vvk8lx3IKTAqg/7+2+HEiV/DNYEsW0c5oM4G4hTcGoiAhgaKp8VXf/pD+PDDwzal4RqSKu+7eeNmeMCoLFUEUvkrXR9NGwMBqUx+oJhX4myc9Xu8ETgtGtkd5D777BObRrIjChWZT4IfGNXoILdu9Ye76B0fPLSp4ZAkQ/NAkZcANNOBjT+QzMyhQolNdV1CJx+kCMpDh0SqQEJfKxvBuvXrZPRdZ1NJeF9JmootKvyNJMp+axd3NL02dZUkNTyUrJOLv6ipaFsk9NyZNgGbY3VuNxT6J/0O+Gr/Y/kAiPAXcKPdIJGv1s46G2QPGhYw0Zb7NKhDN8BfCI8pe6lAjkrl9u074Yxmzb/+elJOCHiUjdssVXPVmTlhRY1UFqgf9u//IOzdu8c2YGYWYoPlzE/n/QsA/lADMnxCcMO+hvoUUGcbunHVLXygbuHdNJpnIT9vAtI3et36c+jT2WSDel0iQKdeuzWjxcYHoDObr8SA5vlnn8sO5KgxaBzo2b7++p9mLIHhswJBNsPVSNDPUYlf/O7z8NFHh0MqlbJ33Jfny2+/nVWj+9UkWSQtfzfnt5J30uw83rpRF7gn+359B+TohExdaaxIrqgeZks0LHiBd859gTedFRXTfenwmP6RjG41CGt8ni8/5EMr982V/D3xd/szsd+g1TsDn0mADTz/YN8+k9Bb1GCbxQfntb+mWmfoZfBzVQozv4tSC/QLlFBNkejYTq/xOFbmDI/j14opTK7nY9dy8RbVYa9meHR02ggDPB5dBkSiOd9UKpBDGzPECxcuaMPls+HsufP5DSTenkQq74Du3t7NYfv2beHAgQM2+2Dw4nqxibLBG2ZYly5dCudF4/nzF8w5gBk7g7F5m/igTFbQ5bSRcfHZ8/T05O/S+71O/Qa+M3DhsLFr107N3D8MKwXqgDvXOWiHlUxlB3KkI6TP8+fPC8i/NV3wpDwBCq1UKpHRds/uXWHHjm2hp2ezJO7RcO7cOdPhYVHHkk6F+7v9XG6GURFIqx9//FHYu2ePTY1n26fQQYap/d2798Kly5eMZqSJly+xoEv6TqdK0ezvz/dMYyT5GZBhsNq6ZYs6aY+k8/WmQ0f/Cz+qnZj1ITCgz+3rk5rq1k0DJYDd+eu89XO1aHae+hnBAM+HhjQfoRlJODPYxMFoFqJLAXJogU/MEM+cPmOCFzp7AKcQ0OE94HUqlTK10YED+82jBftKsXynXMyk6OM3NPM+JyzBkIkk7msnjFfiTbF5zMLW2X8C0NNgPu1GXWdwAbzXyKOnpycl28FGU1Eyy8UuUghfp707jy8VAXKki3Ma3b/55lvTAedBx1u3UJlU2npN7dmpG/9yDJdIDujfMRoW2ujeyiTPC+TT1tYSDh86FPYIyDfJq8Y9EOKvoFFDNzpZQOa69HnXrvWZTpzpPsY1khkt8+ys8ffP52fKwoFkgXS+SR0V91D0uwxi1doxHfCBvwgL6EmvXL0WrunAwA0gUlfz3rlzVQz1S6fPkeAr5YDOzOEGd+7Ps22UCuQIS6hAT546GS5dvGxqUCTpQgCHspDcjnTo0EHrqwgBxdYDTgw4A1y5ejXTf5jFZngGr8g2zuP4Z6OoQn+o06jIUxlATrq/NC5ETdmc6SsYg5nB43fPuoN8VbJTL8/vU9mB3EdSgPy77743XXB+pOS+q7Ozw0ATJiCFYa1Ghwfjim0ouXOa+aoD+cEDBwXkuzXa9uQEcpckAJiLmg4C4hg0MSjRaejZ80XzzKUp7BfXBeK9wwC2T6ol/IbxcKlGAsQBHwzcly9fNjsJkpoDivE3V2erBrHZecbAZhq92ffl+b0cQI5h+PiJE+ZBg/RbLJCbq24qJTXoh+bFggG2kAEhXuSrGphRzV6T2zJ9CaFtUgv4GBjVg+wcv7+WPrsunRktsy6cBlKpTWH37t0mEGE/qESqCJAzDTIg//4Hk0xLIRzJjwUrTOdZNj0iKzVLbucLEOlw0Yq2VhldPzTVClMmGqon7kGlhNsbDY8Oge88+kdcIknQO180O10lnQFDJfSR0M1CkOXLZaFPpUwf2tu72XjAADsfCdBikRfTbQD8pgAItRULQfD4cZ3pfNBSK3mUC8jxKsOD5oaEjmKBfLlWQbL+A/UjBj9mrIUCuds7TknVc+rUaRmtH1mf8nhItQ7ijDFggTkSaNYAZi0SoK9cuSpsVn/ZKrvIli1bZSSdWhxWrrZUWSD/Lg3kaVDIm2juR3qJSTD2bPb3vF9YwI3kQUpXCp0Fd6N26bg+++yzsE/GP1Z9xgGMe5j6ISn+/PPPAvIbthiJSq0r8I5KPiXxOC90nTIu1LQRWwEudAcOfGAS+kq51c1HYkYTGb0umtGYRVPQlBkgndZC29p8EE8eTpfT6fl6W/fvBZwpP2CJUMHAWogfOW0TniKR1wqQR55dt8JPR382DxrqlvJl6rgA3szrrbnqVtfgMTMJ7AVoFg5JNfvF736XFoBmd5YolP7KAnkZJPJCC1TU/TN0JjoKBz6/y7uWhy+++Nx05EgbrutClYQv65UrV0yquSq9HlI43iqkeQfyGcpSFF9iD/mghJTRLcl87do1kbuZpAzcMyupM8dzAW+fs2fPhauSHFkIgrcSNAGQJqnFaH1fPr4rQM6AgqcRasgzv/1mKklcIusCxHM1NgZr+qGS1xFSOKvDD8nXPpVKmZoluqM8f+sHyB2gYkwqDwv0ljTT40YMQMIPpE4Wyhw58qlVBtNPB2im+4DM8eMnTGLESMPy4IxnRxnpNeBKF9rzd7Zw2fRz0Qe7y++xL2X44/zAbxhVy4H9+zWw7ZJP9AZbPESZy5knnYBO3td3XTaHi6auo4NnUo56y/z2HnxwkKh3iZygVti+UMey0pU+hT0MpwBrT/ShekpZfZ5+Q13hKLBt29ZwUJ49hCApZ1+pHyCvdEXGQMEZT7wFpkU7d+6wJchMXzHqICl4Ql9LA7x48ZK5chEClOetkvydfnMJZxoChydAEzowRqJDxKJPvhwk8neJxgaqUjtDesSwwULv4v1I5ehD9+3dZwauci4EoQxIacxuzmjdwOnTv8lTBZ3p0NSCHudvqWUjszpM7wqQ43F0WaE8zsq1GK80ZluUrZxAZ9UbbyfedipZ795n1Cfpn9gR1ssD78iRIzabLafgU1kgL1ZHXknmpt/tgOfnjFSu3wlj6TEzusR8nPz3ylsFoHLdOJ4oAA0LUX49cVLeEw8ikEGn5y8robFk6ErTS7xrFhwwG+AgqBfnOJATjIy45UixxF22OOZpgHeaiu4csbLYoCIjKL6xxJmIgoptlZ6213zP4wNdMVXJ+zEeP9AK2KvXrmrByiVTXeGtROCzzMrMdEcpJo+5nsnmv99fNP/8BWU81zuQw2PqmZWbrAJHGEK9Um4Qz9RlGsgzM9d0XWTXafb3oqssC8iXSE/O6s/ff/FF+OCDfYYxmZl70ZlED76XQE5DoXL9yOYhYM3IibsdgYDWSPIkVoZLwdzPYp++vuvh5MlTkiTOBgLy8z4HzOx3zvjdpQQHSp2xejuNPEfDwhe1VzOCaHEBy38jb55IL0RZgrk5At4MMI8ePZQf+01bBu7+ty6hW0MlX89zRuJiP/i93hnS/EP3h8581+6dZshhQQSzmFISnZvodnTsn48eSw+Sg/bKsnWyWQikHuF/ruQ8zPyWi49ZvMrcW+YP0Ag99apagX7WW+At873sabe0uGtwKFr1nFlrkYu/ufgYvw/+Z7VT6pTE2T/bBf2hTXm74gxPp6XY+6Zdz/OLt6fOToWUlq0NpwlWTBODp9S+4iRUFsirbexU3cVHX68kAHmhKosKQ6ptlosjDAWUiJFArBE8U3DiXykAZdMLl8TdzbCvL1pyz8pCdOQNCmVqjSHdgJzBeZ1jdNKACTcLPRgRmQVwJjQq/tv4p7aKXoyt2aM5tCG14sZFALH72hQATwAWUNFhiE9BvG0WJjlQeQPOi86sm3iH2r1JFgx4n332qaJWbhStxXuy8E7cOC9qqs3qYNRW+I77YFQKvXHy452ZMizQqjzaAwd5cETfo6dEVmZwjVYUR3HL7T3UOZ2d90R/MkASz7Pcn+EVNNYrkFOn2DxQT+KpwkJCrpEKrmevAz1rfV7fqQv6Ezyiv0SzWWLfuPtfNGDTZyY0g6VfsArd+4f3kaLo4aF0ciBHImeGfwQgl0QOprjThN9b7PndBHI6FeCYHn2903rUMtQmESC2WihXA0t5oiDtshILIAI8c3liEACL6R/xXn4+9ostrZ7GfBpUgcnp5DEaXXt7mwB8qcU46RVAMjNwevJt4DRCVCz49BMtDq8aBh1AHk8bwh94fi692IX4H/g4R4J2Oh8DDate92rB0B4tfig2QTMD49//8bUZjxmIlMVbg1be76c+cpQDur2jwvOok0fqKj6juooPlpTR+WaqK+NhtDDN2xfvyUiSeRNY/I31DuS0wYta+MMSfGInPZPAAe+tPc5Qb/lwy+uVvsIqy5YWBLR2G/CQglmZ3CYQpd4QfghxTGhj1KX0D85e156f1a2N+LoCbQXQ522N4FosEPrii9/VmWplviVydViYxoGeO9q/UvGhNRISqIjdcZYoljAVyWjYbPtYRnvyZSRyKlkrsvgel3h5JxWMSuXMmbPh8hUtadbKTTp1vuDqjSJ+5r00EnTg6JttezkNJBYbXKsp2ZyA+CYMKnF64u/I9Zn30qBRs7DkmU5CgyU+N541vliJDS0AKY+GmHkX4MdBg50t6XdCKdBBaKRIGh9p4RRS4lyBxbJfC72AOBEzj0pCQ1qD56RSeGwvEJ0+O+Nd0MbBTj60D2KGQ/MibQ5hMzRJcJlZll7g6i46OK6lxMBmlyEGdmYQFoEzDQKWn/9x/uUYTPyWYs9VB3L6m9SApEIXBNHmcNv94YcfLfIiMV/wVCmkjU/jW7qt8jwhsJlV09fpP/R9gJvNMHyQRiqnRaASHdOCsnFJ5ETIHFWwvsEhbXen1cKEQGYmSx/hOqAfb0PT8p/lCzxC0mfrOGbVnyr43u7du6YJCrM8ntdPlZXI59nYCZOjneSjIFeoRJaoEgnqj4dFd/dym9q4qoRKzRcg6DS4RbGA4uefj5leD5UFgJnvO7JrxEGcRTbollOSvLdv32axKpgV0CgB+XIlBh0kXFQutxRkqr//tsKn3jEvAaJNQo+VBwSnY6Q7x4z5x0DKp7As4f/0k0+sDAxM+fIG/tJRiMSHOuW3s+fMY6Uc5adMJGhB0maQ7lrWZeCzUuozYkrTNuj8gDmD5kxTXmhEaqPu8ahhOz4G9/v37+l7pMKyqbp47SAXZW5/y/qnnoGcARoB429/+w/FejmtATvyVMkYsvPlFFWbbqvUWZscAlLypFq/fp3ZlRCIOGar03hWDNQMzqh5GFzoK7hGsssU17FBWR9BOvfkH70/+HXOuub7GqxTvCj2NTh48IC5MZezf78zQA5zGeXpiIzIxDfASNnZqdFZ3wFKDIR0YgAcJtKx8wUaRmtUKujzfv31lFUulV5QilU0nZAGyHQLOlkswE4rVDaSIg2vEPryoQMe0YEAIqQMGitA3t+vOOla7o5rH2UySdR6xxxv9fKkOxLvZ4/TXbt2KW77Dov+5nye400mjSHZEvfj/PkLphJCYisHkNMusIksSs8akIowHq/WgVqNnZII0ettgzxnypd644BPgDrx5F8oHv6zZ5rlCNDxtCEsLTsUjese6/TS01qCX97p52JIHr9XHchFI+UjFSqREz+FgfB///u/y7X0jEJBRO6z+fZHyzTrD8H1CJ8BWK5ds1aq0sWmQqUvzVan8dfAUwQe+gjCTWYnr8fERFf4DakpCd6HHj3f/gmPeO8WeXURtx1hjbUX+T4fp2+mz5UF8nlQrXhDAjAwAq4iaL8c7zG+IYWzjyISL+A4U+eciTl+nUpg04qz0ovj63rx4iWbchXT6KCXgyhpRFRMpYhd0msLBNgLEF14Me91WvM5kz/gxrSRqIwE7CdSI8H7uUYjtVQA8DAbIi4L0g+bJnx4+LA1WGwRDJxzJTo1+y0ek90BvSmGWVNbxUFwrpdk/e68RixCnUbnwe8dmwPAY1NutQsAvJTE4IgKCykdfl7W6tNbN/vDI3V+AAE6zAhKJgmQG6sRJJjJ/Md//qdmX2en+FNgRVhfUvuiDglot2/vXpPGEdyQ0Ivt804G9cpB+0RCx9bEtnyPFSKCPsQxU3+FNhKzQPrBrp27bG8FIrkyWy1nqj8gd3BRhwBgmb7CsCVLOuQyuF6AuE3xy7eLUcus8/pIXEqFInlRmabPE5gjyaLPK/id0IxlXJW/TDrZ1avXhI8/+chilzCToDEyIM1HgmfQAVg+evQ43L5zR5LRKTOIou+Ft9MaaNQmZwQi3sczvgHx559/ZtIHsyEa8VypX4MI4Q1+/fWk2R68E2SAz/Of60X+u3hN+eA3HZpB/Xeff27Bi9iX1HlNHU4rpz9fwNl5SX4AN5IbQdNOnjxtqqwxxdEnD8vHy1EGQIff0E/b6e2tr1grBowyxP/971+bsdP4Q2UXwBf4zsEgzaD8+edHBJQfqW4jr5RS65UmAI+pVw68pxiomTEe++UXU7V4OO3s5uK0cR3hbINUPcRpOiwBB8GyVOEhO7+6BHKkPxKB+ZHC0W+ikkC6ZXq1atVqU6PMpOfMZsJc35nyU4H//Pa7cO7sOdtujootpKFAM4MO0imVuHXrFtvQmTPTfK4X8r65aC7kd5MmJYkT1xswJQ50Rs3iQJcHANF4ARYMSSxD3rt3T+jpSZnumeu5kncUwpaePn1aEs81GyitYwv8ik3QAp8ZRNCX9vT0WORKvGuYnVWK17QLdL/RhiKXzaZyR8COgRSBoJySeT0DOf2JSKH/+Pobm+EWU9/UMTyg//eo7wPiGNsrlRB6EOCYuV5VX0GVhs0J1Robg1D30ERiVTh9GkGGeP60P2aDqH7oCzP1h2Jpr08gpwLlKUGHxFPiQFrvxJS53CMdjMXYgd7zm3/+0+KMG+iqS9p4kifWUME0BKSn5cu7tLrrd+ETGQV5V7krtZjGQCPEmHP58pXw7XffqZPdNTVLhr48gJx8eQ+dq6cnFXZs3y4J5JAZPo1nOYAZnqCaIALf9z/8IJ3kM5v9ZDo2+c7GY/+N+9L3egdnes1uLWyazSxt8eL891rV20pKSOZ4PSC9nZDe/4mAa0DqhEy43TjdReZUdSBXGdygW6iOnD6FbQbh6JLWDGTquwBeeJ/CSYCdiXbu3Gn7ZRbwiqJupY3Tbvv7tXew7GbExmdWC5g7kLdoP08kcQCcHbY4g1eVSvUH5OIEDRiG7dyxw4LQYNzAbQ+QrIRqgo1pfzl+wqb8SBIZtzQHtzlqB1ppqNCGnhbXI4ClJ5UyEOe3aidoxICHhNHXd13b0102P24MPlzPl0beQ+cmbOcGGW+//P0X1oiZ/uYasA8LMjYAADUZSURBVNDJI70S6gDAGxvV4gwtw883v2y+kT+DOe6lbFO3ffs204mju2fKnYuG7HeU4zsdHTBHDUfsdMAKvrJJOEHVii1fnLaqA7mIgd+kQoG8LBK5Rm5UZwhGCHEfSmjYKx15Rvgwysr/hzLDewQfdP0YujHMj09E6wrIsUmzUmaDeEJx0B+gq1KpskD+neKRa4VhuVLEwDdmPMBQ+PmRz20kppPSccudqCxG36+/+Ua6vH/YTiUGajLAZTpiHmDOe6jExYs7zCBz5Min5lPKiF1rCdc5dIEs0jh+/LgZdvA9x61ThY6k3rmITvNkuaa8X331Rxl5dppxJ1dDBsQZKN2IjP+/gW0RY5tlq06GJwqqNqbZ+/bttbaB50I1ElNxOjy6f4x6uCkODg6XZUCpZyDPqSMvRKChKaquERqI+UNfwsB+UGFimXkh/SI40U8zfbUCDQAawAg/PAvaMPlzzIfwUFkgL9VrhZ4Z69BIOWxenEptTAey2mNTKUY+GFbuBKAhMX6r6R9TQGs4kgIyDSMPEIcmOhyNC6mB1Y+HDh00cGHBUq0laCX41l25JbLV1pkzv8lw1xeVXY02r6Tb4NWSpZ2mPtqtoGPs+dkiSTk7Ian+13/9d8DYiasXQG6rI7NvnO07+aXrhZV86CL3f7BXM4HNph+vtIQ2G2k+Db9+ndW1MuZq5sHgVY7OXc9APs1rRQ4EmT5Ff8+zmcF32hl9n1XbzHZTm1Kq95QZtxnQGcArgQ3k7clwQXRwjicfRDJli/9Y5s91A+QwCYawSw2LTj6Rtwc7uy8vsxtPnL8AC8vaj2rXn+NSrWQAocDGBt24GyEhIp0y3c8lncbzrvZnBjDULD8rPjThCHAHzFvFovZsg1dHe7RsX4MX6qS4jpD6xPjHu/+f//f/MxA3Y2AxElQ6v0a5eTGNhceffPKxXCEjd85q85L8kUDxZvmn7Cy4J1JWG3zikkqBhNYzkLsf+d/+9u+Brd2IAeSDsbFhOibOyhkH0g4JS0uXamFdT8q8RFYQakMrdxH0cHxA5Ua/my8peVaiy/xjbQN5urBUFJINFuCNkrbY0ACplsqpJCD299/W3oEnpWa4YNIUeRUqSWliF5rUgHB/Q6WCzziRFAt9T5nrfc7XATToeInuyK4tDGh4Y+S78o76ogNt6d1seks25UVP7onZFd5ALAb53+rMfC5FcuF9hAnAqISeFH0p6rZKS2NenrnO8AM/8//+738YPxESuLZQkmQhEmg8n6oDuQSaYo2dGLiRygHyzMpOOTBk+kUBQO48iQS9hWYrw8WUoHdd0p9j9GaA54wdzZfql9LePM9aOdc8kLskztQJR/q9ksbxhtgiQ1alkg8cqBaIytbXd902/aWRZRpaHpnTyLmfCIpbtmy2HcbXKqoigFbrjQiQ4GABxGV5sqDDfqDlygQ6miY5zcAHQArjIqsn8Z/9vYye8Q156cgYAnE5/MfX/zS9fCG8zc6W/OioH8sFjfjxvRpAyuV+mp1Xsd9R1VFeZiFEd8Tts5Qy1zOQU1/wg7UZp6W+I7gb9oRSBl76LQmBi1Xc2KQIx9G2qFVtr9MMjvS9xe2LbdBHQkcVh1+3S+08Cw1+FFvX8/1cZYEcY6em6CXMHg1MYCo65q1bt5jOlSXWjLiVSnQQgIbNfr/99nstY79rU2M63ZwA7JKEpBUaKw1jt6IBMgBheGNWUU/J3cSI9MgKUAx3DiCzlYN7vN6QkP/lr38xoIUfJECMARJpnw2r8Y7h/rwSqi2S81ofyY+B/v/8P/7NBnmWZ5cCkvb+Mv9h1gA/iSfztVQsTx4/jcrg5SkwP68HpEwGrnrbfNmjHxKu+ISMwaifWPFcCl7AQvjioM6Z7wgV6Ms5EChQdWIghXeoZ1lA6LH+EQD83jn7e4F1VqnbKwvkpRo7VWoqAqYSXhaXPXaihvGV8FJxJqNWYKp/4cLF8MOPP1rnYxqYF5D7S9K00yiQELdrFkFIWqb/NKx6SQDuo0ePNP09FW7cuKmB+YUNUHOBJPVGJ0Dq2blzu4D8rxYe2OsNNQ2BsX4TkLO9F94yeQM5zEuDn0/tF4uvqVQq/FX5YOyE77XWCal3BkKiZn7zzT/lq39b30esLMXQyvuoh3oFcgSde7bs/arZoVj6jh3Gqldtp9hkIM4gr1fYZ32ETwsXMqNWVFTZUmiXfiCNO3A3y/8bo3x393JTh8Jb2qzfgyBSTF0VW5Z8n6t5IKcgdNJeqVLYUgypFuYW1Onz5Ub6PqTxxzL0sZjj6NGjtkiFaSAVWGglAij4uRMQi4iGNBIacL0kgoURshX1CjOTnMv3ZykMapjtCgj2lz9/JQ+S9eYaSOdCX3xUUSSRxjwccMF1qo4KmGGHwN2QwZJYz6ykq8VEual7FsJ8//2P5hVE/A7a1FwDY67y1DuQww8GdDyWfvzxJ5vxIZWTrJ85lsdmXrn48NY1v9+fj90Az8jX2k2sP3vfpg2iblkrwXHz5p60bj3SryOxA/QMBAA6dcbhz8aymfePNQ/kMIq4wvs/+EAS+Q4DRbwfrKIrxC5CVT5QACfCqaJSALwIs1lQnjQiNSjoZ5qPbo5Rn+9qSRWivPyvfS1aJ7TQYWBg0HSYzFbyTd5hens3hz/98Q/mfonPP2DGgpBvv/3e1AyAGR0L10OkqEKSg9nhw4fURvaZWgW3s1pN8ISyIyQwG0E/TJuwdlEg0V72qknkqiufERW6IMiLSnuCH7hlXrx4ydRttI+C+pq/LI8zgoWlHF3Q8+RMXwVnTNcunToaAQynbFDRKTxCtQvfXbdesBCSB62F3FLzQI5ui5VbxFHAyIkelClRJRPSN/EU8FY5JiBHvVAIgBltMUDC04NNkuspATjxxPZm2dfiv+f6zP10SkIKf/G7z81jh/qDlxg6US9clB2CSHLFArl3uj98+XsL0sVAEXdzzEVXta+htqN9EVTrp6M/md8+vHIgyZe+dwHIKSv8YFbGgqlTUuG9fBnFLYEfhfJkTt55N5zevDOPUQ/xgwE2UrV022yyRUZUPGAivXqXPi/J6NZpd9UC9MoC+Xelr+xk27PVCoJ15MhnFuoVJrrBLMP9Mn9Aj4lhj2k/8bG9YflgnrfU6I1G9DH9r6f0Rq5ggDcDEJ0pC9fzKooDOQs1PpVf97ZtW00qR3V1Pw3kxHcnvoqDUl4v9pvEUiQifIV///vfWwhTlkJXeqD37Is949aJCuHUqdMWXwYffa4VClzOs6pJ5GIAdUwqViLnWfTibMqBrSQebwdQzNfdlfeUnBzc1a68XF4nPmuiP6BeWSTJfOXKbvPKws2RPX5xwkCSr0aqLJCXYOx0RrLxAvGt0X329PSYiqKYaWghzEVvd1k6YVzuftPU13cFKeQdmXvBb28gmYu1/wH+c7DKsthBiOeRyIlIyfJpVGPoHZnx4G7GalmiLbrevZB6ZYrMtJ6gaevXrzO3w61bt5o0jqtqLSdmJMzyzql9HZV76wN5srD7FOUvRAJ9V4CcNsLgjq78ohwMiITZd+16ZmAznlRZDvL+gDyGChBhEnUpQgTCwzJ5vXQvF7DLPsOsk9/mc2ZY00AO8xjpe1Kp8KWmzkzRYWAhjb2YDo3L5BkBODpyPFfGtJ9fWZIDepUbZUFlcVqzaffvs7zMgRxp5ZC2t9q5c4fNqhgo2TLvOw30LF0nZC735g3kogkQm1Qogd7ezbZqdPeu3Tbg0z7yfs8stFfyJwcuW7KvTYfxBmJTjfcVyJ3X+JHT97755lsLi0GEU9qFScUgqLdFf6AaZ9GAAEH744A+ErMH1MC4Gn/26acmvIBdpErjleUhQvLokkZPXn+YJiFtAYJ0VPMjz+vJ6TdBFgfeCHh9HDlyxDpqpTspney5GhNxxzFIIR2YSxSNqKycml7ed/Eb9Qc/s4GcjaBvaaUo4XIBMSR07i2kbg3I9e7eNJCzMwyxnq3TSxVUywnaaVPM+oj4iBoPIAcMCun0vAee1btqxesKP3v4gkoTQYqYNE+ePtHGx2MWtroQ3vg7y35O44DjU/z91AX+6YROpl3aTlTdy7V5OmEC0o4O8QfK+LlmJXIf7ZDCMXISO4MpS6UTjQn95XmmeFq4MU0iT4C8IPY7kLOalZAKSOSsyCVO9w1tLffdtz8oxOtN0w8XD+S9Yc/unYpj84EBeUEEVulm2jbtjIBhRJjs06wEH2rTCQsM8k3vGpB7uTGEs+kEQhShIdj4GBsC4Y0zYrmP1fPdJ2fI14HdFJESJDYLyNm/FuECjxccNjJea17QMp5rGshpqKhVWAiUAHkZa32eXuVAvl5GIGKt4Ofd05OyBUbsEfrDDz+ZioVOWiyQMzDYXo1aX7BRRtV6SAmQz15LtIcRqVmY2RNojM0b+MyO9iT2A6ip2THgrgGFNmz2JH1n4R9hAVbKiwq7EFFPCSFByN1KpMoCOV4rUlMUo9tiSm5A3pOyDSSqCuSa7iWpMA7QqEnUYUqDMe6HbIiNdMJKUaRQgJzFMaUA+datALnCH0i1glG8HlIC5HPXEjzCLZHgYoD5LbWTm1LDoWp5rnUdCzVziavRakLtklUsjKIYPTdsWGeB3OgHGP5RwXCUMyVAnsXNt1Qr6MhHBeTgEiNvkt7mgPPFp7k6Y6gi0cFQjf1VsVaIAEl8iwTIE9XK243o7SsIc/RHBnraDL73x44dt2iJLS1RSFoAkTY2r26Kb5M6Iz4g0HRo4RBqYdR/hN9mtTdHOVNlgbwEY+ek4hOzjVNPz/xK5EgCGDvRj587p+P8uQjIy8B1l1Ljr3JJItdv8ftq9TP0T6M9Dea4LeLPTTAi9lJEImdqyTVW8qFaYZk63iulSOQYwj0o2QaFAPCOXav8gq5EIs+/dmhb8At3Tbydrl5lg/BrZsca0PdXr0ZkIJ0QVmiXHt03rS2ms/E+ln+u5bsT2vGkQqWyc8fOcOjwQTP+s6ConG21NoFcEp6pVqoA5FQhDYblwmfluYL1fHRstOSapYH54S+jgflBhedqhH5vLZ69IcZp906DxIF/7TbFWSFGDnps/GopI9PlG9J7fvvt96b/LAXIUdfs1qYVe3Sw8Kge3A/hV2TsvGSbTse9VuBpvon3cP+74rWST7nhG15ObEZBiGUMo/RX/NAJvMbvnmhrCBTGU58tZs8e/eZKnZUf9YSrLFI5qsD92ix+m9Y80EcKqe/ZSKxNIBfF1ZLIYRYNgxWHZ+VCyYIggIaYI8UmKitaIUkn9ZYUvc2Bj7lZCVkUS1pJz8Vp5zPR5dpa20L74vbAQq4VK1doRtUjF9J1tlsPIEvnQpIy90MtCLp+47qkrcLdD/HlpY2w6XZKW+hhTKWTIPGXq3OUxJxZHo7A6KWEhYsWwvcObnYK0va+ux/OwrLMT7QfFlQR1A6ePdeK0OfaU5YFVS+kU2dVNu0Jn3TC5I5rDQj3q3ep500JTlNtN/1qumXxXTxDX64P5E177dCOWexgdOjgQRM+WMzm0UBzPVfItcoC+Xf1Z+yEeRhZ2FQCX/hT2gggs0S/EM6m7xW+qYMSNrNJho/FNgovUOyVdy0B4kSFQwrvWtZlKy5XCsjXrFlrQcMcpOiILEnHveyf335rfGZBkEuXefFFHY738K9TAcm6u1eEP/zhS+scLNknr1pOSI8IC2ww8dNPR6UmeBoGxRPA5S2AmaUgzrP3SSKPs4MBEZULK4NxGX4qPgLoz/V5UIDOdnIjAvWRl8Oa4UcLeJjpR4eiZqpvGr8561+lE8IcQgbx+fdqhspKZBYNFVLnM9GYAHkOzjB1w5uCoFm//HI8DKuTMaoXU9dUEmExiZaGxLhs2VLzJy1H5eUgvWqXaKBsWwaosABisaRyVCkAK1PIeHmRlvCbZkEQ0+OCY62kJSeAHM8A9I//+q//kt7Uut0GlKoxIo+MaV9sMME2et99970tgiFccAZM8sSU9x3IGcwBc/omBy6L8PalAJywGi/1GaBHQh8eGTZpHSme9vbs2YCEgWjDCdou7dMOOnk2//nu0nr8cx51nX0LNBObpacnFT777DObTWb3j+xn8vleWSCvQ2MnTEOVcp8wtgLynxUz23Rw2sHmrQrOg8N0ziZJ46gAPvrosK1UJa5xHNjyeE3N30J5GiQJs+ihVQeNcybJmNV7ABnbfLEohgBaSEl5q0S8U4krqFdQ2fzpj38MBxUGgFgX8xnjopiKwSUXG8Gvv560WCu8w8ru5coGkhkyed+BPJstDurRmVWio9aXmVHTp1G7PH7yWCqZpybFR+qXMfsNzzSX2uGrzfcEupZUH9MGWa+nbALm+G6zSL0T4YbZ6h++/NLWyODJRRsuJdUmkItx1TR2MvVl5GaJ/k/aWIJNEJimTRuV8+Q6fRJAWyv/UeLF9PT0mPdGA/O6dyy5VOOAPNNghfREZ/rlFzaWuGigRn3PBPyzsckHADYcwZccoyoRMms54bVzRmoVov2hXoFPVnYHiDybRgLk02vZgZKr/tlAWeDJGaBGiEBvzufHjx+Zf/qdO3fDwwcPTXJ/pb4f/R6tY+Fd1q4JHkef9TrihyITtBBs67PPPjWPK3a0KjVqYgLkOSqDykZqunDxku0Q9OjhI9O52aicZyeLv5YGwHTq008/0W452y1aXzGgFX9nPX+mITM4shGxBSYTnwH3YnjCu0hI4ngC/F6DJSEBfDCpJT4BLrStm3K5ZDbS13fdZiYGFEUM7JSdcr6vOvJi6paBn3ogRRK6DKZqiwPSrZs6RuqZYUnu/IaeHdUMkjv1NiHPE3/WQL0YAvQMNDBr3MtCtn17BOZ7bCVoka+zxyoL5HVq7MTaPTw8ZNN+VCssD34qAwqdJu8KpK0A+jrwh8eH+oDcjnbJFY+YI6VOpUqp9Fp4FgMnm1uzSw4qhlF1lGKAnI7lgMZ2ev/3//wfinPRG5o0Vc27ruaJIXRgyk38nn//j/+wRS6WtQsHBUp7Xu6qAbnoxhuDVEo8cntBlf/QjlDJoGPHcEpoYew4uDeyGMln5dQhqRRBgXfgXdWjOFKsSkbAQ71SSkqAPAf36CBIiFevXjOJnMA96HELAvLYe3kfxr9NGzfJYr0nfPjhYRuRiwGu2Gvr+iMdhhga+On/oP0a0WEWww+XkOAxekfUV8Q9JwJdMe+rJFNR2RGaAJXdMQkIuGGWMthUHcjFLOd/vQM59Q4/AXPaIgdGUjyKcHVkFytAndWlqFm5l7orpv54lra5YkW3qVbY3QpBrxThrrJAXoqxU6MWBe7pmd+VnVSoJyL0HTv2S7gsz4pbt/oLA3KkrLSERTkYgZdqL8m90uX+7vMjtm1UuXxInd56OgNqGDxPnTod/vH119ZpSgFepBxcH9GV71FM6B1aRVfp0KGF8Js2wHT9hOKPEyL5mtQqDGYZyS42g/N2M9f7eSfPV00iF4HvEpDn4jd1hrMDYI4n20WpAXGEYEcjjPvEfLGZNw/nOaPK1JsCa+3Q7Pwvf/6zQH2FGUFz0ZDPtQTIZ+ESKhWMUewlSAUCNNbxipwK8/x2bXf2qQLPowZYuXLlLLm/2z8h+aB/xE//f/2vv5nvfrE2CDhF58AbgHguqK+Y9SzpXKKZT2tNMBI9K1IduyIR/oGpOjzIAHkRVGYAQS6fvb2btaHBJ7K/rLeY2HO9zlUJhEjAxZZNLvCkQSoshKZ3HcipIw505C9eDEr4eKDQw7+qHr+XgbI5tLTG9g8uAMiR5Hmelc9//ctfLJgcAbaKTbUL5FWKtRJnJJ2NqRSLNn6WZD4NyPOsNH8fDR6pEUMcsUdQsRCel05TzPTM31uvZ/iB+go1A/rihzIoI6EWO13lfdQPnYH4K4cOHQqEz2X6Wuw7y8Fb6OIgBCuqpJ9++tlWs1J2Uil1/y4AObyhXwCUHNHiuwm7Bn/oH8xmza1VA3VjY5OO6iz4os5ooydO/Br+++/MIofCq9HYXqt5YgJlJrGIjkVBSOTs97lkSfF68toEckm8VG41gmYZh9N/oAHD53/853+Gv/3t3yPQlRtSvlOo+LuoPDoe1urFWjDz5ZdfhCNyP6KRlqIbi+dRb5/hSV8f4Wx/kKqhT6s979oCH5MIfdZTRKHMg4UYL4q/QuTFQqXMIrKc8RHaEAdG3dOnfwtXrl4x10ui9RmIl1DOqgM5XaFEYyfSLvpovMRwy8QWxYKeUQEkicV0S6SSZEBevXqN2ZqqpZL0Poxwxwz9tOK9XFZ9ZgS8PIE83lh6ZZj/85//ZLH00ZMXmxIgz4NzR4/+bLt7P5BURTyHYiU8GgIgxZJ9luiiz12/fp1Z/Cu5e0geRZzxFqQkBjMSkhADTylSZHZGdF6m9SdPnTLDp+FaEa54/l54TFD/rq7lNuPZsX1bWCXDJ/YJOlw5afc8c52hA5DCA+LevXu2uIz4PcQGQerMbGr9ngJ5JCSNmwER8MZDhLbAcnsW8kyk2xyrhRF+APPu7uWaZa23mN7YBVClVWNGi9GTQGdHf/7ZAutBo4XRzdUQ5rjWu3lz+CoN5GwTV2yqLJDXqfthNjMxel5SJzx+/ES4cf1mBAhI5t4JCxiJfVRn9MWz4vDhQ9KTbbVFLIBktRP0cZA4Y+yxxVD6jk6PDoSE64DoZ3ugiD8YPYm98r2k8q9l9AT8WKxRSnIeY4dA4tknNdamTSnTlwPm85Fc0rx69aq5V6J/Rr2SkcSdCG9D/r2Ac9UlctHqbaVQrxXqHRvJ6TNnzB0TYMSoCMD7O+OsaG5uUSiGVrN/UJ9uCyhnBMF4frN9joD8uoD8WATkalM2i5ztofhvjheq+95eAflXksi1JRxhPIpNlQXyOvdacaayypMgT9/KwHFRvs+EpGQJb7EgRkOlATJFZBuordquDH35MgWbwtOi2Pc6vaWc0QESZtYAXAa6p0+e6fOgvbJVkQ27li8z6ZbVk4B6qdNcBzxWOrJ/JXw2jwDNXErhAzxGMkeS2yl3xK0aLFMC846OxTYQl8Kj2Z4lX8qEfQVwIpYMQgD+4xg8SzHoZudbz0B+V7MUdvw5I5UTfKK9ud0gu5x8J9Acg3B3d1dYvWqV7TYF+GHcpg3Sn+YrnZex+ke5zGLzYHAudqYH+G/duiX8+auvbGZOWy02JUCeB+cAN6KqffPPb236T3TEiYnxwkbhrHyQPACqZQpryRLdAwcO2FZlbNI6W5ySrNeU5SuAAPggJTFo0UCfKLAQ01wAaUjlJbVqikvQL/y1V61cZfGV0V2WQi95w4u+vus2SKJL7u+/bbwpBcihl3fzDiRz9vbEwMwsiKk6s4pyS+eUA1UU7YPtySgLaxAALVKp5bGXxP7UI5Az0HGcPXfOXE+JtYOE6yqSmSRbfw4DISqVTalUYEFN7+Ze058Tv4h2SL1WIpE/Aw2DMcbO//rvv2umOiz9/mikJkMd6JJ2HgTQFmh/eLH99a9/tc0mWGtSbKpNIBdP6BTVNnY6U6lAFgf8ig/w+fMBVQvqgLcaHRUp2vNJNAwqPgr92hnWa7/JLVIDoGZB7VLqSq98aPB7UJ28GHwR+uUrjwrguhatvHgxaMBOPXCQKG+jGl+7JHGkh107JelKolglCalY1ynvoPjm3pCEduLEiXDlWp9mPdr1Jb1dXCEdxMvEmVkTiSBezHa2idZUKhU2CNihny24ypmwnzCbAZyuy3h7W8ZbZjOjbBVYgVR1IAe7CjR20pboTz/+eDR8pxk7NgQA0YF8NjbRViIAVNz7Ns22li4Jq+XCi2Te05MyX+xKxNlxEI/sOVfM3kFoCfhvM/N8O32scMwwCG3NhuT/9q9/tT7EAFVsqgsgx/OAZazssFGNRIUhrfapc16WYY7ViERRc4NMKTTRSJAiUFOs0zQRoGG6uGLFSrPQU7nozoudvuWijTwpE9IFs41HMjIRNAgQx3OEJcl4EnAPHcclSZ7jQPJBZ7l5c8pc/YgZAZhz3e/Nle9s1/BaIN9fZIdgCTvf2ZnJVBGzPTjbb+lBFfAAzFl0sUbun7h6EfumW7GgmZbDY4zNLqHHy5z9eucBZ2YxSODwCj7iJ37v/r3Qd+26hXUgVgd5Y9i0FI0r2a8s+jv1AwDSdnp7q+BHXgSQ0+bQhRO+99vvfrCZLTyiHIUm2hsCBKoWNt4mwih1jGTr9Urf8vrMp23G65fP1KvNyNUe76pvXNBmIJzpM7yvGLp5b6McHhDWdu3aacZOtn6jPMWmygK5KmrgxUBRtFG5NNSenpS5kFUTyCkA9BDH+Oatm1rtecxWerK3J0JfPg2Ed2QSHZq+zaHPVKz+KNxtswHOOnmybNS2ZahcaJxIGQBNuaaNlAUAYkrLilX2z2TVGtIRHhURPRFdVrY0DkG//cYHJWgCEP/0pz9qirhN+ueODBhGd+T/FymNDoP3ylmtfLwhmtArmzdALP+835jjGTpds9zZsEOgYkEwANTXrFmd8Rzi/QC6g3p2fvAOAKdtAuDwjNkEqhQWkJn7nHhIeeK8yght1H2ZUtWBXOXwMuZr7IRftDUMhSxEok6KAUNnIe2TugIEAUOAnH6DMZR6RY3m9TlTnfq7OMNT6tgP6rRf7obQfFc7OT2QwINQR7kzQkaOthZ/Z/Zn8qDvbFA/Z7/ZI0c+M1AvGEdiL64skJfJ2FltiRx+UXF0XF9WjgELVQCVUnQF0ADSQO7voVFjkFu6ZKnApctW6aEGADCRJt3vHFCnYZK358+Z53mXdzAaJO6D6PQjFRE7quCz+yQ8lARMeZ4Sn1kDLvo+1FnTOlaORsp00qfUhONkm7Xd8tneLFeqYqeH0AxAota5fPlK+FWbLkAb9JO8jPYlnz/ZdPuAqWeNx2n10FJNz02VZaoWNsRYZAMSUi78dV5AH7Sg/44ORcfTZ6RL7AjYUIidgieG8/8tmtP1nQ/5+dxDPtBXNYlcRHo7yxfIscFg3EQYOvHrSRNOnMf5lDn7HvJ3GhYJtBdJQmfDb2xPS2XPwe2UOkYYQgImrwU64mGkeR5e0j/o49iGXqg/UKcEy0NdhgEeNZnHWSmFZvJiMxTUKrghf7B/f1hcwqpOeJIAeXbLmOM7lYw/MEv3CcNK1D7rsA4c+Uhcc3RoAIPK5r24/DF93Cr97gEqXADDdyQNpBAHc8gG3GlgLjFyDckbKRtpF88AJEY8Q/r6bqjBEmc9ivdhbnHEXM6Ijjyt5OWKvk19Vzmhk4EFoxPbVzFrQiovNtGhAEaMrRiWr8vV8+XLwvfzzOTvtHudpME8o3tP3wgP8chZps6+ctUKrb6Npuiu0uI2eEpHRyLDL/yBVqLS0Vm44oONgYTqbL5SPQI5eua+vuvh2C+/2A5J3mYz7czrqggmOiB736Feu7uXS/Jdbxtzr9OeAA0NC9VPNONKq1zIhvqbUN3ST9j/855mWHduR5K49yX6IvWbE8Cd5jyrHjpR/7ARCnGBWN1Jfy4l1SaQiyEGZpIOe3pqQ7XiTGZahTQLmKMGYFpNhy5nJ6aiOUg0RhoeAInUs0hGHsAc7xEaQ9QgI/0iUgYNDqCiMb9WA2X7Kwy1SI1IkEgUGJe4BsjTUOlEEYRntcSsr84DP5MH9CHRfrBvn6zvfzYjov9ezBma2HQC/+KL0pVfkR82NObsQMVkoGeYUfDfk3dSgBtdOvpVOlaDPCT4jcQM5LXCRvh2YsxeAHZ44HXFfTYQzsE37itHIm/4UjWJXOX0mVkhEjlqM8JDl0Mij/PR6sGqVn9Em2DXBCHqcrFmue2qV6Rx2mxLS6vqFlWKz1jTMVVkmEa44RjWMa1u0/0rnmden9NtjXbH+wgzwOKfI0c+NR05On7aXikpAfICuUfnAWxYpntB/qQXLlwKV7VRMx3ejwJfOevtVLwf5E0DZAq5XP60TMemJAvQYwqduBcgJ1g+033UKeicSRjfaMwOUrHH7Hf7zuvmSOTBO5BmWaX6P//H/2WgPsdjc/6MQQydMx5CdHimtKiHMvTO+YYZbsguE+zSNeOvgJozZZoz6Rlf2POWDj/9zjnfUYYboLXegByBgkBdR4/+LKn8uLXDcg7S2W0XHvmMyVmOodFUgKpHfmNANoHGb9CZtpaZpepzJvnHqa6W+Snnh9h91r4kZBHMDTsYUVCJC8RATH8sJdUmkKtEJpGrEnp6aksid1BFTYHh5kcF1Dp69JjAXcuKJTlOA8hSaib2LHla0okGhlSB22KUV/oajQ3QT6Myj3DQkDmgjbOnoiVHGnKaHN5XCSCn7tFVYoRlg2K8hQB2OvxbwOkFKvSc1SEzPM73PennF7zxF+nB2Md8X1PKffC/qkAu4p1v+Urk9Bt0zt/Ka+V72dD8+bKCeYyp/v7YJZs1WX6qL373I3NPun1TnyULD5mXThlSsfkRvvYDCT84M6BeKjWfBMhjjC7ko4/kBM5h6T6LPtCvvU5LdqVWTE5aDJwjsI43PvLiiF/z5/03P/v1bMklc32uD4BVDMhphITjRSL/4x++LFm1Es8ew1ifDGPntXjkvNQsSOrMhihLWVKsLLO+L/s+z947vJ/9+qwvK9+P9Qjk1B9qC1ZGfq/t7gB2Bm2AtWz1mg+LqbN4fWXXcT7vyPMe75fYu5gJHDp40Ban4VlTrvUiCZDnWRm5bqOCkC5wUUIFgCcLumdAviISRhZgkD8p3gH8mtMb/82vFXX2Ru806CWUk2Xw+6QfZ+PjnfKJRe1TrsSUF9UQunLilrNKEmOZBZyyGUi5cqrP99QjkNM+ofvMmd+0ZuC4GT4ZsDMz2UoBao72O2OtF3LvTC+JvYPy0ldWyjUSf/cPP/zQQnIA6ghC5UgJkJfIRYyfSBVsPsGKPvR/rIoEhEhlA9IS6Szn46a+EaCzMpKp4eHDh8KWrVusoZayqCGbRu/0LFJCzXJJizHYuJgVlONj4+8kb7N5MNt3+MOSdbyYcP2sp40l7kj4wejJmgFirgzJjkOfMUFEIGiqv9kKX8xvgGtMECnmFYU+Q3nAAAS73t7NNnMlthLSeDlnIQmQF1ozOe5ntMV7BV3uyVOnzb0PMPdKzPFIfVyKN3w6AN9j13pSKXOLPHTooPm4l0PXl4sxzHJwSzwv4ydBy/DfZ/DMpBhNRh8/zHOHzdAyXx/SZUaSxcuG4Gv1BOSuYsEGgtMAC9MYoOlLAF9dC0DeHtUG8SDDSwW/8f3afP1zGTht3UIJbrq5mlgC5Lm4UuA1ABu9H2oWJMa+vuvhmjxZXsjnHBemzMgbq+AM4BSY17ze7vSSqRol5aRhsriCBUoYbbC6I5XjHkk5K5Ew1BKv5PHjR2b0ZJk0K+3YVcjVC2/l6wPPWz+8OxeoD3iOG2q9SeTUGxI40QPv3btrarNbqlO8wcY02+L3twC91uuU/kJK9xXODQsXyJe921Y+b1eEU1ZAt0il0qw1IOVMlQXy77REn2XsXsACKGdkpjJ7emrLa2W2IiBlsLqPKeP5c5Iy+m9ZwHw6HEdGyqj1BumFTAO5AbjqAol7kfbA3KAgRcT5JnLbBoUS8IVJ/lglztBAx8d97dLlKxYe9orODJTwnZThL19qlcc+ONLZjcgY3dBMyqe/6F4G1QjIqxRrRaRSL6R8vVbs5vQfr1NmV6haWNV78eIli7nDwjsH8ky9klU+vIlnMp+fY/0FmvEsQ8BJpVLhsGat9BVAvRIpAfIyctWkDEmPw2qYSOd4tJzSwWD2SqvG4gtMLNt0xdcs6IhIOhuD6qtXY/JO6baFP0jhxLPA4o5+1jtcGVmZ81XwF9BmYdNtrU69qgBm+PCjavGUmRU4b/2HaoDADHma35G8mzwZ/0AoaCZl0x5dfesv/KgIkEvvnklTZGYuxT+UAuS8hzIw4/Kl8Riz2XmHULEkeLNQqzE5RxeiU+av82wOOjP3l/uD13G6zigPB+ouQgXs0v68W2U/IkIj/uKlLvyZifyyAzlS0yPF8Dh//kL4p5ZZE6uAghWaXCLfvn2bMQODGhH26iFBO3y4LIkRCaP/dr948thACCPduOKeZBpmrRVIDfPNgiggECtFWXBEuM329o6wSeFf0fMRnREJDP1sBjjnqRw+sKAzZ6k80ShZZYsEh3oLvtPeAMuKGMwKKad3cj1j0re+wy8MlCxKsaXiOr+SwXxUK0WLAXLqYIkGVMDiMwVfIhhYPhsUwEf41N9/W776J62dsm+q1akDOfTPkRzIo80eehR35yMz5KETLrRtUHe4mLLJyGnZmghKRyx8wmDwG4CP0JOpW8AzDaBzkFm5n6FH/YVEe4N/zFzXKSDbxk0bbFMTdzPkeqVS2YEcEMPQd1F6zL//4+vwSHpMn/pOK4SPpNMupr+IL5NaOktDAzhY/k24R8CjXhINnEaJAYdB7ZpibN9XiFNUA8Qyp9INzJ0Pfo7aRPmLmef7oZuDTsjUEIkbP/EDqgf0sNSBh3yt1mAEfbSNCe3U9ODBfdOXRx5D/cZfgJF73uJxnLfOj3JzOlceyoul7NBEZ25ra9GUu1Mrc9lhqc3Ub4RFzStBN3noiAxpjRb1b6cWmPzud5/b1N1WLebxMujBSH/6zG+RIVlCB/U+Z70670QD7yBtksRJLP0PPzxsNhPUbXO+J4tG3sVhnmDyYiHmN1vlMWC/EKgPK7yEDdLiZTn2PM3KPvfXWFlz3xDNKvgN3rHaGhvSgQP7DbNYik8fyouvM2WQx/WyAzmMBsCIcIbTP8a/J4pNol6VX8WmGwcVRaP//Re/C3hFACYwpJ4SvECSeKAofgRbAsg5E9WPwW5E3hhI59xn/HFwr0QhZ2mQlr/ypOPRAYk30rmkMx1EaqV1zJ5UykAckKBR1kpCv+rSuYUc7b+j3Y2emvqF6fqYjKRIcCTKVyi4FFzOKCvL0+KQiFWsRiV0LjE/GAiJg94tn2L4jHRugKWBHoEHQWhWGqlH8tABkFMf1A2CDrNW1F2FSH74cF+9es3A/LfffrP8aQ9GA3mR0mWKvqT/pn8jWib37tm900Ky7tmzx8pYahuBD2zIzEBDECtULoSR9phBzGy5x5JomZVn0wgv4ksWHxhs4BFlRAJnoQ+qFCKWrpQTwFpFKUX1SLRS6qeQ+iiCuogFIipXNRX7PhtRmQLBfHTESEqMqqR8mA05HDCgXRLLv/3bv4SPNMrDjFIbR9GFKsODSBmomYg8yCCHbzSSBkGsWN4fJfxN062GUzlrJqsxMnD4+x3I4TGDJXGd1ypSHIsX0O0xbXYpPE1oTZ1oL4AgIROuSNWC9wMAAEgR0IwOzz20Pz/eKkA2f966YYYLXkcxfnIn+QG0PtVmY122xevp6TGeRpH4Gkw3/ONPP9kGzaiHaCe08xn7iuejfBmg8FghKiYAikRcaBQ9BkF4hS3nl19OiJ6XtqHHWzRQznhZKaRo8bDHn37ysc2eU6lU2VYrkoX3G4Qf+gxeLfQhBnCiFXrbzckveEVyuqNvxf1N8516tboVkCP0tGiAJlQugma0h8CmkFI0UPoLv89XKrtEDuEwF4MUjEetcEpRAtktBUn9rQYSKykMIiGlACC4t9FAe3pSM3dAHqiDBJjYlFF8QPdHhD+kDCQM21lGoI6/9Ph42gODkLIAj/45X3I21uyyw0JvwNm/6bs3RDvTwvWfuOdIikRU7Opart28+d5lIUABdqQNACmv/HPkOR+XnL8AE5Lb06dPDNj5zAYa2G2ePotAHYOTWGvJeOxf8iU0zmNjYdS5nbe8JpK+xUcZvJYqNjZT7OXLuw3M4TO/kzd0swHxGQHpRQk9tAukdxNa4vnEaGOAAEAxnuEG+vmRIwLxbWZcK1T6o00SVO2s1Bj4dAOSDIhz1TdlpZ+jGiIIFGqdDz7YJxBfYhJqjNySPnq9Yv8g6Bu0PVHdWj2LV8xwCY0xKHWlg7pjjLXXNADPSITzOPs+risxWFJW0qTKywyPPrFMMc7ZuAIJHJsE/WeFPFL47EGwrA7tycr/qQiQQzYqBZh/+fIVA/L+/tu2kcHMRQK4gjUCGMH2YahU2PEjH+PNzO+trV9obDROOk/UMJ9q9vLApHSAnQaKdBkBegTi3kAdSL1hzVYyv9fv4Tv/SB79EKmBJfXslEOjBBTY25JA/IsWtavBLvLH6+qMSiXi76B5DLG0nwUnCBZRaNLIswC+Rhg+NVjScfk/WzI+RqyMeJr+jACyUMZLgBg+sgPM6tWrNCCuML0pag+AL9tzgfjr9BOCr7EbjQGRCDBachBidSnC12t3o829m8PH2tgD17a5wDfHqwz8aI94/rDYCtsWe7dO6FqmnRlL9CddTvgDjQwaqySJYsz76KPDtsE117LbXq58C73m/QZhkANBkf5y8ybrCR7Y4D2c3gyZexnsLEF7Goj9/FbeXi79kAmCpmvUs9cBnjN4nVG/zFjpL6hPmFnhYsjhAP7W++fhQsWAnOBRNBAkI6Zux4+fsEYyoumQWZ+zCkflsw/kKu3QjqcK00R8lQGbQqWMrFfX1FcaEwe8gQ8MeEhFgPqjx4/Cvbv3bTs5JKNJSV3RQeRCjL/RszM2yKySxiUCpnnwEbCJXKO6QmrTJut8bfINR5WFlAjIsBIt8qgoLbRmFjnz9pWODG+dv8x02ESDmU+/BAr8lZkh2o5IxteIt3R+j689F7EMhui+4TFGYfgLULNqb3NPjw2OfGcwhLdT/H/b0wdgQg2EauPipYsmZTIYzVTPSITszISgs2fvHpMEuVYMgHoeLvEeV/wTdPYPHz00tR+gbTMAG/QEbdHIp/yZDayyXW7Qz3dLGqW8/vtc/Cv0d+jkcECnbhF4IhWL1EHqQzgUsLqatRwjEpTG1LcYkHjGjc355BvVq+pXfcU3oiBU82oJOsx8TArXzAPgZmCO+lXkrVKp8s9Fd8WA3DOmQdJQL168FHBvev7sqaSllzLyTahiCMof7SQPYNMYWSXYq+XGnGkc70OigQLsSBmPHj3W4og74YGkdHiEUQcdOoBPw+Q+DqbWBjzinydABR07jYnPSGguSRDHHEmRFWWLBC5Mh9evXxdSqZQ9zjPFSHSedy2f4RedHikdAxoSMLYJ2uarUQyi4m8a+LnXO30k2UUMxhUTnsInQNyAWQCOG2GbgBqe4oXCbGbDho2mSokGxZn3/4zzDFroH9DGzAGAwiXR6lpAZPWpgRhXUGaoGEx37NgR0MdCC7+XmigvM4Pr1/vEpwc2OwQgnTeNade6JtHAgIWLXUrtB8kUGmg/85m831g9iXbiHDHzGhoeMs8wBqcovPRUzHHwBtzhGT6TVKXT+4zK0YQwo/ptVb9hJSZ13N293FYyM2AxOFPecvA9oqK0vxUHch9J6Uh0Hgx8zwTmBMlhF3p+Z49KGifT0SXylmiTTrbJpMf5bRilsbK0p+EDEjeSt0uTdGI6EgBEo2RAhI8AOro6PF4iCTJqkU3aWNg7NRI1QMLBps64RTFQRuASGY6RJDg8VUua8PwreY74G6m1xq3dRZ8ZPDngLbxmeTh852DwnJyU77ISU2p45+qTaBbTZrMY+IrREemN3+FpBvRBiTwS9JEfdGD0RO+LPhiAHxO9NgCrX5g3kUCU6b3XZTnrjfJj8MR2w4GNARpQ9dG+mLVFMw/2lF1ugEZ5y0lDHuzK3ALfPHm/AaTpI0Oa5bIbFvTD12gGFs3W6EcAOmkBMyvVW4s0AgyU9BeAu027cYFHqBkpH3Xr/Yvv1Sqzlzd+rjiQxzOjc9BpACU6DcYDhkWkRToGjQTJ/F2VDOO8yOczDdKnkHRyGp+DjE0Zxc94Q4ZvzjuT4PSdTmaLeiQxRUBUO1JEPjyo5D3wzoCSwVEHvIa/XIf3fOZMivgJQEeSOR06kkIbza5Duy1HIk/6BnTRT6LBhPAI7BSveNb0E4EM6rFKJcocgV9EAxt3QxeDGWokpFEOaKgViTSbFxEfI1sT9QofOVM2r9tM3xEoM+OyvpLuQ16/lJN+U+tpXoG81pmR0JdwIOFAwoF65EAC5PVYawnNCQcSDiQciHEgAfIYM5KPCQcSDiQcqEcOJEBej7WW0JxwIOFAwoEYBxIgjzEj+ZhwIOFAwoF65EAC5PVYawnNCQcSDiQciHEgAfIYM5KPCQcSDiQcqEcOJEBej7WW0Pz/bzQERkNgNASQQmC0IEcKjFHmaAiMhsBoCAzFEAAAss5iV2RmSU4AAAAASUVORK5CYII=;" parent="1" vertex="1">
          <mxGeometry x="379.5" y="1218" width="97" height="86.51" as="geometry" />
        </mxCell>
        <mxCell id="Xvh4Ea2OsRVNu9SrrAmw-18" value="Pharmacy&lt;div&gt;key: id&lt;/div&gt;" style="rounded=1;whiteSpace=wrap;html=1;" parent="1" vertex="1">
          <mxGeometry x="314.5" y="1334.5" width="97" height="38" as="geometry" />
        </mxCell>
        <mxCell id="Xvh4Ea2OsRVNu9SrrAmw-19" value="Depth&lt;div&gt;key: depthName&lt;br&gt;{id1,id2,.....}&lt;/div&gt;" style="rounded=1;whiteSpace=wrap;html=1;" parent="1" vertex="1">
          <mxGeometry x="438.5" y="1331" width="96" height="45" as="geometry" />
        </mxCell>
        <mxCell id="Xvh4Ea2OsRVNu9SrrAmw-20" value="Database" style="shape=cylinder3;whiteSpace=wrap;html=1;boundedLbl=1;backgroundOutline=1;size=15;" parent="1" vertex="1">
          <mxGeometry x="395" y="1434" width="60" height="80" as="geometry" />
        </mxCell>
        <mxCell id="Xvh4Ea2OsRVNu9SrrAmw-24" value="Service" style="rounded=1;whiteSpace=wrap;html=1;" parent="1" vertex="1">
          <mxGeometry x="140" y="1331.5" width="92" height="44" as="geometry" />
        </mxCell>
        <mxCell id="aa4gqS-1zvOVi5TIOQsS-3" value="" style="html=1;shadow=0;dashed=0;align=center;verticalAlign=middle;shape=mxgraph.arrows2.arrow;dy=0.7;dx=20;notch=0;" parent="1" vertex="1">
          <mxGeometry x="245" y="1344" width="37" height="23" as="geometry" />
        </mxCell>
        <mxCell id="aa4gqS-1zvOVi5TIOQsS-9" value="" style="shape=flexArrow;endArrow=classic;html=1;rounded=0;endWidth=10;endSize=6.21;" parent="1" edge="1">
          <mxGeometry width="50" height="50" relative="1" as="geometry">
            <mxPoint x="249" y="1392" as="sourcePoint" />
            <mxPoint x="281" y="1413" as="targetPoint" />
          </mxGeometry>
        </mxCell>
        <mxCell id="aa4gqS-1zvOVi5TIOQsS-10" value="depth 정보가 없다면" style="edgeLabel;html=1;align=center;verticalAlign=middle;resizable=0;points=[];" parent="1" vertex="1" connectable="0">
          <mxGeometry x="260" y="1427" as="geometry" />
        </mxCell>
        <mxCell id="Kqu1EmaRAJuCwTaNFQil-1" value="" style="rounded=0;whiteSpace=wrap;html=1;fillColor=none;" vertex="1" parent="1">
          <mxGeometry x="866" y="1319" width="239" height="69" as="geometry" />
        </mxCell>
        <mxCell id="Kqu1EmaRAJuCwTaNFQil-2" value="" style="shape=image;verticalLabelPosition=bottom;labelBackgroundColor=default;verticalAlign=top;aspect=fixed;imageAspect=0;image=data:image/png,iVBORw0KGgoAAAANSUhEUgAAAXIAAAFKCAYAAAAADdTJAAAMQGlDQ1BJQ0MgUHJvZmlsZQAASImVVwdYU8kWnluSkEBoAQSkhN4EESkBpITQQu9NVEISIJQYA0HFji4quHaxgA1dFVGw0iwoYmdR7H2xoKCsiwW78iYFdN1XvjffN3f++8+Z/5w5d+6dOwConeCIRLmoOgB5wgJxTJAfPSk5hU7qAWSgDKjAE+Acbr6IGRUVBmAZav9e3t0AiLS9ai/V+mf/fy0aPH4+FwAkCuJ0Xj43D+JDAOCVXJG4AACilDebWiCSYliBlhgGCPEiKc6U40opTpfjfTKbuBgWxG0AKKlwOOJMAFQvQ55eyM2EGqr9EDsKeQIhAGp0iL3z8ibzIE6D2BraiCCW6jPSf9DJ/Jtm+rAmh5M5jOVzkRUlf0G+KJcz/f9Mx/8uebmSIR+WsKpkiYNjpHOGebuVMzlUilUg7hOmR0RCrAnxBwFPZg8xSsmSBMfL7VEDbj4L5gzoQOzI4/iHQmwAcaAwNyJMwadnCALZEMMVgk4TFLDjINaFeBE/PyBWYbNFPDlG4QutzxCzmAr+HEcs8yv19UCSE89U6L/O4rMV+phqUVZcIsQUiM0LBQkREKtC7JCfExuqsBlXlMWKGLIRS2Kk8ZtDHMMXBvnJ9bHCDHFgjMK+NC9/aL7YliwBO0KBDxRkxQXL84O1cTmy+OFcsMt8ITN+SIefnxQ2NBce3z9APneshy+Mj1XofBAV+MXIx+IUUW6Uwh435ecGSXlTiJ3zC2MVY/GEArgg5fp4hqggKk4eJ16UzQmJkseDLwdhgAX8AR1IYE0Hk0E2EHT0NfTBO3lPIOAAMcgEfGCvYIZGJMp6hPAaC4rAnxDxQf7wOD9ZLx8UQv7rMCu/2oMMWW+hbEQOeApxHggFufBeIhslHPaWAJ5ARvAP7xxYuTDeXFil/f+eH2K/M0zIhCkYyZBHutqQJTGA6E8MJgYSbXB93Bv3xMPg1RdWJ5yBuw/N47s94Smhk/CIcJ3QRbg9SVAs/inKcNAF9QMVuUj/MRe4JdR0wf1wL6gOlXEdXB/Y487QDxP3gZ5dIMtSxC3NCv0n7b/N4IenobAjO5JR8giyL9n655GqtqouwyrSXP+YH3ms6cP5Zg33/Oyf9UP2ebAN/dkSW4QdxM5iJ7Hz2FGsAdCxFqwRa8eOSfHw6noiW11D3mJk8eRAHcE//A09WWkm8x1rHHsdv8j7CvjTpN9owJosmi4WZGYV0JlwR+DT2UKuwyi6k6OTMwDS/UX++XoTLds3EJ3279z8PwDwahkcHDzynQtpAWC/G3z9m75z1gy4dSgDcK6JKxEXyjlceiHAr4QafNP0gBEwA9ZwPk7AFe5jviAAhIBIEAeSwUQYfRZc52IwFcwE80AJKAPLwRqwAWwG28AusBccAA3gKDgJzoCL4DK4Du7C1dMNXoB+8A58RhCEhFARGqKHGCMWiB3ihDAQbyQACUNikGQkDclEhIgEmYnMR8qQlcgGZCtSjexHmpCTyHmkE7mNPER6kdfIJxRDVVAt1BC1REejDJSJhqJx6AQ0E52CFqEL0KXoOrQK3YPWoyfRi+h1tAt9gQ5gAFPGdDATzB5jYCwsEkvBMjAxNhsrxcqxKqwWa4bP+SrWhfVhH3EiTsPpuD1cwcF4PM7Fp+Cz8SX4BnwXXo+34Vfxh3g//o1AJRgQ7AgeBDYhiZBJmEooIZQTdhAOE07Dd6mb8I5IJOoQrYhu8F1MJmYTZxCXEDcS64gniJ3Ex8QBEomkR7IjeZEiSRxSAamEtJ60h9RCukLqJn1QUlYyVnJSClRKURIqFSuVK+1WOq50RemZ0meyOtmC7EGOJPPI08nLyNvJzeRL5G7yZ4oGxYriRYmjZFPmUdZRaimnKfcob5SVlU2V3ZWjlQXKc5XXKe9TPqf8UPmjiqaKrQpLJVVForJUZafKCZXbKm+oVKol1ZeaQi2gLqVWU09RH1A/qNJUHVTZqjzVOaoVqvWqV1RfqpHVLNSYahPVitTK1Q6qXVLrUyerW6qz1Dnqs9Ur1JvUb6oPaNA0xmhEauRpLNHYrXFeo0eTpGmpGaDJ01yguU3zlOZjGkYzo7FoXNp82nbaaVq3FlHLSoutla1VprVXq0OrX1tT21k7QXuadoX2Me0uHUzHUoetk6uzTOeAzg2dTyMMRzBH8EcsHlE74sqI97ojdX11+bqlunW613U/6dH1AvRy9FboNejd18f1bfWj9afqb9I/rd83Umuk50juyNKRB0beMUANbA1iDGYYbDNoNxgwNDIMMhQZrjc8ZdhnpGPka5RttNrouFGvMc3Y21hgvNq4xfg5XZvOpOfS19Hb6P0mBibBJhKTrSYdJp9NrUzjTYtN60zvm1HMGGYZZqvNWs36zY3Nw81nmteY37EgWzAssizWWpy1eG9pZZloudCywbLHSteKbVVkVWN1z5pq7WM9xbrK+poN0YZhk2Oz0eayLWrrYptlW2F7yQ61c7UT2G206xxFGOU+SjiqatRNexV7pn2hfY39QwcdhzCHYocGh5ejzUenjF4x+uzob44ujrmO2x3vjtEcEzKmeEzzmNdOtk5cpwqna2OpYwPHzhnbOPaVs50z33mT8y0Xmku4y0KXVpevrm6uYtda1143c7c0t0q3mwwtRhRjCeOcO8Hdz32O+1H3jx6uHgUeBzz+8rT3zPHc7dkzzmocf9z2cY+9TL04Xlu9urzp3mneW7y7fEx8OD5VPo98zXx5vjt8nzFtmNnMPcyXfo5+Yr/Dfu9ZHqxZrBP+mH+Qf6l/R4BmQHzAhoAHgaaBmYE1gf1BLkEzgk4EE4JDg1cE32QbsrnsanZ/iFvIrJC2UJXQ2NANoY/CbMPEYc3haHhI+KrwexEWEcKIhkgQyY5cFXk/yipqStSRaGJ0VHRF9NOYMTEzY87G0mInxe6OfRfnF7cs7m68dbwkvjVBLSE1oTrhfaJ/4srErqTRSbOSLibrJwuSG1NIKQkpO1IGxgeMXzO+O9UltST1xgSrCdMmnJ+oPzF34rFJapM4kw6mEdIS03anfeFEcqo4A+ns9Mr0fi6Lu5b7gufLW83r5XvxV/KfZXhlrMzoyfTKXJXZm+WTVZ7VJ2AJNgheZQdnb85+nxOZszNnMDcxty5PKS8tr0moKcwRtk02mjxtcqfITlQi6priMWXNlH5xqHhHPpI/Ib+xQAv+yLdLrCW/SB4WehdWFH6YmjD14DSNacJp7dNtpy+e/qwosOi3GfgM7ozWmSYz5818OIs5a+tsZHb67NY5ZnMWzOmeGzR31zzKvJx5vxc7Fq8sfjs/cX7zAsMFcxc8/iXol5oS1RJxyc2Fngs3L8IXCRZ1LB67eP3ib6W80gtljmXlZV+WcJdc+HXMr+t+HVyasbRjmeuyTcuJy4XLb6zwWbFrpcbKopWPV4Wvql9NX126+u2aSWvOlzuXb15LWStZ27UubF3jevP1y9d/2ZC14XqFX0VdpUHl4sr3G3kbr2zy3VS72XBz2eZPWwRbbm0N2lpfZVlVvo24rXDb0+0J28/+xviteof+jrIdX3cKd3btitnVVu1WXb3bYPeyGrRGUtO7J3XP5b3+extr7Wu31unUle0D+yT7nu9P23/jQOiB1oOMg7WHLA5VHqYdLq1H6qfX9zdkNXQ1Jjd2NoU0tTZ7Nh8+4nBk51GToxXHtI8tO045vuD4YEtRy8AJ0Ym+k5knH7dOar17KunUtbboto7ToafPnQk8c+os82zLOa9zR897nG+6wLjQcNH1Yn27S/vh311+P9zh2lF/ye1S42X3y82d4zqPX/G5cvKq/9Uz19jXLl6PuN55I/7GrZupN7tu8W713M69/epO4Z3Pd+feI9wrva9+v/yBwYOqP2z+qOty7Tr20P9h+6PYR3cfcx+/eJL/5Ev3gqfUp+XPjJ9V9zj1HO0N7L38fPzz7heiF5/7Sv7U+LPypfXLQ3/5/tXen9Tf/Ur8avD1kjd6b3a+dX7bOhA18OBd3rvP70s/6H3Y9ZHx8eynxE/PPk/9Qvqy7qvN1+Zvod/uDeYNDoo4Yo7sVwCDFc3IAOD1TgCoyQDQ4PmMMl5+/pMVRH5mlSHwn7D8jCgrrgDUwv/36D74d3MTgH3b4fEL6qulAhBFBSDOHaBjxw7XobOa7FwpLUR4DtgS9DU9Lx38myI/c/4Q988tkKo6g5/bfwFmOXxjs1rZpwAAAIplWElmTU0AKgAAAAgABAEaAAUAAAABAAAAPgEbAAUAAAABAAAARgEoAAMAAAABAAIAAIdpAAQAAAABAAAATgAAAAAAAACQAAAAAQAAAJAAAAABAAOShgAHAAAAEgAAAHigAgAEAAAAAQAAAXKgAwAEAAAAAQAAAUoAAAAAQVNDSUkAAABTY3JlZW5zaG90UQUSngAAAAlwSFlzAAAWJQAAFiUBSVIk8AAAAdZpVFh0WE1MOmNvbS5hZG9iZS54bXAAAAAAADx4OnhtcG1ldGEgeG1sbnM6eD0iYWRvYmU6bnM6bWV0YS8iIHg6eG1wdGs9IlhNUCBDb3JlIDYuMC4wIj4KICAgPHJkZjpSREYgeG1sbnM6cmRmPSJodHRwOi8vd3d3LnczLm9yZy8xOTk5LzAyLzIyLXJkZi1zeW50YXgtbnMjIj4KICAgICAgPHJkZjpEZXNjcmlwdGlvbiByZGY6YWJvdXQ9IiIKICAgICAgICAgICAgeG1sbnM6ZXhpZj0iaHR0cDovL25zLmFkb2JlLmNvbS9leGlmLzEuMC8iPgogICAgICAgICA8ZXhpZjpQaXhlbFlEaW1lbnNpb24+MzMwPC9leGlmOlBpeGVsWURpbWVuc2lvbj4KICAgICAgICAgPGV4aWY6UGl4ZWxYRGltZW5zaW9uPjM3MDwvZXhpZjpQaXhlbFhEaW1lbnNpb24+CiAgICAgICAgIDxleGlmOlVzZXJDb21tZW50PlNjcmVlbnNob3Q8L2V4aWY6VXNlckNvbW1lbnQ+CiAgICAgIDwvcmRmOkRlc2NyaXB0aW9uPgogICA8L3JkZjpSREY+CjwveDp4bXBtZXRhPgojtubLAAAAHGlET1QAAAACAAAAAAAAAKUAAAAoAAAApQAAAKUAAG+L1XdYDgAAQABJREFUeAHsvel3XMeR9hmoBYUdJEiKFPdFlKjdlmRZXiTbrW53t93tXt5z5pyZD/Mnzbf5OvNh3nNm5kyfHr/T3W53v14pUZtla7O1r9x3Yt+qAMzzi7yJKoAAiaq6VSgQN8mLu9RdIiMzn4yMiIzsWlKyLGUcyDiQcSDjwJblQFcG5Fu27DLCMw5kHMg44BzIgDyrCBkHMg5kHNjiHMiAfIsXYEZ+xoGMAxkHMiDP6kDGgYwDGQe2OAcyIN/iBZiRn3Eg40DGgQzIszqQcSDjQMaBLc6BDMi3eAFm5GccyDiQcSAD8qwOZBzIOJBxYItzIAPyLV6AGfkZBzIOZBzIgDyrA/ckB5iw3NXVdU/mLctUxoHVHMiAfDVHsvMtz4HFxUVjy+Vyvm35DGUZyDhwFw5kQH4XBmU/bz4HlgTKS0uLZosKC8TxwoItLWpbCNc51w26pnt0vKjfFrTPFYpWKBZNaO7SeVc+bzow9r7ldM5x8vvm5zSjIONAYxzIgLwxvmVPtZEDC+V5W5ibs6VKxZa0r8xM2cLMtC3NzmqvTfsl3bM4X7bF2Wlb1H0mzM/19Fi+p9e6BOa5UknHbL2W69X13n7L9/VZV0nn/AagZ6qYNpZq9qk0OZABeZrczN6VCgeQthcB6XmBs4C7PDlhFW0LE+O2MD5u5YlRW9D54vS0QHwmAXKBfFlAXhbg63lSrlCyru5ul7hzAvN8f58DeK6/3wqDw1YY0rZjp+V13D00qN/0u0AdSb6rUEglL9lLMg60gwMZkLeDy9k36uLA4vyczd28YfPaKmO3bO76dZu/etXmrly2+etXbEHXFyfHbUmS+aLAfkHgjQTuqTYqM7ZOXV8qA+w5Kw5I+u7rN5M0Xtg5om2Pde/bZ6V991vvwQPWvfs+K+3aYwXdA6hnKePAVuFABuRbpaTucTorU5NWHh+zeYF1AOxrVr5108pjNyWJT0oClzQ+Ial8elJS+qyZAHypUl7Wl6/HHsd16dJNoJ4rSjovStJG1dItyVtqlfyAQHtohxV2jVj3zt1W3LVLgD9sRUnqPcdOWEngntMzXV259T6RXc84sOkcyIB804tgGxGAQdJFZOXZjZMyWKIOESjPXb1ss5cu2MSHH9jMF59b5eZ1SeOoUMbNpP/uwoi5gO5bboVutMyFdzXKPoylGEdJ+YL05pLWB4cE4MOWG9hh3SN7bOdz37G+B09ZsX/AVS5ddAQyjGIw9U2PZnp152D2Z5M5kAH5JhfAdvr8oiToBRkkkaRRn5RHb9nsl5/b5Htv29xlqU0E3osyYi7OzUji1j1I3ALxJXmrdMlrJSxmJV1JGtIxojobCXDOy7NFevGwIbH3WGF4p3Xft896Dh+1vuMnrPf4A9KtD7nBFKm+Sx1AZiQNLMz+bi4HMiDfXP7fs18HdN1lEBdBvE4kdVcmpT6ZGLPFqamg+756xaY/+dAm337T5m9I7y3jZa5bIIoqIycViCRfl+DbxSU6C9QwyaiBkUJO+vTSkWPWd/JBG0A6H5H6Zecu6xKgFwYGrCjPF1Q2rrZJXBnbRW72nYwDkQMZkEdOZPtUOYAf94LUJkvyKqlI8p4TaM9evmhzF7VdviBd+CWrXL8qo+WkWUXeKQC+nrGc/LxrVBepErWRl0UpXfe66kXSOh4vObku5kqS0nfvteJ9+63n4GErHThoPft0PrLLuodHZCCVzl33ZCnjQLs5kAF5uzl+j38vGi3LMkxW5C5YwftEgD13+ZKVr1+T+uSaLdy6FfTfukdoKfDrTqTvDmROHFkwEQla++WmOLTTinvus27f9kr9ouNd2vCEGZbhFPWLJPW8/Ni7mHSUpYwDLeZABuQtZvB2e/3MhXM29fknNivJe/biBZvVeUWeKJVbV30yD5N6fCal3EgEja7FwKNky6QE0PFi6VIHlBsUcKNukS69tFeS+v4D1n/0uJX277eSrufkx56ljAOt5kAG5K3m8D38fjdeasLOglwHcRmc+fILm7tw3mavXHAd+IJUKhVJ3YvT8vfWfdKfuASOsRL1SWJqXIND+kUGzmDcxLbJ/U16qazxldpLsS9Zn6bkblQvksw9SdpmwlGO2aI9ksBxZWRyEQbS/QetV7r10v0HrGfv/VK79LjLY+03s+OMA2lxIAPytDh5D7/HATUBMI9vIjdAJOuyABrf77Im6Ux+9IGNvfGala+h99ZkHXml4J3iSaDtLoMbEb3xHkFHTkKtId25nvZriwAodJDiPeGszr+AcfKIv6dLqnl1LPpseD2/xxs28Gqk9GQ2KR4wOalfkNB7HzhlAw89bAMnT8mdUWoXqVzwiskxa9RDAshbBpsAfGkqPxugMbvlnuZABuT3dPE2nzmMlosYIfE8EXAz2xKwRgKfPf+lzV+66GC+MDZmlfHR4C7I/fhos5EAqbsBld+7ZPldu8O0+eFhN37y3kWm5mtSEC6LdA4uoeMy2Ij+mc4B0AV8dezuhj5BqMeWBKpOs4y0VpGf+TLah2ys+xfQj8CvfDpYy+iZ0+zQHD7ofQPWvZcZpJLOjxy1HknpRQF7Xr9hQM3jqaOwAFnKONAoBzIgb5Rz9/hzqEKIY1LWvkKAKoFp+cY1m9OknaD7Pm/z57/S1PnL8v3WTEsBWa4UfKvdL7te/iRAXpABsSi1RP+pRz3IVWV01OavaZanOo8QXyXM7Fwqh9gqdBBhkg4fFBCvlUSbjyr4Bmoa3BtRiWh2Z14qkRzBszQtHx928rikvc3Jf/1unc9a39I1l7D1rQV54yzRIWgrqIPqlg69V/7oPYeOSJ9+v6T0XZbfscOKmllaHBh018suAbpL7A1+ex2Sssv3OAcyIL/HC7jR7M0KoGfOfakp8uM2r6nycxcE2hfPW/nSJenEJSHPzEj6ZnJPnCEp6RYp2bF0HUC9AzH+hATbru6CdQvo9v7D/+igh648er2EmCsaCUCLvGAqir/SJSka3/M423OtT3jYW6mC3C/c1R7yMFF8ldJ99we/cIEp+u3pzz+10TO/tQXFd7FZ6fSl5tEH1nrlxq5JFeSCOhOakglHHnmxT6At75Zufb90v3Tph4/InfGg+6d3axIS/ulBFbWxz2R3ZRzIgDyrA646WUR1wkQd6bcr4xM2+9UXNvXpB1bRtQWdl2/JbXBUcU80bX4RaVjqCXetS0lyjNDPu4t799qev/lHG/r6sw5yPjKQ4XRBPufzN65rKv85qXXO2dzZs3JvvCbD6s3gg+5SfW2BIq3rzZK+UWMU5SJY3CN3QQXK6t6jDZ9wqXDwE69MTdj4H35n13/+L0Ei17tCxxQpq31vA8d6n0+Q0qNdefzSpVKRYTS/U7NHCdalPCOll/btd8m9KFfG4qAAP5lB2sAXs0e2EQcyIN9Ghb1eVisKGVsWkM0JHGfOfmnTX3yuGZcf2Own77vEjd6Y1XYQt93guN6Lmr0u8bUypdmdmk05+MyzNvLdH9ieF//SpWUXbSWxI1WXpYuflW5+Sl4y4394XTNDf+dqFyYf1SY6GlQV+d27FQDrAb3ve9anfVFSbw5Vhr5TkOERf/fx996xm6d/aTd+9v85+ONl0sokBY+re5aWpK9HPaTwud2aYFQ6csL6Tz5i/SdOalNIACIxyismSxkH7sSBDMjvxJ177Df0xL4MmoyGuAyWNS2+LAkXKXdeumFUGPPXrkgffcVnYyJ9u6sdKg9UDBJOddjSxOIQGDELMgYOPf1N2/uTf7ReqVq6NS2exGxLoh8yUiiLvtnzZ21GuvryzavynlE+FK8FTxd030i13fLlRg/dfd9egfgJfw+6cY9Tjj5aHdSsOq8r/+2fXCKf+ewTfV9ZxbOkhQk5P3gDJQZh5Tkn9U6ByUaS0JHSuxk9MOmI0LrSp2MgRZ/OAhmZcbSFhbMFX50B+RYstHpI9mnmDOvlMrgonXYZiVYAWEEHjvT9+WeadSnPkyuK8y3d9yJhYpFsJSUSP2QzEjrtBcVd6T/1mO3+27+3oSeesoEHHlpT1bGgTqkiY+vctYvyoDlv05LSlyqLcvXbqRjjmkIvKdc9R6TKKMhDZIXumY5NuvPJ99+1c//r/2LTn36sbIf4Lq3usG7jq2hxdZV+IM4MErrJ66VbqpaS+6QfVX4IC3DIRxRFLY7hHjcK3OUqIIy4Kam5bqMtu9DxHMiAvOOLqDkCAcSy9N5zAmpcBueuKtbJFQG3Zl2Wb2nhBum/lyTh4trHhJ3oJ4747QDR3OcbeprOB0MqBsm+x5+0keeetx3aCoSalTRdm1xCp5NS54MBFs8WJF06oTxqCYFhADypWdx3u6rzpnObkYoG3fjl//q/u3RPTBVGHpuSRLcnVC0AMyAt/T6gnhdw52UgLUo6L+2jgzqsSUfSpys8QH5AAbyYlMS9GZhvStFt9kczIN/sEkjx+w6AkmZDmFgZL6X7ngfAL0j9gNugtjnNuiwrgFUFNzu5FvLMskSHX/ZmAUEEMfiRSKd5GSK7JYGOvPCi7fr+DyWJajq8wDmNBNgvqAMbVwjd0dfP2M2f/6vHgsn3SR+9WTyoyVjoS2STIJSvOhySu0zK64aZo6X9h1xCZ8RBh1fEvVGqJF8wg7jpdFrqDLK0PTiQAfk9VM5RzcDEHAJUzVy4YNMf/cmm331L0qq8TxTn2xcplmeIT3wBMLUtS3GbCWBI4RoRLCfR5bptAfnO73zfRp7/c8Uu2SWVyeDyLc0cMNGpLC+YG7/6Dxt95bRNvfcHzUidCBL/ZvJhdaaSMuIywOxGZ+nvGWUw2iBmeun4g9aLcfSBB1yfXtyhWaRI6KhnsrQtOJAB+RYuZqbJI3UTcdAjDWLAlP4bg+WcVAZs5QvnfOKO68iTGCEO3C6tbZIOAXByvb2AG0NqXnTI8MhEnQLLrg0reqBc8zw8rHytBx9+zAYeecIKzJKUrjuNVJHqZl7eKjd+8e82+upLNvvRH+VaqdWI0KvIZdH9vjVCgVdt15ffIYOiTJ1v6PRyGEilairIKFqULr3n0KEgreNWKQmdEQxul4TXZZYpUnrwPrrDB7KftiQHMiDfksUWiEYnPCcvDXyqccVzDxRCxmrCTFnGTIJWCTEV1qMoMOJfZ6QwQUerBc3OiyD02Yo/Ikm7sGOX9Uiy7DtxwvoIOKWZkEXF+Wb9zG6teJ+myqMitdK8Ri63Xv61jb3+is28/446wOuiaU70CMBFU74o7xbpqTuHcyvLD1BHDbWoGaTyo/SFpYu79lpB8dJ7D0mHfvCQR2PEb74ocC9g8G2xN85KCrOzdnEgA/J2cbrJ7xDvBH0pCxLPy80uuA3KZVBT1wlahSoFyZxVdhbkE44qBR04Mjf+1JsK4q4ekJsdRIgg1r4kYiBSN26Gpfu0mv1ugY0ky9LuPS5NelxvSZNInCzWkHY4WOendOQzsh/MnZMN4awiN8qeMH9TERtvab1QdYIE/wpLzwkoJZl3AfCMZJqZ7dlkPVj9eJd4uohKCvoAc1QqqFyIia7Oj06wIANpt4cEkB5d6ikmH0V9+govntUvz863DAcyIO/Qogo+xpIFMV5q1mUF7xOpAmbPfWXTX31hM9rm8DzBaCngNknnNGh3YdMQupPAxiVpAU2uICBklqVieBMci1V2mJ7ee/SowOWAz7TERZDZjO1MxJWZo4PUlP9ZefTMfPWlA3tZ7owVOslRecIsVpz+dtLV0LdqbQ3qcOgAc8RyYeGLxJVx4MEHfcTDxCjULrWLSrvaTWWVpa3FgQzIO7C8YsRB3AIrWk3H/b0/+9hmtL5lWdPRK+PEOlEgK/0e4p3IeMlSaa4Dl4jmDbFzGmOOtS01tC9pqN935Igkb02PH9EkFwFJcVA6XP2eL0mS1NDfZ2O6/r59BUPnt6ggWRiLF9UhMrJhwlRFIQnmtCQdC2Wwr9wkRIE2uWx2bNLoB3WLJ6R09PzqQM1HQSxX1yu+yxtIE476Tj5svZrpyoSrPOEAxP8892Xql44t3vUIy4B8Pc608Xow/IUJO8Q8qUwr6iBgQrAquQxOffqRzWibE5CziDHSoa9QQyPV5qrSNtJb76cY2pdOPOQr0fcfP+7SIUZNV5kINJbdH+mA2DA2+kxS9jUdkgCeez3PxFBRxsN5Om52jILiSAivHmK8MFN06otPPIAYIQxYOKOsgF2Ls9MeLoCgXsvAWS9j2nC/OCT6gnHU65nyBc8wgpZOSDI/LpuEwLykMLsFgTsBuwpSzfhi0sR5ScpnRTm0ge7sE/VxIAPy+vjVkruZcYkUSJTBsoBj7oqG+FqgePbLz6U+0VJpN7RYAxI4boMubSFxJQBXC3Qtoa75l+Ln3PvYE5oyv8cBhOnlridH+gMsGP4DGNowfGJozBU0qxSdtAy1IYthpqn7SWvSDjFU5IKhWN7Soev5NBLhCyryBDKpsxSDVvgnAJRdgjjsFYzKmgE7rTKZ+ULlotAAXDN1rL6akRsA0qCiRe9IpHQMtw7uYiqSek6qlYKiMeLC2HfqER8pde8iHIBcPaVfR1JHSs+jrstSx3IgA/JNKhp3GZRuuzJJdMExxTqRt4kMl268VOwTjJnE4K4opCogLgR3D4pNIrfhz9Ld5OVOWNBiChjimH4ekoBE4BBAHRAPcbi7APa4Ae7MbtR9vgnc0fnm5R+d08QdlyplxGMpNX/PHcAGUGb2KkG3fIEKbA9sAm6m6S8tlD2EAdEXucfUufrvuo6NAuNxZWJMOnTNjlUo37JcOyuaGdvlIyTgMVFnNMyp6oOhixZ/EKYZJVR/Su+I98aJRuIxhuYiC14IvIuKa1MckfsihmeuDw355gG8cGPE1tFBBt/0mLJ135QB+SaV3bQkbYI9zZ5ngWKtc3lREt5VVppX0CekbwFEUJuE2B+bRGbTn3XpTzpoFlkIo4lkJMGbORQguB7XwVoqEoE1krmh13XVkYBc4N3FohVdALrOdYxXS7e8L4Yf/7oNP/mMT45BVbNeQmWFsbisjpFtUW6GvniG1FgLUpMA1EzzX5wRoMv2wKxP9tyzOK/YM1JnQf+i/PYXFNuFVYuWZIDuohNwsE0PbsURtEvaumxB72ZrdQLU2YgImdfsUQzSBQUawyDNgtKEAygR60XAjhtjTuWQpc7hQAbkbSgLjJcYJ1npxqfLf/W5Rxosa9m0iqTxBYyXuLoJSJYEFItarMEXKmb4q63ZZuxg2lQ+G5cKwWoHOtQVa+UEsdPzKfhCykM/LpUJ11Cd+B4ecN3DEmqPSgB1jNQCw9/4rs/8xG8al7rbEuArsEUtcuvV0x5PZVEjobhyj0voFYE1U+F1H0u8+TJvoncRiVXnS4uKyJiAKdd41nS/38t1bc2WUaQb0J6T4bqiEQTHfcpr6Q4jjfhcs3tGLNQ5RkaMiHLdYak6j/EiibyAq6hULhhJe/Yf8kWle/cfDJONUlJtNZuH7fx8BuRplj4NWhuGMp99pwYPiJQxmmmizsynn9jEH9+2ibfeDAsU43UCwLm3CZgldzFJOsBCw8DA92sS8AeYOiDW7v2YP3dJyeuqUqcurPxEeAHA20Ti6YTS294S3Sprf3D9tXg39JyAXHFYhp/4mvUdPuo8XM6rHoBuYq1PfvBHu/Bf/zeb/fgD66qxNeBPHhd8qH3/3Y7d/5qOp8EUWej1Re/gnKKbE5hOir4ZdRgzqj8jAslBrYCUxx4Ah8Qo55UOmuP4nQn3t6teememb/tISKoxJm31PvCgFpV+xAYfedRD7TKD1FVfPoKiMw4dcGYgvTOP0/w1A/IUuQkoMyRH+iZedgWvE/kmT3/xqVwINdsSv2SG9TJsopMl0qC33gi+NE5tsZFvlLTQoPWcQGA1KC03doGOgw9eLkh4jN1BBaUgASegJFpcOotUIKlBJx0O76eTir/VEgjtvLuJtEzrqnc42EUeJb+5y6Ck4tLh49b78KN234t/ZUNSs6DHddVMvE90z1w+rwiHb9rl/+v/8NjjBUmcYT1O5YT3rnr3qs/ffgqhzrv1KL79kdorfDOqTBb0+UWdV7TNidZZ6NU2LtXamLZugWKvVE0jMvAOSlou6rykZeO4nhcNqF8cdPWBNcul9sONHLuQoXzyHdRfGKhlnygMSELfucP6H3zU+hU+ochyeUOanSu1jNtCmA+g+zMjaSNMr/+ZDMjr59mKJzCcLUiPij83ixSX5feN/7Gvc6nh/NzFi1o27TNfbb6iOCg0fY8XooN6AXvFh9XwHYQEsoA/sUEcoLX34TGGQjZiWycNEG+QENNEHh9usEqACL2z9M8hCahRKej9JFcjYPiTjtkwBLoKgk4IVYSAXSMO9M9B3aDzJFc0YpfMwktT/+udlr7dpfCuhZH7bPdf/JXtePY71q+p/QWt/hMTtE188K7deu2MXf+Xn3rkx4KeoSCa4n/8wAb3fIvywltxQeBY1gHqEwA8gvqMOkrUKvPiKyB+Q/WK3wDr3QC5OqBelVuveNurMgPQS+o8C8ug7tny+sC30s6f1xbyQB3QHgGgVy6MvaceU7AuGUg9AiPeLiPWpZmlRbk4FonzIs8iV9fofjqELKXPgQzIm+QpsU7mFBa2rCndc9KBz2q6t8f7liqlwvR5eZ/kkH5pWOhX9T2XgJv6Lu8KrnGLc2V/X65HkhJBkjTJpqD41CxlVhgiHre2HjZWi1ejwiNEQ3VfNAK6lFDnMHQmIXH7cDpR9yxpxR43CjJzFAOhAGZhWt428uBgjc+FCR2P6VgjDaa1u55Zr43R99KHEycTSp2nvn7oUs4Gvv60DT/7bV8arlfGuZgwWF4//Qu78dJvbeLVl90mUejvawug1ErKADLAPc+msotALuWbwFpSuQhGMue+sn6fUAd0U5OUZgXqZT0DWLN1Cwv7JJkPqFMeUFkC7v3qsPsE7t0C9gjqvIf3tST5e70mC6BVd6T+ycuFMY/Hy577fTUmvF169rEOqUIvaB5BUeECCgA6HXyWUudABuR1shQgK8tASZTBBabMa0o3s/5YNi3EQNEixQCb9LIsFrwoH2Tc5TDQNdWsaDw0Tg27UXUggeN+V9AsyYKGtSzUS0Ni8QFfUEEqhnxfn3tzFATmSEUGiCOJ+4YUHoDcvUaQlpRckuMbCbVB4lYHJEDnmI2FiisK+cosSPexFj9QGQHkGG995qlc88g/iY4LiawVSl2WhmM0UNSSaH0a4t//X/4H19+6VC4ALIvOq//+U7v58m9s5qMPPRYNS6W1SjIMHAWUkbyDysQlb9GC9M1xWXt+i2BLvYh1A/AFuCdVzxzIHfQpD9jXJV1517J6BakcCb0vAXKMokjrnCOtA+p6nVILu1PUbaovLnVLneKLXGjmqM/alYRe3KP4LprVy5J7LFPnUru8YfLUxUw6p3BSSRmQ18lGwsVOarr81OefhmXSBOLz1y7botQpiwIugI4KSojR0EBjE63zQ6tvV+NGol+QlMY3AOlerUE5/PyLilVyXG5hmmzDVPc+BZpSQw5qFkXwk7SEdOxJKBOlxNWvv9s5AB+Txz3XsN8nzUjtgp97RR3WgpaJm7lwTpNmPpP0+4pNf/iBP5IviQYWhABYliErvi2FvWirTM1osYUDtu9/+p9t+JlvWv+ho+4Xzojp0v/7f9vomdO2IF99d+tMRh8pfHnFK+BtBHJAe0blhL4bqZqx2ILK0CXvFU+tPFkN5C65J6OjlXeGfpG61i1w71Z9A8h3iNe71WnvUmc1pJEX7/PJp63g+2qC9C1UXtFo3yW1iklS98lFzO5VrJeBhx+xoWeek9olLHy9+hXZeWMcyIB8Db65ekGNMHqUIH0SdXD6MxktNbNvVmDFMmkYLZFKF7VgAxt6cm81AKaMi1XoW+MjG7kEeKtxkFgkICeQLmryCw2ijxCl8uvtPqDYJTuGgxuYDFFBL57oIhMDZ9qxM+CLq19ACMAJnSnXpA6oyI0SqXz+gmwDgLqiCs5rlir+8Yv4aqsDcAldANQ0fyIPAStJsET7G3z6OS0L910b+e73bE7APa1O95pW/5l65y3RKpDhq+JLmimAZQBMjtFzY7Sc1/cAcIoQAPfRDvs7fLweIOc1dBzo0DF8skVjKOoWvF12KhQvEnpBYB+Mo+H+YCQNhNyJnnBHHX9VHyDKXUn1XbfXqGPJYfzESCr9OYtKDzz8uLZHHeQZTeJO2qyxvA4q77lbMyCPRarW5h4ZanyuPtFkjxDCVMulsVDx+XM29rtXbOqDP2nK/E21xgWpTFT5JN0F6bsFsqZoAXTQaTO9ndmRg1IfDDymRqDFiAn52skJFdTYO7/Tcmrvyv1PfPMY6TdCZ0cnAMillQEBJ6qjvPg0/M1v231/+4/qSL6y8T++ZeMvaeEIjRI80h+jlSaT00x90XvYXIUiAEN6Ri0yLSEgAHkwRKPi2GiqF8hXvzc+X1C9wQf9wEC/7VI97ZXEXpS6BaDH48V16UJcYX96ZbCKGDoZxijue6+6HDyNtC/LbfRbz9vI9160vqOKO6963Y1akJm/KZTPKjK2xWkG5Ekxu/eJZuyVJ6X/VpQ7X99SYWJnL553IK/IjbAyMeo6b1QbJDdaqiUwvE0NkHhveDuik+u9S0cfsH4B98BDD0salzFJEk1RahSknE5OPptSenOf1i7pfOqTj23y4/etokBgHqckyWkacK6KLJfCnC0KzPFz3vHstxT24LpC0mry1RefqfO97q5zjRiag8IkUBn12q7jFnCjQgG855HAE28UyiQaLx3MQMsNpgjEUUd+J9XKeq/kHWzQvaxDT3TpGEgxjOLSiD4dAynSeehqoDON0qhS5m8ULQxL/M3i2ZK24giGUU0uOvKA9am8Bh95XAtKa4UjxafPJPMq/zZ6tO2B3IMiabg/r1mW84rtjeESr5NZrXdJvO95ATmhZJl56R4fGGmQsOponBstjHifN341srxCvZYOH7OBrz1tgwLx/gdOhsh0GC63UGI5OqTz6c80IerDP9nU++/YrELDuk0B18YUeBkgSJMtBaoY1HqPHHXVV1kLRSzSAauTrrfceCcJHMKxMkrelRoAj8CLNwqAzj1M3gEcG0nxfc0AOd9dEI3QQkKtEg2hADiSuqteVJd7AHPRi6TOFtUvaQomTsSqP+7BJfqKWsqvR4LKjm9805fzG9AKUagRG+lwV31iW51ueyAn/sac1ric+uQjSYsfyX3wSysLyBfkXsd0+drp2m5lp4E22EjrqVlMP+9/4hs2KLe6QQF5j1ZOx0Dka0mmrOOth65G7nWVlSRWwJzOcvSNMzb+9ps2K57j4eOG2UZevMYzAJBP4We0grpFhkb09wzr6y03QI3ERJ05gfSsdN90FIAk0jdAyfd8i8faez3xJ+v/kxaQ+5cjGlNl9c9lYl1DCu/RhnTuwC714IAAHp06e36Leas/Bxt8wvklYsTjgkIr9D/2lO145lu249vf0WhTqxtJZ56ljXNg2wI5jZt408y4HP/jOzZNzG/NwGQyDz7SJu8QRLEoGcQ2sXHWNnCnvsc3c/JzZkWXHS+8aENPfVMxox/wONFbfZYcqhbWGZ340zs29vbvbezVlzRR6oJ1CRgDJDbAszs8EmA4ANgdbrvtJ8CU8kbydrVJIm0jdfObugQHOo7TTqkC+SriMLb6iEHgySLMRe2RxrtRtWjrkaS+W9LwTo34UMkUJcmnn8NaosRnjchYeKTn5KNupN714g+tWy60rBSVpY1zYNsCOd4TuKYxdfvqf/ybVpr/UnrUay7xCr03zsE07xRQMOQs3q8V0RXwf88Pf2xDTzztkynavfxZmtmqfRfS+YzUVZMfvGdXf/ZTrXr0kXVpolHw6GgtbNTScadj13uro5+QUQ73QaTvVoD2WjS0EshXfE+sppOqzRfqoP0SItgOKFwtk45a0cHW0kF9Z41RQi0MP/e87fnRT2T4zIC8lkcbOd62QM4wf+LD921UU7dv/uo/XZXStSgjpipzvUPwjTB6Q/ckQF46esKnPe/5sx9Kb/h4olJp3ttiQzS0+iZJhayPOf3ph3bpv/2TTb//ri0p+qPHiNmsDjTJM9IqqhOCVUV1yryuAXbt6mJaCeQrJHLxGok7qFkwfKJuyduIJPJhqTXQobdSIg+jJQ1Ame0sNeLSwWO281sv2MEf/8RK8mDJJPL6GuK2BHIqNB4NN189Y7de/o2NvfRrapQm0yQTZ+rjYXp3J0Dew7Jojz5pu77/ojxV5GuryT/3zNRm8R67BIHEmKgzqWiQi/ISkhJbXjqbO30bCRUfcNwHkcQBdrxPAogLzHXQakBvFZADnNDP+3FDjDpyn+Yv4B4ScKMfR6WCuqXlOvKEnormIFQU33zx0DHb9e3v2fG/+TvryYC8bkzZlkBOfPDZ69ds7I1XbfSVl2z81d9I6akh3mZ7gyRAXtx3UKqVB233nyui35Nf96Gmx0apu3g77wEkb2KDT8p75eq//LPNKKzskjxKAPI0vFeayTEgJ7W4XAoxaqqzV3lETxT2rorQB1oJ5mkDOSMMVCZ4rSBxxyn8/VKbDDpwY9xEHy7fct1HCAB3pwX1W5QwvIZOU1EetajHnPThvccfsoPPf99O/u0/ZEDeAN+3JZCzLuO0AlrdfP1VG3v9ZZt6/be+0ktes+A2NQFmanh5BfHv3nvARn7worxWvmF9WuWciH1b3b/WJ4TIuDX50fsydr5po7/5ha99SewY4LF10FF/qUJLCG4VvFNCsKsgpdcaO9OmOS0gB4yx9OB5E6Vv1CX98lTpk5cK4I0bogfa0j34tYTU2nKgoySPjHrYRmcV7rnUZztPPmKHX/iBPfSTDMiTgqhrt22BfFIRC89JtTL2mjwn3jhtRYFJqRMs5arkqFEI+tT31DMC8mdtWGDOLM6trjckVntF8WhuSJ2FbWLmo/dsQT76xGDpxIRQCqwB1u47rk42TgAijgouiVXVSzo5SAvImbmJ3hudt+u98Rl3TxR8xeXnLnIBezA8Qng6ObjzW1BdTYl3k3ToUquU5clEfKAMyO/Mt7v9um2BfEJAfvaVM3btld/a+JlfW4+a64CMLnFSRKzcaUtcdysQfmfoyWryLIbbo1lvQ1971vpOaAacYqt4zAo1yq2UAoBPaJbsBbl7fmHjb/1OoQ40w5MgVgTf6lAgr+UxABu24HoYjaEAfNClhz3HpEbrTT1AHjx9mAAsX+wEuOPkHvzDkcCHVVfYc87EIO4Ndbt+t8xafqx3HNsNv7v0LU7gdx87QEIXTEuN6fzTMXF6ilqMIgPy9Ti6sevbHsjPnf61XdQQfyC3ZDsH5HKlCo8+URFOvDG2dqC5diHR1Pg6IWvzO3fKg+UJG376WVn1vyN9+YjULANrP9ihV+cV4nb6qy+kTvmdjb35mpXPnxOIawV68XnTPIQa5FUoG4GUygcQjzFV0Pn6NH3tUb20A8h9cpI6DoQPXAV3a0TJpB5WEiIK4qCuRdhuVz2O/IG92BpQScUgYlMC8OARpBg0+j3XpTqeATmsajplQH46AHleroe9vYoUh/5QQ9BgAAqSThj4t0aCWa8EqegYBokel9OyWt2KsdJ35Kj1HDtuPYeP+iK4RS0iwWpDrB6/6YbaJCOLGjITt6aikLa+2IZCHUwrYuS0/MXnryjkwY0rWn1ekSIVRzyM62tluPW40VnXvWy8fIJ07hK5ABWpE3ANhlF552A01bUopW8kF+tJ5Ei1pNp45KwOhPqkT4CN98lAvug6b4CdeOTsI3cb7Vg2QjP3RJ5APx0cPJjVRueGCgoJnLgxkVdRpROAPFOtbJTP692XAXkC5AtlhVeVFINhyC37AnRcsQB1DEYsfLvcKtbjZguuE6CL2ZBEWSR6X89DD1nvg6e0pNkJrcCy31cEYvV4oscx1Z3woT4bVcNoJ5ihNK0mzaTGyrDe5U6O1Uh9xSI1WOK1z4/eUOCx6wo8Ju8URT2c/kihDzRzltXoWVEmp84prkiUJlmb8a5aCRSpF7xlAWWm8wNebjCV/M515xj8ugOh6wE57KYYAWg3WoqHw5K+UZ3EJeACcIey5it3+s4dSKj7J/+O/kA7EjijFPI+kxzDA2Kxk9wIu1wfo0SeAXndTF/1QAbkp4NEvliZl/5ZYVBVyeKGvrGkrQcdo0CScySimMKwtcUNhoavCSq0YuKKM32flYFyBObXiiv5kV3Wr3UTBx99whe9JUYLqpewlJtURGroacetQIpaUPxvYpETdKw8PioAn/Sl36YVDGtKroUVXVvwbVwBx7SakBZ+ULP1fNQbvCryu5X7UJbxC/WVaawRETij1MnejaSSzFEvBEk9SOkB1uL3qvu1gBxqUJMA2CwWQXxxwtJGl0IPSSsi3HiZvCrSUn1za46gl3ySvyh5s3fwTn7jntDxiwbV48gvurZMIk+nXDIgrwFy4ouHFJoBgI5vLYYiVC1sgDkGowj2OlyumK1sPKHyS70jaQ8XRRJrJeaGhqRqOWb9ct8qsIq5FlcoSjrPy4DkK54rT/neHnddBEBZjBnjYhcdkkvv1WYV8h7+EmqUGSQ+41LHS1I9IXUD3sSoYZQAiLNYxPz1q4oeeVPL32npu6++sJnPJX3zO2CvxLei62QreRQor/kr+oMcHHbKBWJjABV+ggUqQKcPPw74IonXn+LZuNW8st7DCHTBfTHq0QV++gobn3CgS14M4AGMuOZNSU1Foq7tkPfJDi0cgi48qk2IOU5d9Hwlz7dqRy1xvmgPvTFfUY2CBI4qBRBHvcT1u6cMyO/Oo43dkQH56apEXgXywDyvuKq0gDlSDw2opMZTkrqF4+ghQIMihYq+kQoc3t/wX9HkyTEYNNL3tRVkGPVt116tmRjW7sxpya+cdP++wpAmPOW7tQiz9gTwxzMGVcdaiVHAUrkiiUmbXMQW51kFaVYRITUTTy6EZaJDzs/62qQVhf4l1C9SOWoW/XGAXH5vpHP5QpsOajo9EJMOcJF8KU9eWKKLUY6vYQqIwxeNaAB7IicyfZyOq9nkpaU/gJ8bRfXOCHi+GEWiS+c7sIotgiW+3qzN6etwSgr3CTvJjc5WjlucAk2hw1iWvsUfpHDvoDTSmhNfyUukKXQu1bNAYjyPBGdAHjnR7D4D8g0AuVdkgXmU0JdBXBI6qhe2MLyVdKebY3VN4LbZMlr/ecBJIBBBN6ep/HmpXnK9Uq2w2ko3QC19NICN9F7QpklPeIuwOYjp97USYAeIB/03oD7nw2CMlIsK78sSdx4ng+sTyULMihjpUj/fE0+cGWu9vMlr8NeH6kn+XaytfacXAmUROjgVnBuNHagBbo1K4AvLi+W0gg7ribI6DRI5ADovN8k56fdNHZXBg9p3N3gc64SrW/QNl1q1x4gZjIBBjw7pCA7qVvxLqE+iBI70HVLrZfDql0Kn4qF7kw4oGjABcfLjeVI+4J2z3mmHa/EtCdm37TIgv40lDV7IgPwOQL6ap1RYQIMQoDQ2Ylagq+wpBAOpe7oIPGKDoyq3vslVqRRcmQpUQqRAGIlSEmkEOQdvgC02LrUx1B05VC1rtDcAnPd4ciSj09C2+p28QxKjXta2vJJPJOXaJcSqXBAposXzi4Qtjx5XMQmsCzt3yTisyHpDA1YYHHJVVPfIfWGFd7l1ElIVQ+0twjZoWT+bnhKYq+NKBcprKVx5HEEddQQaL+oRQoPnM7mVeuTFsPLRlp3Fb/NV9N3EnkHVw2SeMJoIAE5dD2ajWIkilfH8TiRmQH4n7tTzWwbkp9dXraxmZDTYuF5V9ZRKjDcLja4oqa9bAOKuXwI3pCikdCZhtDPxNZfSBQoBxJOGBTBoW5EAvNXXkhuCxLtSrUA/tvKdyfP+Hv204uUbPwE0As0rv7f6DUHHL99zSfxhMd8BV4egIjKNPjD0dku9VBwUWGMjAMgZkXQLzAXoBB/LyV3TF/r167IfSBJn9IIL56xio4//6T0bffW0Tf7+TXVQ8KzxfK2mf71zJFl45xKt9qwwREnVllajvF3vm+tdhwYEFkYJrjZRh+kSuMA8xqDhdzo37Zw/EfTXe+f61zMgX5839f2SAXkdQF5t0rGJqSKqMgN6DuoCbfTmeLig13T3RR0DBssNUyfx6fqKagveTUtfkWrPYQpAGTZudcMqICY+unE0OUbadxAXT/GrN3znJVmz+EZeoQxQjXT1FCVhD1mvZsMWd+2RwXeXe+y4m6OMhAB6AbUKhbEq+ehDvu8TAvFrv/6FTb71pk1rbVHcPXPyErmXEyXiI60kk67DTyRw3AijL3hZ16jja/Gvcf5kQN4471Y+mQF5XUC+knkAe4QmVfHlHyXISUrH31eALvBwNYxAifjOy7p0v7s9HgfLhLXhIHBB+ao1NMInSXbwazkBzgJml44T9UeXdPjo+LtQgyj+hkvPgDZStO7BldL12pKscb0EsPMco9/WCAgDbl6LFPg9gLd4Tmfh4XG1RyW2VsL3feqLz+3Wqy/bjf/+b7agBaMXpR939cw6z6z1nq1ybbmMVB5I16hOorSN2iT6gQPqC3SwlJv+V/vA8IZqfinX1deqv65/lAH5+ryp75cMyE9vXLVyO2tXVmDOgnQTrjO5CGNVXFILnToSO14uqGAAeOp/bAI8teWSgMANogxNlABLd+EjUxxj+ESHzsgEiRrwRq0B0EraZXWYfN+gqzcA67yW/cpjfJQvPMGUkIpdMhaYu3eJJHKfzcrvksbzcsvL610NJdHOwtAzF89JL37axn73mk2++QY6M3UcDb6zIULa+xBFFVUo8+pwmTYf/N3lD67z6FGTFKnXT6TxkELdXknxWtdW3rH2WQbka/Ol/qsZkDcF5JHhtRU5SulUfF3Xf1zG0JUXpTsvCsS7dYw7Ga5lgDo6dhJviU/7hS3wB9/y4FMeDKPoqwFB3PhySNaSnHMYFvu1oK6Db2JoHASkBdzcI502OmpD4naQF9ALsAF2Ij7SMbh6xTs+1C7il3i54noDvKIDmr162Sbee8uu/PP/abNffCbjprxUKI5l4GrgxR34SBwxUr988g55V9nNysVyWsdI5vrve9fVe5UM9TL8bUWmMiBPi6sZkJ9uRiK/czFE3SOY4Dp0HQDabFW3xRATOkjq+g2Q2iIJ9Qm65+77DlhBM0yLmozkfuuStN1bpCRpWqsuAeAFSd0uWSN1Sx3SJUk6gD6qE7lKCriDMVOgLUnegVsdXR6dOAxMOeHVsyCvlPF3/2Cj8lAZO/0rK1+/7h0Jn6JTvVdSNF6iKvFAVgJwDJhlIXc0aALipGqdjdAfrrfmbwbkafE1A/IWAvndCgkNecENo3lfagspndgu6cPW3Shp7HcmChWGh23niz9SqN1nrPfocQG2QFr5QJUCGJOIrVJANQJAd0iqaHLTvNYOvfqv/2xjr562+Qvn3D/e1UAdQmNaZCCBT8h1cFoqlBl1vq77FqhX02bVuAzIq2XQ3FEG5JsI5BQdTQgJ3RfBFdC5L7pUCUGHHtwX3VuguXJuydMukQuku+/bb6Ujx63/QQX0OnLUSgcPJfptgbr01xgfC9rS9XhoLktTZ7+yqY8/tBu//rlN/fEtW5ye9tmcsfNp7u3tfZo6hEAd1CNBtI7ug9Fw6Xpvid3cg+okSuDtpXTV16BHwkD3wJCNaI3aI1oh6ORf/42WepP7KKq2LG2YAxmQbzKQh0YVGp/7oAvEAfM4o89VLgJ4wDzKs+6yt+Eibu2NUUeel1qlV8G7+k49bIPacP/DRTAv/TiqlW5Xn2DsxB1T0NMCdclGcureNJrUMvrW7+2WVima/P2rig/zuRthN4umjdC93j1ec/SHeoSaJPp3M4GHVYwmteGVwnWUJVWj5XpvbNd1OhNt5QUrDe+yPc9+0w5/9wU7/v0XrUd1Ke1Ab+3K1WZ9JwPyFUCOzzDyTftSaIgByPk0X8dFEVdFjKNMMsJQCqAzySjq2H25LoGhmkL7iF3rSzRGgQaqFNwFC1pvtLBD28heK+7RrMl9e61Hvt29Bw7ruhbFwNPEwwVI/bIJqaJIjHMKsXvzpV/bLZX9/KVztjA2uqWAPNTQLknX6LwlYcu9BBDHeFl1IwyhZPFGoYb4M6ov4dlNYPyqT3oQNtGc12StwYNH7IgWGj/w7Lds3+NPuDtpJ6nhVpHekafbEsgXBDyTWnz5q5dfsrNqzKwQRBjbvMLYthvIa2sFEgqaSyRvN44KwAFsB3I1whjTBck9bvwWG+dmQjp+4kRD9NGCOqAcUpUWviju2W0lgPxQshjGyG4rMplHERqLktZRu7QlOeBpqvn5s5r4867WDH3Zxn//uoKHKxCYpNZln/O2EFPfR1aXL9I3sU9QlwDgIdqgAlcB7Lruy6o5qIcawfOdIolTxwmvQKXF2D2suPq7HnlcCy//me059YgN7t8vh6TN6eTrK5XOuntbAjmVafL6Nfvi9G/t7G9/1TFATtVYlp507A1Yf9iz0RiRzF06F1gyc5SVYdwf3Z/dZPmcRgqdohYXviUkQNGYw2tleETL1smzRUCOUbT/+ANSwTyiKfUj/kyr/zBqqGh90LG33rAr//LPNqu46eXLFxNVj7pO0dqJiW46UgZ3KWH03pOKTBlnXgLkSOewP9yjfXJMnsLz/BLfxNVWp7W+J0FFBtdFxa8paP5Az8iIHfvLH9uhb79gu7CvqC7kVZ87tSxazbFm3r8tgRyGzYyN2aV337bzZ07bV//95zY3dlPhWmdUidDhRm10M6xN+1kaBpHxwuIWcbZoD+qXRK+O6yKqFxJ/N0uXDvS4LjoBdg+Ziz84vuU9monJika777P+Q4dlHD2m5esecO8Xd0Nkcg9qGnVYrkv33DT/p+yzNz+VJH7Gbvzy3zV784YiODJ7U3p7fatTEyxEAncpW4BN3O+4+k6QvkMEQpd0V2SinaC94sOrTtT1uAQu/bzKNp9E4BwRcO997HHb+/VnbOShhx3EC3JJzVJjHNi2QF5WGNZJhSo9r9l8n/77v9i4DF4z1y5qWIc/c+cP7Wo9FFhsYIdUFBhJmU1KQnoH7NMEw8aqWNKpJOBOxMKF2TnXqzMrs/+JJ233j/9B65GesG7p1LuSqfkFSWbrTalvhI6Zi+ftmgB87I1XbOrdt/wVuEV2ekLaxl2QSTvTksLHidAo9QngThl3ispkfT6K1gWp3FAH9g1ZSaOy3j177eRf/chO/uWPPE6OTwZb/wXZLxvgwLYFcmJtz09N2dhXX9qV9962q398x66//67NanX38uS4S5RCwY4FdSSwIKNjHA0qF9ebi+ZuAXrQoYfYLoQIiI0+ymnx2Q3UkVRu4btOs8dPl45U4MQMzYJczYoyhHarcXfvlv5c65CW7ttrJS2OUdTQm0lGHqGwQV060uD8rRtaO/SPdvmn/4/NfPyB4qePhzx1iCTuvBFF0TWQPdI2AO4SuPYc++Qd6b5j2W3WiOtuFQL6KGvylVNd7NPC4QP377dBlfPwoSM2pG3k2Anpx4/4HAM8mbLUHAe2LZBHts0x5L561S5LSrv0+zds/PNPbULSW3l6Qj6uWmoLu4yAEFDv1ESjQUKDTkDd3RelcsHzJXq7eEhdqWUc0MnIZmdH9Lr6RVLmghakyGsN0ry8XUoHD1uPb0esd/9BN5QW8SuWr7GvciRJPSwYcfcMOF/kpzz5yUeKo/KKXfvpP8lL5aLCBfR7/iMgbna5ihXL7oMANmoUZl4SeRAXQoyalG9EcMq5EyXxFfwUvR6aQuqUEa0nu1sGzZFTj9quB07azhMngy58sxl/D31/2wM5kjmz/GbkxTKpeNQ3Pv/Mbnzysd348H2bvHBeEvp1lxw95nXHFTxNJwAaoEVnwxkbDT1I6vJ2kd4/xHthNaOgU8cDRrdEbNicnIlm93YRUDH0dh9zLU3n8VfweNktKV0SejcSutwYUb/06JygWRuZgUlHjLvhDbkajmqxiKl3fqcFoce9Q/DMb06u/auhpMKoiqBV+H2X0X+LF0jeEdDxTok+4KGk9XhSzptI/m2fpqOJQI4AQShnRoXdAvLdjz/pYD78yGM2IHvIgGwjW0GtdVsmO/jCtgfyWDaLikddkd58/NIlGz33ld34SLP+JMmNfvqxzWloXp7ScLzWCNqBjWk5L4C6ktqTGz9pUMH/PCxLh3GUcAA0OK53xBBd4OWgLtULQMW6onlJ4bgwFnZhHN0lTxd5NsiNsUhcFzb95kG2lL+10tzNGzajzvj6f/6bjb/5mlWuX9E6o3Me12Wt+9t1jeJBfQJYswHieKDEc2ZlAozihCcAXCxRB70M5ckvm7tz4SGSINLwVkJ4AMRD/ZJeHPuNZv0OHD0qbyV1xFKv9Nx/0O0h3VKddbqxOWav0/cZkMcSUsMBSBbkC42b2pymbCOZn3/jNbv65qt2/b3fq6YW5FJXNSYClDSvTk6RRECAYzbC6fbJW4PoiwPaWJHGAT3JS1W2anPOQLgkLatPIFj0+sIQmgFY2LvPeo8dt0FJd0Nf+4YVfYLR2t4O4x/8ycbe/oMm/vynzWiERfacC6Bim1PkP7xF4kYKn9SIYVz1TbjtG7kHHCMX4r791N6dOa62SmiFnd0a6REnaFD1CrdYNkaFCAlMAPOY8lq1Ka8Y8qV9B2znN56zYW0FPJnUaWepOQ5kQL6Cf5KC1LgIyzo3OmpjX34mAH/Xrv/+NbspIK9I5qiodUWJiSYXGp8AIoLEivd15gkNDGk8RmAsSoJCl46XS1j4Iqhmoh4WIImg0q4cOXgBFIl/tPNXLoweGleSeDeTjA4fk2FUs0d37ZbUvsd90lmLkw65Mj7mC0XcPPNbK5/7wsqSzt2oxotamGrfDs+QrDFcLhswlR+mzBP32/3AJYmH7rWFRDX56lDHgw0GMSYAdOgUox3G5zeoHrGGLcseUo8iL3yPAESIY/mP5xXSmM64/8QD1qMRVglbiAyiBc03cJVLi8uoSXZ05OMZkMdiSUCjMjnpXg4z8mZhFuCsFh2Y/OhPNiHpnChyNL4pudBxzFAYHSbSSazcnd4oyW6tNMU5Q2GkqR41vhLSlM6D10tsjB0QCkB0ItUyC7Oi0RIdLql0WEP1B6R3PfWkDTx4yv3SFzWimjn7patURn/1nx6REVfHqr+HP5r6nyh182IHP/0FtKkzUX0yJUkciXxRG3gVOssIeamTlMoLXc2jOu7qOTp8CQEAN7H1WQUL91ckcn4nxbyv/jj8wVuJRb09rAPPPiXJ/Klv2vAzzyqMw8Gw1qrenaX6OLDtgRxgWJDedF4S27y8V2bOfmEz0pHPy/BZvnXdFmQsK0u6q0zIi0WgjUdB1Gfi4+suYdoD6vym/56iNBuqdec11NohPA0QNRHhAGIUxhDvJcwidWldN3hn5XJWGInUV9VSultlsCh1BLoIuNqleOc5LVLRLf/kgoyjpf0H/EPlmzdt9rNPbU6LRYRVinItHVUAUgCexz8RbdQHrxsA+RKGTF2TNB5AMXSmZMDBLSXWpPka6IyJ+oHk7cZLOvuajt4BfbluxCdCra+ehSPKi3pHI/E97921S53xMRt6+jkbfOxJ61NnTOTDNOcQrKbjXjzfvkDulUngiwSuIErTavCTkrqnZeCc++oLzfy75vGpPVQrs/80eYRGB4R5bAs9D7ATqAhXsWkNlfH5ZRhdbQK1R53aZMHEpGGphtOAAHOkLRqvS+lquDReGi2NmgYZ/mxek3AQFxGAOnYNEu6JealZunJFRdWbN5vVTF1J55RItSTSpdnfqz/sy9QBATijNXcfVH2IHb2qhd8TOsN0aUjrbeTBy1Z76gTH0EuwNkZpqOKYo8CkMzeg6xzZObYLnq8vBVVmQXMF+p/8hg0/97ztfOH7ViSkAzHts7RhDmxbIATKz6cAAC9LSURBVGdot6CGPn3uS5vQZKCp99/TZJEPtWqMhu0zDN0FBLoHCFg2vCVsddWEjlXXfbgOoNNgfeq0nkFipzFH+KARkzrCOySQsuKvk0dmlKKPcmzEwnLXndOI8U9nMWkaNg25I5J3QsG/o0vDew/CJfBhCE8Zoy9vVYJjC3o/NhMk8Kg+8XOkb12nFlD+gbtVoGwVTY2+N9ZpShXwxl2VMkbnTXnHMucavzuAw+cmE4HWiMXTc+KU7fjW87brh39t3VoekPj1Wdo4B7YtkC/Id3xOvuMT771jN8/82uYURGlOE4Fyqri4GUYQ3igrozsZ3ghRJ8q1eD2COe+Lw8rmm8FGqWvuPuhELxrBHOkcUI+xXVw1o3tqO6oIXM19uf6nV4576i3F9b8Xy4puIahHghEzduCuC8eQKUCnY69VTaz/1s39JZZRzBt71pP1RcI19yDG8ImqtaCCi3enQ/uS7E3E4MkfOu5Afv+P/s66s4Ul6mbutgVy9N4Tck8bff2Mjf7mP2xBOnA3wDQoZXij0B/2UXfu06slmbO8FkNu1C4YuXzYilTT4LfqLuUUHvDOR+8BrGnggHmvpLMA6kGXjrQWgRQIjUCRwuc39RXkKcKXr3mpMoyjriiFMwJD8YbMXc13ON9U4tf5OJRV1SdyKFHZAdj9ifsgxu/ahcFhQOTBOq9s6DJAvqhFRyoHj9nIt5+3oz/+OyspxHG2QlB97NyWQA6Ysl7j2B9+p2h4L9n4S79UaM35Dc0WvBt7qexI3+5uJgmNYTZSmhu/1NijESxK67UAebd3b+bvtRKmD70F6Ctcz3wIHsIC4MaItM59sfFXwW0zc7Hxb0M3NKNxiqOqWHbMwJzXD5QrBm46aDpvZVf5jTne+LfadWfIT5g6j2FbXoJehthDgtEydMxRAg/lFziRZvnxxtBGJOTIhlHGuHn0Adv7ne/Zib/9ey31lgF5vXViWwJ5RZ4qs1KrjCny4ZgWGJh4/bSMY9LVEUI1xRQlOWRT93aR2iVKcESzI44GFZpGUgt6KZLQklcB6hHYaZQ5gTbuZ0wwwijm7ozaI7lHYNtK8jl5CpJ1AGmk7ynFhJmSPjdOoQfcuWcrlZvrwUU3LqaMpPq0ud1D5UT5IZXHhG6/FQneUifoFBmx3pqatNliyfpOPmwHtWbnQz/5hwzIG2D8tgXyqatX7LLib4y9/pLN/O6MFVSpilp2Ku1ExaVJ0O4ZlruknkjpeDYg1bnErhvQrQaASJuKdN/napOknXvDlCgKoKFH90lFUcITQOD14qoYAQUSa6em0OGE7gYJG6ABwGPwqjiqonzoxChPEqqmzksQV6ULGqMLIdJ27GhjefnMXu+UqjlJsle9kNIRfIN/rCXKzNYpORygWhk6+YgdyoC8YS5vWyCfuHLZzr70G7slIJ8VkJdUufq06EG1+jfM0w09GAAdsAiA4W6M0qUDIEFKD2BBgwJeAl211MWmVnttQ59u8ia+W/vN2vPqMSCBhIfXA5J6vyaNuOuiQCV6PNS+pUmimn48Agx+SkiKsxVigFd8Kn3w/+YTkee1n9v8XITuB5rojgKNHAUAD/MDCtKjeFkwYko8j2pz0cpj563oYo8wQx0fn6/YmDzDyuU5BUkbsJ0C8sMZkDdcDNsXyCWRnz3zkl195bc29spvrE8Vbbiv3w08SJfVxtEwb+/4IM0tDHWDDpYp23g+xOnbUQIMk4y4O0i9d3xpB/0YKA5Bu3Bd62Porj2b+yML5COw10rD7cpCgN9QznSqs4m3kfNfYLM8cxf06agUOVslykcIDuCBk+pDvRNF+iamDjxnpEQ5oEKhfnNPK1MsU7x8yqrXrpJir05yRjM7g689LqLz8hsfzIC8ycLY3kD+yhm7+PJv7JqMnX3y+B3s6xPIBF0hFV//BZ9ry2FN8n358fj+OMnIjaM+pFel14xAgIVrK/yRI7hA4/KbOuugFlwAbNzaABaAZNnFLeE1v7NFcGkHdDLqgUb4Dshgr5jFu0iSeFnXowoFriLZdg6fq0DufKIuwDvRCQ/DSEi8lnqLGDrowRkZVV1FubM1YkrkEXRBVpC+l5y3ADfCSgR0eM+mCRvWnQG5ONZc2vZAfl6xqi/95heWVyXr7etxlzoit/Vr+Anw0ISp9lTOViZ/f/IRQLtWSqQR4MI4K7DRTO/QAEQMANO5xrbIMzVvNViyBq2Ajf67hNgraRFjGzMFwz6sFMO98ek0eR7hmHfTQaIDnxZPMTwjKdJhwncACd52dgIIA4XRHRR7RORnXEjE+a3bWAy7lTmCt/H98BAQJ64My9OhooLXXNf/Zd4yIl3SMnDM5MxUK83Vtm0P5OdO/9ouCsi1HJB8V7slvYQhKIsar5740g7QpDkANLRRpEXAhX1UtbBHqkHPGBtGc1WgVU8nKOP5ActrAZLZstKhIzUmkjq8RloPw/+odkmPNqQ/eAlgO/8Y6QhsIl/dxx++O9AAehGW0qMhrTcxcqEuRt/vOHUeXnKtXUv7waFYyhjqUQPSQc5L6HBjMXV1uYMMth+eqXaS6ozkCZQBefM1IwPy0wHIKzK6dHWHxXipbLjUYaQblkuix5lAz8gQdRMkNcYFNBjgfUoS5FRZko5LOQHQXbJpvi6k/IbYxOHm6hQ6Kh9a66egEgDUczakmDZE00OyRB0QU/UoXrn7PlLAnQDLhKRDjwEubwkHbgFPGCHUvp2nas/v/p123gFleJkA2rW8QqXS7rQsdIhlcXRD/cTFFgCPo8cqj2OJRFozIE+rzDIgT4B8saIJQTVAjtRABQwSuiRFNR7ABXUL0pC7buk4Vsm0CmSt9/CN2AR88olb/sOEFNzjkDBpOAy1MS4RgQ+QdOlS51UJaK23b8a1kBvoI0X66CPhL7ym8wTY6TzjSIg9eOXAEB5d8ZfXke8IIIxYwjA/jGpQo0QJnHudP3pnO8pwBaErTqCkSgFdXOQLt8ET8g1PgrqEY6mj8AXXNXgUgHLFS1t2EnkMn6lvdJDUP1QogHkcKVIPY14o32oOIS3mOQPytAoqA/LTQSIHyPMlJPJqlXOvEl0BtBn290kqRwVAwwFwaEwOLjx1W2VNq4hWvidQV/W2YCgLQCEJsUSBA5calhtPaWkk0RZT9Sheadc+Nt74vYQ2Pw0hYOE3yYEr4TVgFXlMZEafNQqv18gIjzO8J5BVBBkMl6hQABi8J/hCEF7XeIF/vd1/Qp6D4ik51g7qyGMQJoL3CbpwgJtODjtOhEcAs9UptgUAHF5GX3u3NUiV4nHWBeQk2gJlFhK0xePkUgbkkRGp7TMgXwHkt8/sTJqWV0UkIiR09u4VoD1AQ2jPKDHFkmlL49LHAC8PnyqQAsRcYldDmxd4RQkJ3XBMNLDVzSr+tpn7KoVQEWANWon3ASZAM3yvSuO35wKeAzI+GtH9LpEr77y7Wh6dl/9IL1SSZx+JKN8IEGFCVZgtG6VvOqIqUCpzLUi1XPIY66pbgDYjP9eDq36F0U3ScYqGahmG8rsdwFcTmknkqznS6HkG5KdrJfLbgRzGRmkkNiDAhFgVBTWooArASBempEeJsVa/22jhbOQ5GhxAgJcA+yCRJ2oXgVr0Twfg+S3IpLXNdCNfae89DryilVQFLGKEBOl8PWp4BNBJHl0uN+4H9ts1alqPvtXXPYcilj30UZeQuhn9RYHBBQVdxxc8dGLcWe2WVr8ztXPnZTRgBvVdVEuxj4Z46hxqFMoJyqop5qp65fajDMhv50ljVzIg3wCQr2ZtaEoB4KnAgHYEdIa8YVHjEBjfG+vqF7TgPH4nqieiiiV4vSwF9UtiIOW32xteC4hK+ZUrgWLtl0c+rP3r6qsbAZvVz6R3TlnFsgC4dyoGN26vrgvXOXufBSuIVDVrSwKO6SYAamYbE2PGZ7hKEodeOOab/rBvLmVA3hz/qk9nQH767hJ5lV3Vo1CZwxASSc+ldDU+XOp6JT0xDdqHyDRI/Q5wthM8oc+lJSQmnbhRlKGx9JkuWSUgUntP7ATIT5bS4cByPRFP4WqoB0ECp85wjtTNiC7OXVCVWa4v6VCx8i2xdJ02/VRbB+hYUE/5TFfVFZ/hqlEOwL4yxbesvFrfWQbk9fFr/bszIG8QyNdiaQDPRVe70DCZVYd0jm901KG3e3hPc4uDXuhDn4572KQkLbwN4nCZhgrgc087O5y1+HgvXYsg6aCNiiR27Mpk9D4ZKBa9rpBv+N9qxUm1PkRVXDReBj97JHDqB3WDFDqfNIDbX1fzJwPyGmY0dZgBeYpATkm4VKs6j2Mixiqk8qDnVKD+5Bw1TJDG8EpA7xsacFMleYeHYxN0kNAfpK4I4Ehf0YWRa7W6dN22Sq/MG0jxjeFs+/2FD+vzAPCOCRBE9caojLrARDP2HqZA+2U1in6Pqfp0vJLOPnyhy+0IQfKmHkjqJiwB9UCSN3s3mLvNJXy3dcJHBuTplKxqo4CnVfUmLRpTfw/xyCcImqVYK3FmZ3A/XNvYWR8BkqfE0eXGrAYa3caYcRdBPRqzAHXXhVbbcX2fq/PuWmkMGvF0wRMBfSgLJtRK6TR2ACtUkGo1iYBQ56fvodsDX9bKEL/QpOARIO5BwjCEc6yyZqQWVClV4yUSeJW7a7218WvQ4TSxF12Muhy0BdjRA4UYM7Fjr47KYlfVyoqZAXnjJbvyyQzITzemI1/JRprKygpf2zCRuJHQ1ZZ9zzmNOjZs/IJRwSC11b6ndc07UO8NPGncUTcaJLKgcplVY0dXCrjXjhnoDACpLK3kQOy86ZhRp+E66MCtY8oaV0qvC+Id/GslB0NN4jtBqACoZ9RZs6YsZbzsW69jJPBYX+O+lbRVuZYBeZUXzR1lQN4iIL9zsTA1XBKZWlnwdgmzRuPM0WgEi80rgiaNKza0O7+//l95L0AUFw6m4c+rgROoC4nNAT4B/frffm8/QZ8WOrdqMDC3iyCJq4wB8Vim7eKEisrrCmWK+mTlouDJxDFXn6iWJZUq1rN20QiFWayVdLidAXkqQN5YYVSBmaF4l8cYGZbhCykOACChn6x1QwPcWwnm/s0EBPhOAAIWAii7GxozJTGMIsWFFPf+5B2uJT/dM7tqvn1OgcAabyXifxMrBnVaKMFQhvG4XdmnfOh8WYmHmb8YL8Ncg6Dyqda9dlG01ncyIF+LK41cy4B8E4GcAkNvGSEB6Zxp/+hTAW+kOAykeDdwjl7d/6kVRmCIzzZS+Os9E94d/kIdYD4jgxiuiz4sd2kdMNcGsGvjHv1fTlFKXb6wxQ/IGmXFKMpHU2JPLJ8Y+zvYP4Jahd9q2JF67ikdpymhC9VYNGBSLrGcmN3rdg+pVSI9rTNe1ptN1RnVqdKOXXbf08/aIS2+fOwHf26lwUErpLx+br2UbbX7MyA/nYaOPJ1iBwzZGOKywnk0jBG3u1QQQCQz/nyGYwLl1W4gHRrWewsdCLR56NfEOLrsawyga0NIjx0TeVh7qA6chE5ivW91zvVl6PN8AYUejoERk/Ln7oPownXOgsZuBxHxlEl8shV5gXteHvoKZYL0jSosGK2De2lQjYXZvtxNWazP9c0ok8ChLvGuf99+O/j9H9r+Z79l93/9KStppa68rmdp4xzIgPx0LZCvDJq1cTamcydVGyBUm/OGSsNDsisK1cPKOritBQMaeyT02EBbCRzkDlr4BsARpT+PuZGAOGBS0WRt9OqASNS1d470Ry7qS+SVRHn4aAkAd75Xy8BDMriUDoeqfPKTFvyJHSq0MR8AbyNfiUf76D4Yg4N5h5JUDMqhc5IoUx3pUie46+EnbM8TX7cD33jORh540Ab23W95qRc7i97O4dx6lGxbIJ+6fs3Ovv6qnReQn//lf9jC/KzlFMY2VKDOqPQ0VtqhcMI9WpDEkf5qV6YHWAB77gFx2kk5gI4kHvZBxRKj4TGk5zjBkeU9FbGdNPK9ehL0RvrYO+/F4zC5K8zWpQOlY0XtFTneWhk8dKI+2hGBqE3oLNF944nCKMnVXOpEqTNs3sE7eMcSiLmqhxtp3gt4R1qWfDGJ3l0jdvCFv7D7v/Et2/PgQ9a3a5cVuktej9P88nZ417YEchrE9Ogtu/T2H+ysVgf64mc/tfL0pHWpwXblCto6Y1gXqz1N0LcEsFG75OT1gjSIftZju6gT4jxI6KHRtg1cRJ9YKrBGWg9SO8Y1ZgjGGODLbVj3evwQB5nVTYwcB9oDdMXj1fe14lzUQ7te7etfCqThK8ZLps6754kDN7yPfG4FHbe/E64QmjeAN0v+sYBxWDqNTjTQzZ474VzsXvy0I/4ggS/KYB7B/MC3v2OHv/+i3ffYkzZ89LiVtNxbXrFmaINZqp8D2xLIYdP89JSNnf3KLr35un35y3+38fNnbebG9VDR1CBChWonkNRTeAHwhCsO3sEPPawxGgEnSOkCHL02DlPJTWjq9XyrsXtxd/Ohv6RGjG0evMslR+B+ZXIAEnGB2+FvO4GcL9KvOECLiiBxh3g5SOLEzaHzXE33ylykc8Y34AcdH5K1j3bEt6jGCqvvAOrE/o68it/m6dXX4m/t3YcyDR0KevCcVn4q9g1Yz/AO6xsZsQPfet4OfPcFG7h/v/XqWpaa48C2BXKXELRe4ChgLsn8/Gsv26U3XrPK1JgkBy37JkmsS9JuSJ3ROFYWdQBEhDCoA6xxf3PDm0YUuL9xDCjh8RKVADxFc2950kf4Dg0aSRJVS1wAg3M8XaA8gBZ2gSDlVuGyfTwHwFGTwK8+8a63GOJ/e/gEGNU+UpbBG+CmA5xTh4gfPwCOSsXZBkn0PB2aVpSp+Jov9ljPrt028vCjtu/xJ+3gU89Y7977rWfnTgF854yAO5SdGyJr2wJ55M7s+JhNXr5kV957166883ubvHDWpq5ctrnRMavMTtui1vJUq9H/zlC3RLrZOyjXoDJSOIDEDEIHcoESU8QJDeAzC2lUOg7ql/CmmsdrX930cYCZ8BfJMup1g+5c+nNdC9fDb0ienIu8BDfTByreH1Pkk+/V0YVp88H+gLcQ/AqpNR1fLX/cXTAZrdDBRddBpG4AnfPg4hko4tlOBXJAPHLZ66DUU719g9Z33z7b+dgTNvLo47b7kUetpPPisIAcIYNCz1JTHNj2QB65N37poo1++YVde/+Pdu3D923ss49t+solm5+4pYoWdOfx3k7dA1QRrPB3DhOLAHKk88RQqobFOWAeuoLW58aBB+k7+aL7NicA5XpfSZu4zrFVO5l0Gzffdt4A5no10jcqKVwIce3kOCzowOglJO8ok+O0d7Va7Bk3Wgbd9xxqFAG3g7f2qFgAR+fLbYBHrmpTpLz2WiuP4/fDdzmDVs5YvHxA0vag9N5DQ0M2eN/91nfqUes9esx6Dhyw7v2HrLTvgBX1e173eQ/eSlLv8XdnQJ4U8PzUlM1NTti0vFkmJKGPff6pXf/ofbv23ls2PzZuC3MzunO9hrKyQm9WnYkNie/T8NWWliVwJHHULCWNLAB4Jh5xXpU8W0s1nItcQvqOEjhui65CEIgD8HHmaPi9Cgz1SG2RD3wzPscxPHEekH9JgkiM0fvE3QidZ9wZUqQ3nqe15710Kkjb5NntCYtac1W88HwnvzuIwzX9j/lIi4Z03qOuLpDnOBzqWBAYehnlqI71SEVZlCG+2NtrhcEdlheoFwcGref4g9b74CnrO3JMapZ9ltfvqDOz1BgHMiBP+OZDQoBkZtpmb960sS8+s2tStVw4c9qmFSlxbkK6c1VaHOrYk9jdPn+vCgR+06b+CRRGEqAMIHNdsBqNr8QuUAPwkUPZAxjtzAGABnixgAEzR2eZQboUVAqAPN4aS9BVQ1XC/pgt39fSzO+UJ8DCpv++j2uruvTtIB5dN2ufXvHa1E4AvFB3wgQefL+npf9mc3WT8r4ytZ6mld/b2FnkPdTBV1KXLsa4QUxeY5Wsfm1xdrLfJAYwi5NyxPhZOnLceh582IYefdL6Tpy0nn37rCCAzzGjM77YH8z+bIQDGZAnXFool21hdsZmLpy3mXNf2eRnn9qU1CsTn3xoMxPjNjs9LZcvBZAidrMqpa/Urmepy0h6Wycx9A0AFw2i+KKHxS/ChBcaJf9Cquo8W5HHCLq4/QHqrksXqKNeiDMVo8cL3I73R0CJNAXvnHBGeYT4J2HEUYo2AwGIe/Xod4qMHLay4wo8DPwL+SH6oLx4JDAweSfov0NOVucn5mvz9lAU60CggvKJdLr0rc7QbQsJf+NM5AjgtzULPe9JP+R6eiwvl8PuA4et98RDNvzU09Z37IT1SAUD0GepPg5seyDHQ6WCFH7xgs2elwuivFhmL563+WtXrXLjmlVu3bDy3LzNy8PFQ7omjTAYpII0iUTpVTzWcoCivnJo2921jRF1QiGRTMOUc+nT1YgAdgymSO9khLwAjjFPMZutIBpeomII/E3ADkOgriPRggXObw5qEoAcyA2dVADsxNc+ySP5CfkgJ1VQqnlNw4e1vGE0QMcUVSXQ7lI3LpmSSgF1RhuURfRb7zzVSeCvszkp+1APcHkNainsCwgDgDn8ZsN4XFtTVpZSDXvFA1JOUnj3/oM29PRzNvS1p1xCz/f2dMxcjhqKO/pw2wP5/Ngtmzl/zm69etpGz5y28tWrtiAJPKehoSMDxUdtVI1mB4gAMlFaJLrclDbULTRMEmDB1nkJ+lbSxVmgOhjUaIw0TJ8Ioyh+SF7Rw4NjEvenC4P+2uU/TqX+hO9oL74C4q5qAdQBweW7wwGUsUErM2Ax6EIuKiOn2v+seiilU14dwQuaWU4PsGb6vOvAdc4qPKzExO+kzqofUBUZFCm83TWUDh6jeZ+Mk0yWQkVHnYDHqL9I8S3h7C5/aVPiTa6/30onTtnO575ru//iR9Y9PKzJQZrhmaUNc2DbAvmiVCll6b2npT4Z/cMbNvX+ezb98Ye2OD1jS/otJ19in+GpykuqNtQghQMm6Dk9zrOAHHe6KKVHyXHDpbDJN7p9gDyqFdIomfyCPpllyaJ7Ho02SOqJVFtXi60/g+H18SOh23AJFlCPWFPz2ngJqdzBJel0Yrm1susRSd6xLft+M2pD6lb9QC1E/BlUcQgBMXUWkEeqVu7hPvyMHj6oTKIaLkjf1JbQNhrr2PWU2k5Ohs7SsQdtWJOE9vzl31j3jh1WKPWsJCY7uyMHti2QV6Ymbers5zb6xit24z9+JjXKVVuanV0B3nfkXPJjlNA9EqAa8LQaLJIXDTgC5O3vqTboOmWY21+V8hWXfgU4QVWBNB6G0f0Au29xCB39rNufA8AZAKlNAEktV2t/a9Vx/B4gTSc+KdUJozMmPnFeTbXUxqdqr1Xv3OyjZap0gOqN0dmggljtkOcJI504KkuLziWFcXCJ/Jj05JLI9/zwryWRZ0BeL3+3LZCXx0Zt9O3f2+jrL9voS7+0RbkfYn13sTSR5jbCzDDsD/pQdKFuyHIwF6AjkWl4jWTGb1Eg62xpLKFTPIiNGqmsqhcF2JHW1aj1A40d6Yw8hSdaD6iRrtryifBYey3t45g/INpHX4lR1t0IE3UKx67DT/vjLXjfWvYSt5uoLEOM9eBK6AZNlTkVYi3eN0JafA+ToZZwPTx83EYE5Af/+ieKT54Beb083ZZADvjOKa7KrVfP2Kh04+OvvyR1ynxwfaqXg8n9NHIgzGfp+XA66EdXr1BfCzi1x7FiN/j5lB6LFFWp8cae9EBM8ihK3eKTixK1iy8oLX0pYC5lVAD06uMp0bX5r4EFcGdBnTJAHQzfKmMBOHpwOnAChnFP6NQ2n+ZAARSRQqHEM7+kfAiz9YuAW7pvRlzYFihLytgNmbrmHkG6h/q94nl/SWN/4Cd1a1YSeQUgP3jM7vv283b8b/7eenbszFQrdbJ1WwL5ghrdrCb+jCmM7dhrL6UC5JHvVFCv8NrT4KOU7sZRSR/s8ZmuldpoYuu7wdF0Ng8Z+Xo1eeYSSVz6UZHFUNslNgG7LzicGMECxaHxV5/fWkdBAk/03yq7qD5zXXj0dVcZhzIPIE4Oby+tdpXhnb8TR4/QCDgD1Oi8g947qM7w7GH0Fe0MlHHaCb66EVgqqHFNtCuXem1ALogHn/++nfzbf8iAvAGGb0sgr6DHlHvhdQH5uIB86o2XrEsGTo+F3AAT13okgEDwrkC9gvGL4XgwiFVnMKJLB9S3QoJKwIAU1UO086hecakOQNeUd8AA/Tq/oZqJ9/vDW+APuax1gwxSN+UYDZmh3GLR3Tl/vK0FiHgbH+/8nUiBgzcSuMqHERbxeFYvEh3rbyjt2z7U0AUkcOp6WUMXtyUslG1ybtaWevps58lH7PALP7CHfpIBeSPM3bZAPqnZmmelWkEin3/jtHVLUi5JMmhF8saQtAikdWG3S+ZEtPPFcbXHCyaCZCtoaOU7aaAkgAJAw9OF2X19iu3eLxdGhukYyiKQ+M0d/oc8uWup4qpPaA6Bj6Ioo4RuJNUosXd4VpbJQ9oGxIdkvGSBaFeHKSPhnzppz9Py7akeULcZnWIIZiHvKZ/RWrElgXmxfzAD8ia5vW2BfAIgf+WMXX3ltzZ25tdWku5zQLq6WLkBpLSBJ74PMIjS3myibkFS95VeVNmRWtgAEzb9d1o6b9JIqH0RyDkjj9AJmAMaSH3M+APYkdLha5TQGb5zfwRHnm9nit/m++TBpUWVB50qI6gYzIpjfqMcYlpfFRbvaO8e0gDLyH/4HNUjbsAU03vEfwzVlAVqsJgHniHVZC9caOBv7bvgmfv8a89oFMFlRjpxXHbDSFSGTgF5dwbkDXB65SPbHsjPndaanb/9hfVpislwf58bfJAgUQu0Aswj+5elIDUfJJWgf00MpHi7qOKzYTzFiEYDgZ5qc4tNJr6RZrj6Wvyt/fvQAYVJRsR0GdIkEmaNYhyFt0iHDOvbtWDDag4ETgUdfgAceB/4HwBHKpTElnF7PegsXpM3QBxvGnTfwSgdjJZ4n2DDoAyIMYNBMybmO6SdqNeMW0ROEjsnqBGJqz6ukU0tT+nQF3WtqKn6mWqluZLIgPx0APK8JIWe3tKy4YfKH41BUUp3cGqO3yueBkxoSlR63g2g46rIMN4ldMCc8wTUkeK5n+eiNKXDjkyxMZNDgBDpHABHSiQcgHu/JJIhEnvwSm+tcbR2jBUk8MBbeB0jMEZbhs8DgNv6L3KV/E8H8TqAZfRWp0N0jxPXdwfwRvpmZMR1pPLgB17NAnWp2RS4Ev7CU7cDqb5GPnpdTuwK/KYq7CnUX3U+GZA3WwSBn+rJ0yjPVIhp10swdkbVSpTIF+V+mC91L0uLzGp0L4xEiuG4lSmCDAAIsNAQAHVmBbqni86RapAeaTABV2qbUSupa+zdEcxjFaPxIoW5sU2gTqwOJEWmfAM47XBfhHXwEP5iuARookcR4M0ICP7SKChxaA7dbeB1Y5xI+6lAX+xkvHMUP5G2EUAY+VBf4XNUr4T6lTyXPjkuhADU0RWTjpG6iyCCsZ9JU6RQByIvMyBPqygyifx0kMgjkNNuMcshRS7redUwGJYSX4L41S1qDstlGoEk7h14EsDxYb8AnYayduNYfk1HHKyWEmjCgDnAghSJlA5P3W9Zx4B62p0m36LM0NcC2oSORVeLD7guOXD7nrt0HmmG1s5LgUbqBiNG6iULOPSguloGbnisOiziQ0fUmlzAV/zq4euYvL7iQtvU1yhwMIrUbVCyTET1KAPyZaY0eZAB+emVQF7LTxoDEk209hNrGcChwXhDUY10CUMPsaeCskUgqH1Xs8c0lmWJByCKbnC6Hr8XY7yEK4GeZr/b6ucBdULORh6HMADJBCPACB7rH/uYIq/jOXuAbXVCBnTdsX6Cdy55C8jRhRP7nGsh1bx89Us26dxzQ56SehXrG+Ac62VvMqIJxkviyqdf5nAmctZ5ybkDNQb7MHJEqMCdECEDAI9FEe9fn64MyNOqXhmQ3wHIYXKsyFTKsHyaYk9oRXD0uhju4jT1qnE0gEIVXtMpqtiYaFWA1rJkrsbjoQB0DWCicdGYoHz9BpQOTWm9ZTWPUQkQ3wNQjx4X7EmAeFQX1H4/qkRWXBMf6AABbiTwSbkSwqPAnfCu2vs76ZgyZnPQVi/mBuKkw1uWwqmD4lUrjJbwAo7TNcAv6jM8xo6DlI0KJYI3x6RQjqGc/MJd/2RAflcWbfCGDMhPry+RRx5SiVV/PQEiDP0BcjwC3JikxsQwF6NSBBkkyOSR+JpU9qGxmAMUDQu9rushdYzEGY1MYWgr0E9oX0uKTYWglF5Sy2N4B4gDUg7k8FUXyTvABs9Xy54R+OA5x+wBnGBnCJIjIK5LnjqRHwgLJPqsoN5LVE+qW91aoi8upE3dQxcOH+BHzK8/3OQfeEyCEt9EE51hdSGM4E1FPaO+BTfC6lR/f3jDfzIg3zCr7nJjBuSn7wbkVOdQvSNYwFMkJJfK1ZgAdDc0qcE5sOscEEoeu0sRNPZzLZR5UC41rBlJnkhHMb4LDc0lKGXhdn0p+SLFphvONudvpAUQDkDslIk0Oka8LeA3jnPkg+PVQM79wLePSHSM0sQlSL0wAF2QbkNuOyHPUFxNcAAghzLAmZmWEbCj73f0/PGy1J3e+VVfkcoR3w+0YBQOEjh1CvfYGdUxjgF2+Axf6RBFqlIjPM2APJVCg/uqPNVWlNZbO/w9d/JauRPpsbFxjw95vRKHigzguJ43AXEaYQD3qt9ukBPv9IX6fotNB9CiUSGFB116kJQAMpectA9uYEEnzHPQHxK5isfJpU3cOTglNRISI2AHmgPd3omtQTJV2ctI9LN3ANeBv06/ATorE7+svrbyjlae8fVIM+DswM1oL+m4gq99EAoY7VFmMQtQ7flKiUB/t96Fx5QDdwRsfSV6+ASvnvBV/yuewr5YRvWTkgF5/Txb+4kMyE/fTSJfm3G3X636SyON0/D65UmAFwZqgSARq9LTGG9/OLUrNLCoJwfY5zWbCMOer9QuPXGI0MddiURHY/TUSqqSTzS4W5aogQwncz1aY17ih9a7L/4e+BDPNmMPkFM/kLb7lxfERqUU1EmolgLIhrykKQyQ+9iReN51IcZTxwbjqij9EPTiQS3FMxH0/Zmm/mRA3hT7ah7OgDwVIA+AQFOrAvWSqwBWN1BAHum9lSk2UAdrAQXqCtQvNEwHdAE7ngZB9RA9N6BoPbpC/lpJ853fHeArULcejXd+Q+f9KgBXPaA+DCYdPhJ5UBtRj0JpVOtTujmgRGs7fBYVJ6TstACc0ZvXoeSTcZTENVK1BJqtFxmQB442/zcD8hSBPBaHNwIBKBWe6dI+NVoNNswUDQvWItWg6aUxo2PknMTf2GD8QhN/Vsr+QfUSp6GjPwfMgwEQsNemb0UdtdOgaxBUpawJYpp+FIoCJU2/qk0vQNoN/AsjCcoYCZsyZ/PFG5DEtawgrq1cA7jTlLprswoHa1Vw0TBeQZ2izh2VStV4ubL21L6netxsmWRAXuVlc0cZkDcF5BuryLFB01DRmwPsSGJI63jAcIwk1kojVm01wZvDp/6rAUfPg+D5Eq4jqXMPjd47HNGdpbtxoLYuBCiGf8AhHTXlSzlH3+8wASqsgwp3WwXgEY6hKNhQkLyDHhz1CeCNBA6t/HMzctvKOwPyu9Wqjf6eAXlTQL4xNkc9JA0aMA+xuoMbHdPUI5A7sKuxozPlPgS60Lw29p2N3AVoADk0asDaG7eOo2EUY1ety16U0Hl3BByOs3Q7B7ysYK4SZU25etmqLNmHjjuAN4ZMJkLFkVgo6fBss39rwTsYvzXyctVaUs7JaAyJ3D1QqGhJapUqJ75/5T4D8pX8aPwsA/I2AHlt8QDqgCcNOK5WzxAb8EZaJ040exo97YsmBkC0IjkwC555PzR53JFEd46khrsZ8V1Qv3APABEaeqSHN2QpcsClWvERHlF+XpbqqHFJRf+Nai0aL5F8W1G2oUQQAkKZ+sQxgFvl6L7guh5tI9BL94zQ0N4UvkvNzoJmpcP5DMhP13qtFL1ip8Patd/iEEgDUtsBGGlESG8cuw86gO5TrwXoSHRq/IB+q5oa74UmNlen0LhEH7pSXw2HYTjGUe0BdCQ4z4P+BrpaRdna/Oukq3DCsVBEUYbwAxXKgPTdcdp8AO7wG2UdJd7I92byEzgf+R/KhbJj83gymjZPvHsvN78edORxklhQ+bWubt01b6JpYX4+hLF96BE78r0/y1YIuivT1r4hA/LT7QXytYuh9uqSS29I5X3a2DMsD4APEAgUdDuA0MoEGOB2RuQ6jKLRtzhOMtJPIYkOBwSdcam1VCXf3KRdzDKfj+6kfiweANhBfaLY691yO1W5tWVVJBEV5xFQXkjbAPekglixCg8qFcqy40pGNKnLEfEarezYZfd9/Sk79N0X7Pif/dBKg0OW7+6GtVnaIAcyIF8B5FSe2Fw3F5L4OuCNLhUwR5fOWpgM2VcAu0NnkMY2WOYbug0uLAO0TlC9oFMNxrHg8eLAoetR1w5gQDeS6dZPK8EPXrijJnmkXDRScp23yoORE7MvY9nEqfOt4EGQn0N5u33DgTvEPonBwJjZy8jJAbwjy0L0a5S3pE6me3Cn7Tz+oB37i7+yfV9/xnadfNBBvEs8zdLGObAtgXxBFX3y+jWt2fmKnT/9Kzv/m/+0xfk5yxUjkG8uEC2DhsoxLhiAfpUZfwAGQM6GFMhQnnsieEJ57Io2Xg3WvzNwIvwFOJD24kIMLv2pMUY3Nn7TLf59hxodt3rksD7lzf6SdI4JM6NKBJ5jz/CZu3SulEsC6iuNl/AhnZKIZQpv40ipVvqOrqTRnRQQJ/FcpNsvdMCfJeqItuLAoJV27rDhI8dtz8OP2aHvvGA7jp2w3h07LQPx+gtqWwI5bJq6ecPOvfaqnRWQn/vVz6wyO2O5fOt15PUWEU0SYKdRAiAO4AC6DKQAOwszACRI7UhrodGnBSG3U8sXABP+ARiAOAY1BxPtOWcDS6A7JxqhaSsm8ulSrYhH2sZlEH/vEjzXeXAdZbm6mMP0+V5bptgt4HNQcwVPFHjt6i79xj/uj5165/Fc/JS6Z3GubMMnH7KRx79mB5562vY+8pgNHToilcpgBuINFtq2BfL5yUm79flndv61l+yzn/+rTV66aOXxMetSI+2SpNUpqRbIwQsaadSX48bo8V0AFQeWMLwH8FvVmKuQFaTDMLwPgF7WcLmsGADoZQGbCOjRuMazW0lCh99I4EjfvQl/42gIHvMbfOYfKX0YDwZoHwUlgO1GZ/G3rE4G3vsmEI8dTufxWFwR7ahRSKXhERvYf8R14vu+9pTtOHzEBu7fbyVJ6HmFLs5SYxzYtkCO21NlYsIuvf0H+/jnP7Prf3rXxj7/1HLSQy8P7WjJHZHCUDkMliGI8yptAWxCrI6+xH0RPW1to67e3ZoMASQM95n2jaQ+pdjfU5ryDZgDRMR4qaVnJRUr87Pyt/aeuVMgAC1q0YPjQTQonrI6FIDeaj7GkmY0wzHSNmEVYuzv0DnW8qv2uL28WlkPI+WioeZQYfnCBXiqUAQ7Tpyyfd/+gR145hu2//EnrFDqkUozA/BmS27bArlLCbLsT169bKOSzM+9dsbOv/qyTV++bHPjtwTmAh4arkvnrW6+zRWjA6ReEQ1wLJ2G5Ngt5TkqATak96qUnr7s6M1V4CMMd8kUNQAA7pJ54vmCOyPXwj0hz9Bepas5Pmz8aagNZUoHxBmJDpHwsdFwibqKzfnXolFOlObhWlXvXbVF+Lqi4hkATgcZaQ0Ud8rfhJ/wcrESJHDWmlAbyin8wODBozZ4+KjtPHrcdj7woI2cfNj69+61/p0jSRvLDJvNluS2BfLIONbqXJiZsYtvvSnj5xm79dEHNnH+nFXmZuTjOmeLkiqXJBEtCYy61JilG4iPdsw+GkdpDoAibm8ez1p7pEg3xgnIg2E0UQe0IRuAJADkE40Ac/ESfbpL7g76aviOAVViqketYy9wGL4T/sI3VCWuB1cnCL9cnSIpnA4xgm1LYFT5jyoSolRiSKazw3CJNM4x/KLzI7W/0wvfXfevaBN1+llcgp3iV04raOXzJese6LOeHUO289TjtuvUY7b71CM2dOCg9e3eI3tU56gv183bFvrh/wcAAP//MyxXqwAAQABJREFU7L2HexRJsvabCFmEBAjhXQvh3eDGMjs7uzu7e86597nP993/9N77fXvOec7ZndmxDAODGbwRRngvZEAO7vuL6miVmpbUVt0NlVCq7uqqysjIzDcjIyIjF7xRCu9xevPmdQiTr8OrwRfh1dMn4WnftfCs72p4cvVqeNF/IwzfvRPG9dvEyEhY2NwUFjQurEluUYkL0pQt0IcF9u1NWKgvjTqaFzaElgULQ5vob9XR3NBgv3HfG/tXmWLRul7rj7gcxl+/DmOTk2HMzq/D6OvJMCrej+q7NUPR2UA5KMBbKV7Ct37M+wL5KDfjD7xpXSh+6FgknrSIR80NC9N8CaFBv+ckJe/cZr8RvkzqGJmYDC85JieMF5Ovo+v87rzwTpqLM7PnUslf1XJUh29EN6mhuSW0LOsO7SvXhvZ1a8OKzVtD95YtYdGa9aF1xYrQvKg9NLa0qh81U8mVJOy9e/eC9x3I4zX+RoAy/PhRGLp/Pzy/dSsM3ADUrwjM74aRhw/C2PBAmHw1Ej2yoCHdyWqzQRo4p3t/g0hsFL1NAu82gZaBus58b1KHArC4B9CgNBwOHHH+FPM5emP0JMA0oYFzQkBloC5+vxKAjQjcx9PXZ86jPEDu5aPs8GHRwkYb2FoNxBncGEqiBA/LmXib8UDlHk/zAD4wmL1KD2rwh8GGoYY088BmP1fhD+CtYRkaVaAF4ltDU2NoX7UmLF69NnSs3RAW62hfty50bdgYlq7fGBoXLw4LW9uqQOv7k2UC5Fl1/Uag8loN9fXERBh+eD88vno5PL18OTy+cjE8PXsyDN25ZU8skOTW0Nioz1MdP+tVVfzqABSBgRNiICawNildyL1IYN6mMrSkQQ3J3UBdIMIbyg1kToedlQGSMSA2LF4jlQLoEwI0pNRoOJn2RBm+vIlmJypvu8rd3tRk0niTeOGDWBkymfEVwm6VF+lbbUvHK3222YieoMhv85sagxek6XUZXZvvv4C3jsnx8Eb19WZSAsLijtDS1RU2fP5lWHPow9C1cVNoX7EqNC9ZKoBvsj5iswq1rSRVjgMJkM/C27HhofDy6dMwJEAflFT+7OqF8Pzm9fDy0ePw6tkTHc8kob8Kr8fGTOWyQABRDykC9EhKbxaItSCli/ZGHSap8hnAB+DSBXI4KUf54u8EtMcF5qZu0QDKGSkViXVCv/E7UixHJKnOToFIVopyiGYa6YFLlyhfiyRun5FEZY4Gr9nfWtiv5A6/oJ2DGUh0luQNkAPgOigf4F7r6Y0Q26RwEYrw0tyxJLQsXRbalq0IbQLtxWvXhJV7PgjLe7eG1qVLpUJZFBZKhZKoT+avZhMgz4PXk2OjYfzly/Dizm2pXG5Kf35ZoH4lvJDa5dXjJ2FscEBTTHVfUESd03oxvTmTpn3JXJ3/D6BGJG0z63AMMSDXFBkQB+j43trYYNKqFEgV7Y9whuECWiIJfVLqFtQNkbQ6ZiqXCNwjQJ+Za7zL9dp89oGpCfBW2VCfoA9vkT7cVBaW79ty8Mw55P8LtLotAPAGzEdVFqRxrr/WdyRV6K3JRDsmLYgGUBq1gXh7R+jY0BM6e7aEZVu3hyVSnSxZK534mrWhTVJ4kqrDgQTI8+A7Bp3XmkqOvRwRaA+GEUnirx4/DK8kqWMc5Ri8d1uS+iMZRYfN+CO7YkD9wgFU1VpCuvXUoAEoUqkEU7ugJzZJXbRH0msE7qhkIhm9vOAHd5waANClWCRWpPMJHW4AnNCdfJ4ahiLuuvQNQDObAMT94JobfZllOHjG83VeFHuGL5MMOtCcNuAyGPlMw6Vym1koE+O/8bPYHCv3HA4Ab8YlhetMO27tWiEd+NqwJNUTlmwSiG/YFBavWh3aurpDk/TfGDGb2toiI2blyErePAsHEiCfhTm5fqIDTqqDTgrUXw8NhSfXr4VHktCfy9NlsP9WePVEEvrQQJh49TJMjo9K7TJOrzWgMl1hDYL6VDkdTiNPF3THSOctAnS8XdzTJQJNAWgFgCgaKAD2SJ3i6gkDb/ExAnd+dVqhHvVJBNbQZF46on2hwBwA9xR/t18r9Ux7QD0CnW7A9dnEq/QgBIg7gMO7KYpKzb0cz4uTot3YqRNeWQ2N6LZbQtOi1tDauTgsltTd2bM1LN+6Iyzr2SxQXx1aOjoE3C3WBspBRfKO0jiQAHkR/KPhYxQVoocxAfa4XBMnBOyvnj8PA7dvydPlmhlJB+X1MnznZniNexadRB4SCyTt1mYSgVkQQzkBHjeONgvU2wTquC/irufG0UqVB4oYBJ0uPhlwpmE8DomAowOkY3dlBhplpJxsKBFtDCy4Dg6Nj5vhEgncgNuQ0e/jmQgrncboSrX/AuKSvtU+30zSpkNo6uwIrd0rwpIt28MKAfeq7dvMI6Wla3loRPKW9wnug6hZ6sUmVG0uz0f+CZCXkcsTMnzivohh9Hm/dOkXzoZnly+E0cHnYVzS+8ToWJgcfaXjZQagDNgdecpIS+GvmgJMnnXABLQMJEVjJOnGdM0CdvTqAD0SMcCJTl3CcCYZGGe+Ffchet3USwFRUhzIp7/Z75h+tZhv5GoDCGeBNuMKPvGoe3CZHJMaxb1QAHUkcyR0kqtwom+189fWTohOqy95liBZL2wTSC/qCO2rV4UOSeBd23eFrt4tYfmmVGiWZ8pCqU6SVLscSIC8nHVDJ1YHjxZJTIZHly6Eh+fOhgGB+os7/WHk3l3p0e9L/fIw8gIQSjQs1CIjSblTaQqwpq5V6xOINEWPAZrKCFAD3oskleGXjgHRPUDcX90pjuuy/Vq9nH2gYFgwFQ/StsqPRw0GTI6RtPGS3yPD8BS/3i7ndH6+/ft8XFEblfugGqrUKE1SkSzTgh0W8GwMizemQjfgndocOtatDy2dnWqfsvOorvVnPohL8iiSAwmQF8m4fB4bfvJYvugPwojOI5LURx7cD0MP7oWhe3e0wOi+jodhXC6Or0dHhejqKwL06aCeTy7zdw+AJrzKJKRxd1dsVkfHuIhxFBUMC40ahfiRTthBgDfUR4JiJGsW6ADcYzJ4Y8Q010gxARVKZIgVMKb5UglVTjm4heug+X2LbvC4dXl3aOvuDotWrtYCnnVhqUC8TYt52qT7bl/WFVqXLQstSOGswExSXXAgAfIKVxPTcdQpY8PD0qE/C4MPHoQBLft/cuFceHbpolaN9odRXX/zRoss9A/lxFRyAJy6Ur1PDsELzHCH8Y4EhQ0CcNQuLQJuQJwFRubmB6CnfzOpTvfWC5RTPICaMALowFm4BJizgIfrgDwcqD3jpYgyyjinE7RKB94gGw1hJpZu26Fje1iu8zJJ38vWbwgtch1s6uj0J5JznXEgAfJ5qLDXmoK/nhgXoI+F8bRxdOTJI6lZHoYRHS9u94cnVy6EQRlKRx7cldpFPU8IaRJ6xjhaO6AOgMVFc5dEUbeYcVSAjs4cNUuzDlQwHc0CkXRZagnMI65GRklvCoC2L9qJAByVilwghe4MYBGIwwVXvviT1T6Ls0jfGnAsWRuS+kvxTzp7ekNX+mhR3BMMmou0qKelc0m0gEd6clZiJqk+OZAAeZXqbVKrQSckqY8qIBcLjR6ePhkeXzofBq5dlPvioBYgvZIUJclPg8AbeUSYd4FAxKCD+XEdJKjEhZHl8Es0TTc9usAc8u3Q7z4IVLM4SN+mAxdYowOPglgpgJU+o06J4p9AYQTe1aQ1V95mvNQPxkupthZoJrSwqTk0ykDJIp2OjT2he/cHYcWu3WHl9p1hgVZdLhBwN+J5UidtKVe5k2tTHEiAfIoX8/rJJCcBBzFdJl6NSvUyFIbu3g7PrvdpgdGV8PzGdRlFn0odI790qV7wdCHGhbkwmnG0PsAc1ZK7LxLXBeMofunNEtkjbxedpX5BocQghbRuEv881Qb+6XifvEIKV10QA8V036C7En+jj7UJ4hK/ZbdMRx9skPFyyTKLNNi2clXolMFy9a69YakW8bTqe4uW1rN8XrowzfYYUOujDVlFJH9m5UAC5LOyZ35/HH3xQobRRyahD0hKH75/T6oWjKUPw+jTx+Hls8dhYlg+61LPIK2DMkSfU4+cX0ILyM0XwvAIEjmhYi1Ilz6bcVTnJl1Dx44qhqJQmghGC8hojlv9nREwp+O4CMTRedsCHs18UKdwpDE8TYs/ybk2kgkBqv8G6btxHWwUODdrgU5r5zK5D64OnWvWyXi5xjxPulJawCM1ysK2RQbetVGChIpycyAB8nJztIT3mZ8yOk6ByYQ8WYbkrjiId8vjxwrW1ReeyCd9UBI7kvtr6dtN2m3BfTGSZ0vIel4ehV58sCP9ebRqtFW0t0pSd4BvkrSOpI4nSLmSa7KR9RlY8AE3CVx8joJYRWDOEntAHD2/NEKxNO1L7Ho1PqoM4xOaoY2HZrkHEnmwY9NmWz6/VD7fyySFL5MHSvOKlVEEQs2ArH0wQibpneVAAuQ1WrVIXaOK6zI2ooVEWjmK++LQ/bth+J7cF3UefPhIEvudMHT7hv0uDNJqO3VaddxaTS4NgymSvTMqF3NjlDSO66K7NCK1o19H7UJyKXmqbLlVMBFcpf+mscujKyJ5jzOY6GAhz6iWMnJGL04QKx86oM/Bfyq/Kn6CPnnOoEZBB9W2YnVYvC5lroOd2sChXRJ4u1wJ2+VS2LpkSWiV6yD68QYiECbpveBAAuR1Us22IlRhAF6iflHQrseSzB+fOxMe/PytqV/Gh0cF4oIfVC3q+NOVE2lEq7myOnRKSjfgFngLRdGhtzcpDAD6dCRK/Zu60wsRAW/8eqaU6YsAMh+HJcFGMc+l/wYUdQ2pnCPyQImk8MzznsW8nqHUKYiVikIoRe6DUkG1NIcuhYxd9fEXYfnm3rBswwb5fXeF5vZo951k2byx6737kwB5nVQ56hZiYkzIg2VCHi9EYcQv/eXjB+HR+XPh7olfbBejV8+eKlCXgnVNSPUiIxghAKJFRg4StVlg8AopHZWGuTDqAjr1VoG67d6TnmlQCo+THoO7TKGiFZjRSkzUJxaBUJIsoM1vjHE8h+om+sy3WpG/oUlHpt4abfu0RoF0x1rttpPSystt20LnxpQk8k2mF2+Rfhw9Obv0NIhXtWwvyVRS8qHsHEiAvOwsnf8XPtLiols/fh9e3LohvfptebkMWATGcYXUJZb6pCRSC4wkMPNUu8G7ANoIZNGls4em7TMaA3JbMZqRXr1EUQyUyTRgE7hqJL2YB1UKqRZcHaeonfpk6wZU5gWyFdiSeFRMin1CjJOWzqXmhbJMQay65Tq4avce+YV3JVunTbEv+SQOJED+DjQDWzX6YiCMD0hC1wbSzxROl9guBO8akvfLoI6JkRfhte83Kkm3Qa5qtSy9Aeb8J0XGR2RxkawD7VEuGZrbcSf0gYDvfuhjDujnarWTVD1jGmg12LCyslk77CzSEvqO9ZsUMrZXGzeslxeKls/L84Tt04j9zcKdRIVS7XqrrfwTIK+t+iiJGmK2jEuPPqTVokOK8cIxeLs/DEhSH9XWdKMDT8MogD84rBgvw0I5Ng6oZeNoJJmn8dx4A5Cn1cYRSuuCQ7yBNqoJuzOfIFYlsbvoh019IrUP0jcuhNHWactD28oVYbH8vRdrI+MOLZtnA4d2gfoigTvug8nKy6JZ/s4/mAD5u1TFBmICMtQL2tACf/MR7Vo0KH/0QUBd7oxsgPGC4/o1CxuwUO6LUymCxKnvtfvJXBlVXtQlSOxvJ4f/XL+9fXd5r8yWt+pHIE64BnaWb5YUvnzv/tC1e19YtjHaNq1DS+gt9om2VUPyTtwHy1s77+LbEiB/F2tVZQLMWTXKXqOsGuXAnXEEUL99Kzy9BphfCQNaRToh0J/EvU0J0MCNcUrstcs198el71rVezvDLLQCsU9knmDwke1Zuu9OGStlvNSKS+KfLNqYCu1r14d2Sd64DzazbVoLBswk+qDzMTnPzoEEyGfnzzv1K+DOnqL4pD+VuuXeT9+HO//4z/BqSGAvwJ8U8KOvaGgS2vBJ908ll2yBUP889WvyKc0BgbUlWMRMQeorwFwe8fqqxU6aAXXIZXDV4U/Dmv2Hwrr9B0MDqy4lnRP7hEiSSUo4UCgHEiAvlGP1fL9AxmK7EKxLOnLiow/KKEoExiGFAmBXI66hSx8fHNIWdoPCofQmvA0eYCkB8ZmagPEqHfeEmDgLWxZp1x3tvNO+SEvn14XFa9ZLAk+FTum/+Y4Bs12xv4M2eMBWYbOLnGqimXJMricciDiQAPl73BLYzYiNpAFy4ro81V6jGEYJAfBSOvWXivGCnp0t7CbHFI2RndVZQSOwWTB9Dft7zEUVXQMkfLEFWexliu5bu8u3dC5XuFgZK7tXRrvPK+7Jii1btQpzpfl+J54n73ezKWfpEyAvJzfr7F3obEmE1MXfHMBmQdELbXwxqIMNMKKdjaRXl3H0lQJ3YUR1b4s6K26FyI2Wz78WX1qWdsnzRK6D8jZh38tO6b3ZgYczxksMm02trQLx5vRAmMxuKlQp791rEyB/76p89gIjgb8ceC5/9KdhRIedFbgLo+jgrVsW58VcGGU8xXBn0jkf3iuVQOR5gp8jIRGaZLxs0eYNHfL5XrJBnic92vNS4N3WpS3VFNRqEQt40jvPz8795NeEA8VxIAHy4vj27j6FmsAPjKMCdrxdhqR6eazoi/dOHAtPFRLg2eVLWomoxToCsgW2gbSh+jvGl7ThMtu4K+Ml0Qfh00LFPlm6bVdY+dFnoXvrttC9udek8FZJ4Kbzxn2QQe69GujesWZQB8VJgLwOKqmaJGIcRfXC6tGRR9pvVAbRQVaO9veH4acPbbs6Npge00KjSW2QgdcLEfqmb1NXzRKUkrfKYoOaPE9YMap9L3ELbJSXySIW7ihc7LJNm2wbtc7N20K7pG+Wz6Mfb9R9pSTsFxw+qOLNwoDg51Lene+z5B2nw/OfTxrypfV9vy8B8ve9BRRQ/ozHi7ane0UExquXw9Mrl8KTc78ZuI8+fy6vmFFBOW6MrBjF/Q6plqOO9MFGs0jOGHRxwxSQBsVNl593m2J9L9+1J6zcuy+s23cgtGv3edu4uESp20ETA/SYBs9xxciZnJwwMF0orxbcE5u0PJ+zuyqatC/qypWchgmtKxjXPrPjCtKGW+qkFjFFNGhD7SwaEpfJcnG/+PckQF487967J006FMhMjmMcHZfKZSAA3iOPH9qq0QHp0Afv9lvgrtEB/aaQu5OvFApAz+COVx9gHhkvWX3ZKMm6SQdqEiTwjrUbTAfeuW6Dvq8Mi9CBy33QYn+XuHgHAH2pfVoHxLcHmuE80TZ/zxXd8pVmOQB6k7xh2rRQqEM7Aa1atSqsWbsmLFZUxEWKfliuRP2OKPb9C9Xbvfv3wyOtCn6u+h3VKlSAvUkDSEtrS+gUDStWdIc1a9aETm1usVg8SlJ1OZAAeXX5X/e5R+EAxhQjXd4ut/vDc7kvRlEY78on/Z6MpY/klz6gLeqGpJqQ+2KsxJE0WQuSemQXMEpQXzQ2mw/4Im2b1i6wwvNkiTxROjelwlJ5oxALpZzGywlJvC/lMXRXQc7u3Lkbbt++IyB/HJ5p1gOQ8zvx2gHyziWdYY3oWr9hfVi/bl1YqQGmra3VJPQYawv+SB6jitVD/nfu3Am3pDp7+PCh0cDsYFJqpUbZQ5plEwC8V2og2yAaNmhxE3S0oHIS0CepOhxIgLw6fH+nco3CARDbRaCDG6NWiRLXZUCLjZ5pE+mnF8+FJ2dORguMpCqwJMA0I6m5vsw3O6aremwZvTa2xg2nQTOHxRu0aKdna1ixY3dYvnVLWLoxZe6DjeY6KMASmFkY4BJVKV7qoaEhA80ff/opXLlyLYxo0BsztcpkRk/u+ulGSeZNWkDUJC+YAwf2hz27d4V1AlLAtZSEFP7kyZNw9OixcP78BQ0sI1LvSK3C4CtJnQManA7UKy3iw/4PPgiHDx+ShL6iZBpKof99fzYB8ve9BVSi/Or07sJIsK5n0qU/On3CFh69kjpmTO6N4wIvW2QkoLAkEJ2/GOkYLiMDJuNIgwDJ4n53KQKhjqUyXC7Zsk2GzB75gK+zsLKlGi9zsRl1CkB58+bNcPnKlXDy15PhtqRh9NGkaMYSezI9ecHwyrO9vZvDtm3bwgf79hqYIxUXqq8mf/Tg/f23w9WrV8KZM2dD3/XrBtzTaPCJk8ZAB3bOPT2psHPHjrBbA8omGX4BeHTpSZpfDiRAPr/8fm9yo5PL1cO8PUaIkX69Lzy7dVOHPF6uXQ4vbvZp9egdxX4ZMp4gnTfomJ8kIETaVBxwXChbpevu2r0/LN+5O6zQ5g1LN0qNsm69NndQ8CrtvmOAWibpO14+ABS1xY8//hROnPg13FeYhGF5BwGEM4E4zzuQo8pYvnx5+OMf/2BA2oW+vkD1BuoU8jx1+nQ4duyX8EQbfb9QeAbyn0aDA7kREIE5gwn5odr581dfmWTOzKBZs4UkzS8HEiCfX36/l7lFi4wGwksMoxjwpHt9+UCql37p0+XO+ELRGEe1qxFSOkv/o8N8GMvGL1OfEOGRAUYCY0tnlwG4LeJJ9Zgv+BIZMRfLIwXPlJb2xdKVK76MdNOVShg2MSge/flYOH36jIydL006zilVx4A0GiQjqjoWt4eDhw6F3bt2hs2bN5vxM+fzMxRiYOBFuCs1GPkzmIwqDg8qlWkgnuvZtGTOT43aZu7jjz4MH0jNkkppECxRzZMru+Ta7BxIgHx2/iS/lpEDTOMtwqL06GNyYXwqlcJjbVN3/9SvYfDm9TAsQHnzelwbIkuPLqCIDj7EUMw+xr5n6OO+dLKP6e+61fcs1QTBQvQ2tcpgl9LuO9o+bYU2Ml6+dYf2wdwUWvD/LlCi9SyLOd+7d0/qjGvh15Mnw8WLl2Z/hRfZi6nvSMStLa1Sb/SEXTt3hIMHD4QlGoRQb+STGBAeSQK/dOmSVCq/hd9+Ozs7gMfytvfrO+9g4N2+fVvYuXNnOCi9fbfiy8w5EORDYHJP3hxIgDxvViU3lsoBOr1JkwL011IrjCqk7ijhAOTxMiRQY1u6J9r0YuBGXxiWG+PY0IB5ukSIns5dU/4GRWIUUrxNjt7/mtjfILbfLom6qUNxvqU+aV+93jYwXrFlS1i0YlVoXb4itCoGeHOnwE9RChcKAOcTgK5fvyEAPRPOX7gYbty4YXlb/gBmjuJ5mfwMkAPauCMCpB8ePmxugfm4A1IPDKz37t0PZ377LVy4cEGAftl07HNK9DFAR80DrevWrg1bt24Jn3zyifT1a21AnE9eOk/e13MC5O9rzddYuTGOEoXx0cWL4fGl8+GZPF1ePn5gIQKioF5jkfsiQC3ksEFBQIbqIwKMtE5XoLJAnh0LCQ3bKC8U+Xe3r5TPNRs5bNmhDYx3hFXbtyu07GK5GLZWjQvQf/ny5fDL8RPhmqTyO3I9BEALBXL06Us1GG3d2hs++fjjsFaAilQ+VyJ/XA77b98OJ0+eMqn82rU+A+C8gDw90PAeErr6zT2pcOTIkbBx4wZzlUyA3FgzL38SIJ8XNieZzMUBCwUgKZ0djV7Kh/qJVowO3r8bXkmPPKLvr2QwHZdb3oT2JGVzjEnpci0So1QhC7XvJQuOGmSYbNYCmSbpaFuXdFkc8CZtl9ZJMCvpvzvlA24SOBs5YFCsoP57tvIiSSMNG5D/cjz09V2XnvqeGTkbcKPJQxpH7fRaM4+F8u1mkVBvr4D8k4/DepUVo+dcyYH8lozP6Mah5fqNm/kBeezlcSBPyWvl008/EZDL1166+zkHhNh7ko+lcSAB8tL4lzxdAQ5MCKSHMYjKOMoWdaheRhWJceLlsAH56NCghdx9LeMl0QeRvlGL4CJoGzkI2FxdApAv6loWWhUDpU0rNFnIU+0EkCMNo8o4flxALnc/VBxI14WAH+/hflQpvb2bw2cCUQNyxXyZK8WB/BcNJleuXA03ZLNoZEAUT/NN2UD+8ccfyQ1xow0uhZQl3/yS+3JzIAHy3HxJrlaZA7bNnKbtTNwnJYGP63ijxUQTWi4+OiRAVxyQSHeOSkVeKFKhNAqkG3QswJ9a0nmjVCcLtYjHpvi6qVam+mUBcpXZgFwSfNmBnJlKPrMCaiCmWkEiT4C8Oh0nAfLq8D3JtQAOvBZov5HaxVaQarEMIG5AH3sH0uzCBvkV4r6I2kSSJbpyVmrWWioLkKtQqFZQxZQdyBOJvNaazJz0JEA+J4uSGxIOlJcDZQPysqhW+k29w8rSGyXoyFfI5TCVSplETvyVjg754VfJBlHe2qqPtyVAXh/1lFD5DnGgFoAcdkIHXivH5TmDH3tfX55eK7G6cNUKgbO2bOkNh7Q4CfdDAnzViiorRu47+zEB8ne2apOC1SoHagXI4Q/eMqdOnVagrPPT/cgxTuShJwfIAezNm3vCDvmy79+/3/za8W9PgHz+WmAC5PPH6ySnhAPGgVoC8sePn8hj5YrFWjmtxUmyMOSupRmA3YF8p1aW7tq1ywJ4JSs7c7OwklcTIK8kd5N3JxzIwYFaAnLbREKujydPnTJdebSRRRRrZZpEnQPIXa2CofkjxVrZv/+D0CM9eRJrJUelV/hSAuQVZnDy+oQD2RyoJSAn+uGgoh2eVLyXoz//HJ7KX5/vxJwxIHcBHSCPJUCccnAP4XP/8pc/h48+PGyrSvmepPnlQALk88vvJLeEAwaA1V4Q5NXAClNC6bLC87IWBZ07d87io+MeHnnxp+/MAnI0MKhh1qxZLW+VTdrk4kDYotWlgDgSepLmlwMJkM8vv5PcEg7UFJB7dbwYHDRp/Icffghnz55L79M5YQt+kLxdjYIEjlshoWvZw5MNJQ7IwJnvilLPLzmXlwMJkJeXn8nbEg7MyYFaUq04sWxygZrlpiTz23JJfPjwUXihWOXEJ3+l/UTRnZMa5Y2yRPuGEiSLfTtxNSTyIe6GiUrFuTn/5wTI55/nSY7vOQdqEcipEqRudgvCAAqQP2MjEH1nw4uRkZcZffiyZUsNxFetXhU6FOelvb39Pa/R6hc/AfLq10FCwXvGgVoFcqoBnTmHb0OHND5KfBsdzc2NOlq0C1GbbeeGrzhG0WQFZ/UbcALk1a+DhIL3jAO1DOTxqnA6McxOKNJko2LXANwJeMe5VBufEyCvjXpIqHiPOOAAWc0wtoWyG7XLNL/yQl+Q3F9RDiRAXlH2Ji9POPA2B+oRyN8uRXKlljiQAHkt1UZCy3vBgQTI34tqntdCJkA+r+xOMks4EEUdrJUFQUl9vBscSID83ajHpBR1xIFEIq+jyqoTUhMgr5OKSsh8dziQAPm7U5e1UpIEyGulJhI63hsOJED+3lT1vBU0AfJ5Y3WSUcKBiAMJkCctodwcmFcgxxcVIw8rx1hg4IF4WGhAxLRKLzSI8p0wHpI331+/ngrrpnhAGTqgpxZWrNHpIzpfG918jo7XtvluvEE0pAMaseLOafcgR3z3a/Fn3vfPzltvDxn+iu/xBG/hpfOT9uFtpFDe1jqQwwto5HC++IIgyhznQZxHtfT5fes38wLk3hgIl0ksh5cvX1noTJhNam5utoA77e2L7OzbRNFgik3eCDl7pRL45+WrlwSVEBi+DmPjY+G1zp7ID1paW1mGHNHC4ML1Umjx98919g7kZ0AFnr3UMulJDYBcHxsbF93jYVzX2UU9ngAUItK1tLSGJkWnI9Ao9Dc3N+l7s50ddBzU56NccRqr+dn5Gm8T8JcDASNali7+8n0yGvCdXvjUaIN7BOC0k4ivEW9bWpptoHT+ztZmyL9WvVYmoW18woJlsSx/bGzU2hy8sfLSV63s9JNWG8wA92om6pUUr1foBWcmJsbVT96ov0T1an0+jTtOc8MCRXNUP6E83m84R3VMPTdnBi/vN/5srZwrDuQOogSsf/Dgge3U/ejRo/BKkdbepBm6sLEpLFbgnY0bN4S1iqS2atVKi6YGoBeTqFgqkTgRL1+OKFD+YBhQICDyZWsrABIJY0KV/SYLDKnMziVLLKLb6tWrjRauUdGVTgbaClAE3Qx40Pz0yVOjm+/8brRr8IGv3oCdLsCjoQHwBmwarZN1dHSEZUuXhq6uLgv6z2C5SLxepGh18LfandBpr/QZftG54e3IyEgYEj+HhoasTT5/puBQCgoVAfp4mNC98FkBuTNJrA0LxNuFDZqp0fHV0RnsI94uC0uXLguLF4uvad56XO5cAyW01CKQ057oK88VLOve/fvGmwf3HwjUR03wWbiwwfolW7nRR9esWROWLVtW9R2BqKsIuF9av/EyPHz42MqDIERfn5jUMaG+ExPeqGDq1foNsyz1c+p4ydIloVsRHles6LYytrUtMqAnyiN8qLVUMSCnUXAMDwOkLwzAb9y4EW7cvKm4x0/UOCIQjcBnoZjUFjZuWB82bdoYenp6jIFLBUARIM3MOM/HJSoqlIb3/PlAGBhIHy8GwrNnA5bvkycO5IAh6p1ol5OoYpDINagoohuNlIFls9GyQh11qUlcuTpmMZVKZ+aAVmgel0Q4LGAZUOjQiO7nij4H3c8E5I9tQAJooudiCMPHrIkLjbJBjRGQpixd6mxL1TApQ0dnZ1iqgYoIdosWtYfWNkkharyA+rsC7Jk2wYANb9NtArB+obZAGyD+Nnx+pM4OjwF46oA2YTxW280AufNYfAbEnb8M8M5bAI1BEyEA3nbqcyThNZlEB29dGOD9tQbkzqP+/tuh/3Z/uHPnbrinjZmJgjjOzFUqSKRRZqsIBQg569evCxvWr1co23UG8Eiu85GoX+hlZkr9IrQhsCEsPtHx4sVgePb0WXj8BCAfUt0yEFG3aQEopk41etP9x+uVfsN2dd3dyy1c7/K0EMS1ToXwRQhyaZ06hS/lwoVi+VcxIIdpjJQ0iKvXroULF86HG9dvmjoj0o+jFoiC1FMxMAIpZvnyrpDatCls3brVDiKt0SFmSuQDwCFl0SGfSbp6rI76GOlbZzrtS/02oVGYykSl4h096qnRaCwCoizUaaGFqdWKFSs0qKTCbm0qu23bNgM674wz0ZPvdRoi4UEfP46AhMb3VPTz/YlmDZRlQvyDhxzQDGDbmUwAlxlSdE+EPjRKb2yoBha1LzagWYmk0bXMpA0A3g6B0Gy8niG7mrvsbc9Csgqw6dTwE+B++PChSZu0F1QHzl+eISGdGf9m4q/qQIo2u4d2Am+R0OjMSG2A+cqVKyTNdYWlNoBO8ZbfSORVa0AOb+grx4//Gi5cvGjCFwAInSTKGnWRqM+2qU92dHSGrdu2hF07d9rGEvTd+Ujw77notf6erltC7969q8FHMwnUKAzKU3ULvkRlyPSfHITG+w2CUGMjKpcmUyV1qWwMYAzYSOmrFIvdBCPVKaBe7ZltxYAcCYcpGoGB2J0bQGfEjBpEBJr+GQYaE3WZqQvT1U0bN4Xe3s1hy5Zek46z+c79VB4SLO/loGLJE5UE06shjcbDgHi6MfIO8gQQLYGNNFB1Xv/utHBu19S5S2C3fcf2sHPHDmusVGQpCamQGYrTjLQNgA8PD4neaLoPAI0I5D05nzJ08sNMQMNPzs/MC3RNUgjvodEB1sSRXtyhQ2caJFIkAxcS5hIBOvUwXxKWk1nqmY5Lu6Pun0glRVt49jwa3Ac0uxkeGQ6DGjBfiP8MpAzq1h7SGTuf86Ejm8d8B9QRRuBth3jbrjO8ZDa0onuFSXe0H4QTOv7ly1fCsWPHQt/165J+79s1BoR8E4DG/dQhfeWzTz8peKceeAYvoq3erkjguqit3m4ZEKL6dJ44nyhnlO9CE2zY6o2Z6wf79obNmzdb26oEqEEnAhsSNvXKgIzE/VRAPkRfV5/hOr9DH3Q6zfDTyzEbb3PVKffDY1NJCg+YxS6VVO6gzjn6rNmuQL1cgt5sdOb6rWJADlOvX78Rfj15Mvzyy/EMuMCUOIOnESU8pRLQYTH9X7VqVfjqqz/Z7tzT7tMX7uP9fX3XdfSZPm9A02Y3pHo+OSswBuT23uzvXBRQYkykATF9ZED5+OOP7WzPFPmHqep1dVzovik10/OB56bXQzr0xue0xwecorID7CkbhwO/PgPqlIt86HQ0UqaN8Hvjhg2aCW3RtLLbQKiofKv0EGoqBkVA6YpAEpsIU22k78jwNWFtz4AmV53PRfdsz6T5mgERMZ182gTa8BcJbo3sP9s1s2NbNPTpV7RH5tGjR6eAXLYN6iRTV3PQQ17cXwqQw7OhoeFw6tQp23zZ1E4a7BbOQYuDHvaYNqnnvvzyy3Dw4EETBCoxq2OAhk7Uswx8d+7cMTBHdRvZNiamBsJYW8+wcLa6y9w08wd47Ykyoyqjz6xQP+np6bFj8+YeE4D8vvk8lx3IKTAqg/7+2+HEiV/DNYEsW0c5oM4G4hTcGoiAhgaKp8VXf/pD+PDDwzal4RqSKu+7eeNmeMCoLFUEUvkrXR9NGwMBqUx+oJhX4myc9Xu8ETgtGtkd5D777BObRrIjChWZT4IfGNXoILdu9Ye76B0fPLSp4ZAkQ/NAkZcANNOBjT+QzMyhQolNdV1CJx+kCMpDh0SqQEJfKxvBuvXrZPRdZ1NJeF9JmootKvyNJMp+axd3NL02dZUkNTyUrJOLv6ipaFsk9NyZNgGbY3VuNxT6J/0O+Gr/Y/kAiPAXcKPdIJGv1s46G2QPGhYw0Zb7NKhDN8BfCI8pe6lAjkrl9u074Yxmzb/+elJOCHiUjdssVXPVmTlhRY1UFqgf9u//IOzdu8c2YGYWYoPlzE/n/QsA/lADMnxCcMO+hvoUUGcbunHVLXygbuHdNJpnIT9vAtI3et36c+jT2WSDel0iQKdeuzWjxcYHoDObr8SA5vlnn8sO5KgxaBzo2b7++p9mLIHhswJBNsPVSNDPUYlf/O7z8NFHh0MqlbJ33Jfny2+/nVWj+9UkWSQtfzfnt5J30uw83rpRF7gn+359B+TohExdaaxIrqgeZks0LHiBd859gTedFRXTfenwmP6RjG41CGt8ni8/5EMr982V/D3xd/szsd+g1TsDn0mADTz/YN8+k9Bb1GCbxQfntb+mWmfoZfBzVQozv4tSC/QLlFBNkejYTq/xOFbmDI/j14opTK7nY9dy8RbVYa9meHR02ggDPB5dBkSiOd9UKpBDGzPECxcuaMPls+HsufP5DSTenkQq74Du3t7NYfv2beHAgQM2+2Dw4nqxibLBG2ZYly5dCudF4/nzF8w5gBk7g7F5m/igTFbQ5bSRcfHZ8/T05O/S+71O/Qa+M3DhsLFr107N3D8MKwXqgDvXOWiHlUxlB3KkI6TP8+fPC8i/NV3wpDwBCq1UKpHRds/uXWHHjm2hp2ezJO7RcO7cOdPhYVHHkk6F+7v9XG6GURFIqx9//FHYu2ePTY1n26fQQYap/d2798Kly5eMZqSJly+xoEv6TqdK0ezvz/dMYyT5GZBhsNq6ZYs6aY+k8/WmQ0f/Cz+qnZj1ITCgz+3rk5rq1k0DJYDd+eu89XO1aHae+hnBAM+HhjQfoRlJODPYxMFoFqJLAXJogU/MEM+cPmOCFzp7AKcQ0OE94HUqlTK10YED+82jBftKsXynXMyk6OM3NPM+JyzBkIkk7msnjFfiTbF5zMLW2X8C0NNgPu1GXWdwAbzXyKOnpycl28FGU1Eyy8UuUghfp707jy8VAXKki3Ma3b/55lvTAedBx1u3UJlU2npN7dmpG/9yDJdIDujfMRoW2ujeyiTPC+TT1tYSDh86FPYIyDfJq8Y9EOKvoFFDNzpZQOa69HnXrvWZTpzpPsY1khkt8+ys8ffP52fKwoFkgXS+SR0V91D0uwxi1doxHfCBvwgL6EmvXL0WrunAwA0gUlfz3rlzVQz1S6fPkeAr5YDOzOEGd+7Ps22UCuQIS6hAT546GS5dvGxqUCTpQgCHspDcjnTo0EHrqwgBxdYDTgw4A1y5ejXTf5jFZngGr8g2zuP4Z6OoQn+o06jIUxlATrq/NC5ETdmc6SsYg5nB43fPuoN8VbJTL8/vU9mB3EdSgPy77743XXB+pOS+q7Ozw0ATJiCFYa1Ghwfjim0ouXOa+aoD+cEDBwXkuzXa9uQEcpckAJiLmg4C4hg0MSjRaejZ80XzzKUp7BfXBeK9wwC2T6ol/IbxcKlGAsQBHwzcly9fNjsJkpoDivE3V2erBrHZecbAZhq92ffl+b0cQI5h+PiJE+ZBg/RbLJCbq24qJTXoh+bFggG2kAEhXuSrGphRzV6T2zJ9CaFtUgv4GBjVg+wcv7+WPrsunRktsy6cBlKpTWH37t0mEGE/qESqCJAzDTIg//4Hk0xLIRzJjwUrTOdZNj0iKzVLbucLEOlw0Yq2VhldPzTVClMmGqon7kGlhNsbDY8Oge88+kdcIknQO180O10lnQFDJfSR0M1CkOXLZaFPpUwf2tu72XjAADsfCdBikRfTbQD8pgAItRULQfD4cZ3pfNBSK3mUC8jxKsOD5oaEjmKBfLlWQbL+A/UjBj9mrIUCuds7TknVc+rUaRmtH1mf8nhItQ7ijDFggTkSaNYAZi0SoK9cuSpsVn/ZKrvIli1bZSSdWhxWrrZUWSD/Lg3kaVDIm2juR3qJSTD2bPb3vF9YwI3kQUpXCp0Fd6N26bg+++yzsE/GP1Z9xgGMe5j6ISn+/PPPAvIbthiJSq0r8I5KPiXxOC90nTIu1LQRWwEudAcOfGAS+kq51c1HYkYTGb0umtGYRVPQlBkgndZC29p8EE8eTpfT6fl6W/fvBZwpP2CJUMHAWogfOW0TniKR1wqQR55dt8JPR382DxrqlvJl6rgA3szrrbnqVtfgMTMJ7AVoFg5JNfvF736XFoBmd5YolP7KAnkZJPJCC1TU/TN0JjoKBz6/y7uWhy+++Nx05EgbrutClYQv65UrV0yquSq9HlI43iqkeQfyGcpSFF9iD/mghJTRLcl87do1kbuZpAzcMyupM8dzAW+fs2fPhauSHFkIgrcSNAGQJqnFaH1fPr4rQM6AgqcRasgzv/1mKklcIusCxHM1NgZr+qGS1xFSOKvDD8nXPpVKmZoluqM8f+sHyB2gYkwqDwv0ljTT40YMQMIPpE4Wyhw58qlVBtNPB2im+4DM8eMnTGLESMPy4IxnRxnpNeBKF9rzd7Zw2fRz0Qe7y++xL2X44/zAbxhVy4H9+zWw7ZJP9AZbPESZy5knnYBO3td3XTaHi6auo4NnUo56y/z2HnxwkKh3iZygVti+UMey0pU+hT0MpwBrT/ShekpZfZ5+Q13hKLBt29ZwUJ49hCApZ1+pHyCvdEXGQMEZT7wFpkU7d+6wJchMXzHqICl4Ql9LA7x48ZK5chEClOetkvydfnMJZxoChydAEzowRqJDxKJPvhwk8neJxgaqUjtDesSwwULv4v1I5ehD9+3dZwauci4EoQxIacxuzmjdwOnTv8lTBZ3p0NSCHudvqWUjszpM7wqQ43F0WaE8zsq1GK80ZluUrZxAZ9UbbyfedipZ795n1Cfpn9gR1ssD78iRIzabLafgU1kgL1ZHXknmpt/tgOfnjFSu3wlj6TEzusR8nPz3ylsFoHLdOJ4oAA0LUX49cVLeEw8ikEGn5y8robFk6ErTS7xrFhwwG+AgqBfnOJATjIy45UixxF22OOZpgHeaiu4csbLYoCIjKL6xxJmIgoptlZ6213zP4wNdMVXJ+zEeP9AK2KvXrmrByiVTXeGtROCzzMrMdEcpJo+5nsnmv99fNP/8BWU81zuQw2PqmZWbrAJHGEK9Um4Qz9RlGsgzM9d0XWTXafb3oqssC8iXSE/O6s/ff/FF+OCDfYYxmZl70ZlED76XQE5DoXL9yOYhYM3IibsdgYDWSPIkVoZLwdzPYp++vuvh5MlTkiTOBgLy8z4HzOx3zvjdpQQHSp2xejuNPEfDwhe1VzOCaHEBy38jb55IL0RZgrk5At4MMI8ePZQf+01bBu7+ty6hW0MlX89zRuJiP/i93hnS/EP3h8581+6dZshhQQSzmFISnZvodnTsn48eSw+Sg/bKsnWyWQikHuF/ruQ8zPyWi49ZvMrcW+YP0Ag99apagX7WW+At873sabe0uGtwKFr1nFlrkYu/ufgYvw/+Z7VT6pTE2T/bBf2hTXm74gxPp6XY+6Zdz/OLt6fOToWUlq0NpwlWTBODp9S+4iRUFsirbexU3cVHX68kAHmhKosKQ6ptlosjDAWUiJFArBE8U3DiXykAZdMLl8TdzbCvL1pyz8pCdOQNCmVqjSHdgJzBeZ1jdNKACTcLPRgRmQVwJjQq/tv4p7aKXoyt2aM5tCG14sZFALH72hQATwAWUNFhiE9BvG0WJjlQeQPOi86sm3iH2r1JFgx4n332qaJWbhStxXuy8E7cOC9qqs3qYNRW+I77YFQKvXHy452ZMizQqjzaAwd5cETfo6dEVmZwjVYUR3HL7T3UOZ2d90R/MkASz7Pcn+EVNNYrkFOn2DxQT+KpwkJCrpEKrmevAz1rfV7fqQv6Ezyiv0SzWWLfuPtfNGDTZyY0g6VfsArd+4f3kaLo4aF0ciBHImeGfwQgl0QOprjThN9b7PndBHI6FeCYHn2903rUMtQmESC2WihXA0t5oiDtshILIAI8c3liEACL6R/xXn4+9ostrZ7GfBpUgcnp5DEaXXt7mwB8qcU46RVAMjNwevJt4DRCVCz49BMtDq8aBh1AHk8bwh94fi692IX4H/g4R4J2Oh8DDate92rB0B4tfig2QTMD49//8bUZjxmIlMVbg1be76c+cpQDur2jwvOok0fqKj6juooPlpTR+WaqK+NhtDDN2xfvyUiSeRNY/I31DuS0wYta+MMSfGInPZPAAe+tPc5Qb/lwy+uVvsIqy5YWBLR2G/CQglmZ3CYQpd4QfghxTGhj1KX0D85e156f1a2N+LoCbQXQ522N4FosEPrii9/VmWplviVydViYxoGeO9q/UvGhNRISqIjdcZYoljAVyWjYbPtYRnvyZSRyKlkrsvgel3h5JxWMSuXMmbPh8hUtadbKTTp1vuDqjSJ+5r00EnTg6JttezkNJBYbXKsp2ZyA+CYMKnF64u/I9Zn30qBRs7DkmU5CgyU+N541vliJDS0AKY+GmHkX4MdBg50t6XdCKdBBaKRIGh9p4RRS4lyBxbJfC72AOBEzj0pCQ1qD56RSeGwvEJ0+O+Nd0MbBTj60D2KGQ/MibQ5hMzRJcJlZll7g6i46OK6lxMBmlyEGdmYQFoEzDQKWn/9x/uUYTPyWYs9VB3L6m9SApEIXBNHmcNv94YcfLfIiMV/wVCmkjU/jW7qt8jwhsJlV09fpP/R9gJvNMHyQRiqnRaASHdOCsnFJ5ETIHFWwvsEhbXen1cKEQGYmSx/hOqAfb0PT8p/lCzxC0mfrOGbVnyr43u7du6YJCrM8ntdPlZXI59nYCZOjneSjIFeoRJaoEgnqj4dFd/dym9q4qoRKzRcg6DS4RbGA4uefj5leD5UFgJnvO7JrxEGcRTbollOSvLdv32axKpgV0CgB+XIlBh0kXFQutxRkqr//tsKn3jEvAaJNQo+VBwSnY6Q7x4z5x0DKp7As4f/0k0+sDAxM+fIG/tJRiMSHOuW3s+fMY6Uc5adMJGhB0maQ7lrWZeCzUuozYkrTNuj8gDmD5kxTXmhEaqPu8ahhOz4G9/v37+l7pMKyqbp47SAXZW5/y/qnnoGcARoB429/+w/FejmtATvyVMkYsvPlFFWbbqvUWZscAlLypFq/fp3ZlRCIOGar03hWDNQMzqh5GFzoK7hGsssU17FBWR9BOvfkH70/+HXOuub7GqxTvCj2NTh48IC5MZezf78zQA5zGeXpiIzIxDfASNnZqdFZ3wFKDIR0YgAcJtKx8wUaRmtUKujzfv31lFUulV5QilU0nZAGyHQLOlkswE4rVDaSIg2vEPryoQMe0YEAIqQMGitA3t+vOOla7o5rH2UySdR6xxxv9fKkOxLvZ4/TXbt2KW77Dov+5nye400mjSHZEvfj/PkLphJCYisHkNMusIksSs8akIowHq/WgVqNnZII0ettgzxnypd644BPgDrx5F8oHv6zZ5rlCNDxtCEsLTsUjese6/TS01qCX97p52JIHr9XHchFI+UjFSqREz+FgfB///u/y7X0jEJBRO6z+fZHyzTrD8H1CJ8BWK5ds1aq0sWmQqUvzVan8dfAUwQe+gjCTWYnr8fERFf4DakpCd6HHj3f/gmPeO8WeXURtx1hjbUX+T4fp2+mz5UF8nlQrXhDAjAwAq4iaL8c7zG+IYWzjyISL+A4U+eciTl+nUpg04qz0ovj63rx4iWbchXT6KCXgyhpRFRMpYhd0msLBNgLEF14Me91WvM5kz/gxrSRqIwE7CdSI8H7uUYjtVQA8DAbIi4L0g+bJnx4+LA1WGwRDJxzJTo1+y0ek90BvSmGWVNbxUFwrpdk/e68RixCnUbnwe8dmwPAY1NutQsAvJTE4IgKCykdfl7W6tNbN/vDI3V+AAE6zAhKJgmQG6sRJJjJ/Md//qdmX2en+FNgRVhfUvuiDglot2/vXpPGEdyQ0Ivt804G9cpB+0RCx9bEtnyPFSKCPsQxU3+FNhKzQPrBrp27bG8FIrkyWy1nqj8gd3BRhwBgmb7CsCVLOuQyuF6AuE3xy7eLUcus8/pIXEqFInlRmabPE5gjyaLPK/id0IxlXJW/TDrZ1avXhI8/+chilzCToDEyIM1HgmfQAVg+evQ43L5zR5LRKTOIou+Ft9MaaNQmZwQi3sczvgHx559/ZtIHsyEa8VypX4MI4Q1+/fWk2R68E2SAz/Of60X+u3hN+eA3HZpB/Xeff27Bi9iX1HlNHU4rpz9fwNl5SX4AN5IbQdNOnjxtqqwxxdEnD8vHy1EGQIff0E/b6e2tr1grBowyxP/971+bsdP4Q2UXwBf4zsEgzaD8+edHBJQfqW4jr5RS65UmAI+pVw68pxiomTEe++UXU7V4OO3s5uK0cR3hbINUPcRpOiwBB8GyVOEhO7+6BHKkPxKB+ZHC0W+ikkC6ZXq1atVqU6PMpOfMZsJc35nyU4H//Pa7cO7sOdtujootpKFAM4MO0imVuHXrFtvQmTPTfK4X8r65aC7kd5MmJYkT1xswJQ50Rs3iQJcHANF4ARYMSSxD3rt3T+jpSZnumeu5kncUwpaePn1aEs81GyitYwv8ik3QAp8ZRNCX9vT0WORKvGuYnVWK17QLdL/RhiKXzaZyR8COgRSBoJySeT0DOf2JSKH/+Pobm+EWU9/UMTyg//eo7wPiGNsrlRB6EOCYuV5VX0GVhs0J1Robg1D30ERiVTh9GkGGeP60P2aDqH7oCzP1h2Jpr08gpwLlKUGHxFPiQFrvxJS53CMdjMXYgd7zm3/+0+KMG+iqS9p4kifWUME0BKSn5cu7tLrrd+ETGQV5V7krtZjGQCPEmHP58pXw7XffqZPdNTVLhr48gJx8eQ+dq6cnFXZs3y4J5JAZPo1nOYAZnqCaIALf9z/8IJ3kM5v9ZDo2+c7GY/+N+9L3egdnes1uLWyazSxt8eL891rV20pKSOZ4PSC9nZDe/4mAa0DqhEy43TjdReZUdSBXGdygW6iOnD6FbQbh6JLWDGTquwBeeJ/CSYCdiXbu3Gn7ZRbwiqJupY3Tbvv7tXew7GbExmdWC5g7kLdoP08kcQCcHbY4g1eVSvUH5OIEDRiG7dyxw4LQYNzAbQ+QrIRqgo1pfzl+wqb8SBIZtzQHtzlqB1ppqNCGnhbXI4ClJ5UyEOe3aidoxICHhNHXd13b0102P24MPlzPl0beQ+cmbOcGGW+//P0X1oiZ/uYasA8LMjYAADUZSURBVNDJI70S6gDAGxvV4gwtw883v2y+kT+DOe6lbFO3ffs204mju2fKnYuG7HeU4zsdHTBHDUfsdMAKvrJJOEHVii1fnLaqA7mIgd+kQoG8LBK5Rm5UZwhGCHEfSmjYKx15Rvgwysr/hzLDewQfdP0YujHMj09E6wrIsUmzUmaDeEJx0B+gq1KpskD+neKRa4VhuVLEwDdmPMBQ+PmRz20kppPSccudqCxG36+/+Ua6vH/YTiUGajLAZTpiHmDOe6jExYs7zCBz5Min5lPKiF1rCdc5dIEs0jh+/LgZdvA9x61ThY6k3rmITvNkuaa8X331Rxl5dppxJ1dDBsQZKN2IjP+/gW0RY5tlq06GJwqqNqbZ+/bttbaB50I1ElNxOjy6f4x6uCkODg6XZUCpZyDPqSMvRKChKaquERqI+UNfwsB+UGFimXkh/SI40U8zfbUCDQAawAg/PAvaMPlzzIfwUFkgL9VrhZ4Z69BIOWxenEptTAey2mNTKUY+GFbuBKAhMX6r6R9TQGs4kgIyDSMPEIcmOhyNC6mB1Y+HDh00cGHBUq0laCX41l25JbLV1pkzv8lw1xeVXY02r6Tb4NWSpZ2mPtqtoGPs+dkiSTk7Ian+13/9d8DYiasXQG6rI7NvnO07+aXrhZV86CL3f7BXM4HNph+vtIQ2G2k+Db9+ndW1MuZq5sHgVY7OXc9APs1rRQ4EmT5Ff8+zmcF32hl9n1XbzHZTm1Kq95QZtxnQGcArgQ3k7clwQXRwjicfRDJli/9Y5s91A+QwCYawSw2LTj6Rtwc7uy8vsxtPnL8AC8vaj2rXn+NSrWQAocDGBt24GyEhIp0y3c8lncbzrvZnBjDULD8rPjThCHAHzFvFovZsg1dHe7RsX4MX6qS4jpD6xPjHu/+f//f/MxA3Y2AxElQ6v0a5eTGNhceffPKxXCEjd85q85L8kUDxZvmn7Cy4J1JWG3zikkqBhNYzkLsf+d/+9u+Brd2IAeSDsbFhOibOyhkH0g4JS0uXamFdT8q8RFYQakMrdxH0cHxA5Ua/my8peVaiy/xjbQN5urBUFJINFuCNkrbY0ACplsqpJCD299/W3oEnpWa4YNIUeRUqSWliF5rUgHB/Q6WCzziRFAt9T5nrfc7XATToeInuyK4tDGh4Y+S78o76ogNt6d1seks25UVP7onZFd5ALAb53+rMfC5FcuF9hAnAqISeFH0p6rZKS2NenrnO8AM/8//+738YPxESuLZQkmQhEmg8n6oDuQSaYo2dGLiRygHyzMpOOTBk+kUBQO48iQS9hWYrw8WUoHdd0p9j9GaA54wdzZfql9LePM9aOdc8kLskztQJR/q9ksbxhtgiQ1alkg8cqBaIytbXd902/aWRZRpaHpnTyLmfCIpbtmy2HcbXKqoigFbrjQiQ4GABxGV5sqDDfqDlygQ6miY5zcAHQArjIqsn8Z/9vYye8Q156cgYAnE5/MfX/zS9fCG8zc6W/OioH8sFjfjxvRpAyuV+mp1Xsd9R1VFeZiFEd8Tts5Qy1zOQU1/wg7UZp6W+I7gb9oRSBl76LQmBi1Xc2KQIx9G2qFVtr9MMjvS9xe2LbdBHQkcVh1+3S+08Cw1+FFvX8/1cZYEcY6em6CXMHg1MYCo65q1bt5jOlSXWjLiVSnQQgIbNfr/99nstY79rU2M63ZwA7JKEpBUaKw1jt6IBMgBheGNWUU/J3cSI9MgKUAx3DiCzlYN7vN6QkP/lr38xoIUfJECMARJpnw2r8Y7h/rwSqi2S81ofyY+B/v/8P/7NBnmWZ5cCkvb+Mv9h1gA/iSfztVQsTx4/jcrg5SkwP68HpEwGrnrbfNmjHxKu+ISMwaifWPFcCl7AQvjioM6Z7wgV6Ms5EChQdWIghXeoZ1lA6LH+EQD83jn7e4F1VqnbKwvkpRo7VWoqAqYSXhaXPXaihvGV8FJxJqNWYKp/4cLF8MOPP1rnYxqYF5D7S9K00yiQELdrFkFIWqb/NKx6SQDuo0ePNP09FW7cuKmB+YUNUHOBJPVGJ0Dq2blzu4D8rxYe2OsNNQ2BsX4TkLO9F94yeQM5zEuDn0/tF4uvqVQq/FX5YOyE77XWCal3BkKiZn7zzT/lq39b30esLMXQyvuoh3oFcgSde7bs/arZoVj6jh3Gqldtp9hkIM4gr1fYZ32ETwsXMqNWVFTZUmiXfiCNO3A3y/8bo3x393JTh8Jb2qzfgyBSTF0VW5Z8n6t5IKcgdNJeqVLYUgypFuYW1Onz5Ub6PqTxxzL0sZjj6NGjtkiFaSAVWGglAij4uRMQi4iGNBIacL0kgoURshX1CjOTnMv3ZykMapjtCgj2lz9/JQ+S9eYaSOdCX3xUUSSRxjwccMF1qo4KmGGHwN2QwZJYz6ykq8VEual7FsJ8//2P5hVE/A7a1FwDY67y1DuQww8GdDyWfvzxJ5vxIZWTrJ85lsdmXrn48NY1v9+fj90Az8jX2k2sP3vfpg2iblkrwXHz5p60bj3SryOxA/QMBAA6dcbhz8aymfePNQ/kMIq4wvs/+EAS+Q4DRbwfrKIrxC5CVT5QACfCqaJSALwIs1lQnjQiNSjoZ5qPbo5Rn+9qSRWivPyvfS1aJ7TQYWBg0HSYzFbyTd5hens3hz/98Q/mfonPP2DGgpBvv/3e1AyAGR0L10OkqEKSg9nhw4fURvaZWgW3s1pN8ISyIyQwG0E/TJuwdlEg0V72qknkqiufERW6IMiLSnuCH7hlXrx4ydRttI+C+pq/LI8zgoWlHF3Q8+RMXwVnTNcunToaAQynbFDRKTxCtQvfXbdesBCSB62F3FLzQI5ui5VbxFHAyIkelClRJRPSN/EU8FY5JiBHvVAIgBltMUDC04NNkuspATjxxPZm2dfiv+f6zP10SkIKf/G7z81jh/qDlxg6US9clB2CSHLFArl3uj98+XsL0sVAEXdzzEVXta+htqN9EVTrp6M/md8+vHIgyZe+dwHIKSv8YFbGgqlTUuG9fBnFLYEfhfJkTt55N5zevDOPUQ/xgwE2UrV022yyRUZUPGAivXqXPi/J6NZpd9UC9MoC+Xelr+xk27PVCoJ15MhnFuoVJrrBLMP9Mn9Aj4lhj2k/8bG9YflgnrfU6I1G9DH9r6f0Rq5ggDcDEJ0pC9fzKooDOQs1PpVf97ZtW00qR3V1Pw3kxHcnvoqDUl4v9pvEUiQifIV///vfWwhTlkJXeqD37Is949aJCuHUqdMWXwYffa4VClzOs6pJ5GIAdUwqViLnWfTibMqBrSQebwdQzNfdlfeUnBzc1a68XF4nPmuiP6BeWSTJfOXKbvPKws2RPX5xwkCSr0aqLJCXYOx0RrLxAvGt0X329PSYiqKYaWghzEVvd1k6YVzuftPU13cFKeQdmXvBb28gmYu1/wH+c7DKsthBiOeRyIlIyfJpVGPoHZnx4G7GalmiLbrevZB6ZYrMtJ6gaevXrzO3w61bt5o0jqtqLSdmJMzyzql9HZV76wN5srD7FOUvRAJ9V4CcNsLgjq78ohwMiITZd+16ZmAznlRZDvL+gDyGChBhEnUpQgTCwzJ5vXQvF7DLPsOsk9/mc2ZY00AO8xjpe1Kp8KWmzkzRYWAhjb2YDo3L5BkBODpyPFfGtJ9fWZIDepUbZUFlcVqzaffvs7zMgRxp5ZC2t9q5c4fNqhgo2TLvOw30LF0nZC735g3kogkQm1Qogd7ezbZqdPeu3Tbg0z7yfs8stFfyJwcuW7KvTYfxBmJTjfcVyJ3X+JHT97755lsLi0GEU9qFScUgqLdFf6AaZ9GAAEH744A+ErMH1MC4Gn/26acmvIBdpErjleUhQvLokkZPXn+YJiFtAYJ0VPMjz+vJ6TdBFgfeCHh9HDlyxDpqpTspney5GhNxxzFIIR2YSxSNqKycml7ed/Eb9Qc/s4GcjaBvaaUo4XIBMSR07i2kbg3I9e7eNJCzMwyxnq3TSxVUywnaaVPM+oj4iBoPIAcMCun0vAee1btqxesKP3v4gkoTQYqYNE+ePtHGx2MWtroQ3vg7y35O44DjU/z91AX+6YROpl3aTlTdy7V5OmEC0o4O8QfK+LlmJXIf7ZDCMXISO4MpS6UTjQn95XmmeFq4MU0iT4C8IPY7kLOalZAKSOSsyCVO9w1tLffdtz8oxOtN0w8XD+S9Yc/unYpj84EBeUEEVulm2jbtjIBhRJjs06wEH2rTCQsM8k3vGpB7uTGEs+kEQhShIdj4GBsC4Y0zYrmP1fPdJ2fI14HdFJESJDYLyNm/FuECjxccNjJea17QMp5rGshpqKhVWAiUAHkZa32eXuVAvl5GIGKt4Ofd05OyBUbsEfrDDz+ZioVOWiyQMzDYXo1aX7BRRtV6SAmQz15LtIcRqVmY2RNojM0b+MyO9iT2A6ip2THgrgGFNmz2JH1n4R9hAVbKiwq7EFFPCSFByN1KpMoCOV4rUlMUo9tiSm5A3pOyDSSqCuSa7iWpMA7QqEnUYUqDMe6HbIiNdMJKUaRQgJzFMaUA+datALnCH0i1glG8HlIC5HPXEjzCLZHgYoD5LbWTm1LDoWp5rnUdCzVziavRakLtklUsjKIYPTdsWGeB3OgHGP5RwXCUMyVAnsXNt1Qr6MhHBeTgEiNvkt7mgPPFp7k6Y6gi0cFQjf1VsVaIAEl8iwTIE9XK243o7SsIc/RHBnraDL73x44dt2iJLS1RSFoAkTY2r26Kb5M6Iz4g0HRo4RBqYdR/hN9mtTdHOVNlgbwEY+ek4hOzjVNPz/xK5EgCGDvRj587p+P8uQjIy8B1l1Ljr3JJItdv8ftq9TP0T6M9Dea4LeLPTTAi9lJEImdqyTVW8qFaYZk63iulSOQYwj0o2QaFAPCOXav8gq5EIs+/dmhb8At3Tbydrl5lg/BrZsca0PdXr0ZkIJ0QVmiXHt03rS2ms/E+ln+u5bsT2vGkQqWyc8fOcOjwQTP+s6ConG21NoFcEp6pVqoA5FQhDYblwmfluYL1fHRstOSapYH54S+jgflBhedqhH5vLZ69IcZp906DxIF/7TbFWSFGDnps/GopI9PlG9J7fvvt96b/LAXIUdfs1qYVe3Sw8Kge3A/hV2TsvGSbTse9VuBpvon3cP+74rWST7nhG15ObEZBiGUMo/RX/NAJvMbvnmhrCBTGU58tZs8e/eZKnZUf9YSrLFI5qsD92ix+m9Y80EcKqe/ZSKxNIBfF1ZLIYRYNgxWHZ+VCyYIggIaYI8UmKitaIUkn9ZYUvc2Bj7lZCVkUS1pJz8Vp5zPR5dpa20L74vbAQq4VK1doRtUjF9J1tlsPIEvnQpIy90MtCLp+47qkrcLdD/HlpY2w6XZKW+hhTKWTIPGXq3OUxJxZHo7A6KWEhYsWwvcObnYK0va+ux/OwrLMT7QfFlQR1A6ePdeK0OfaU5YFVS+kU2dVNu0Jn3TC5I5rDQj3q3ep500JTlNtN/1qumXxXTxDX64P5E177dCOWexgdOjgQRM+WMzm0UBzPVfItcoC+Xf1Z+yEeRhZ2FQCX/hT2gggs0S/EM6m7xW+qYMSNrNJho/FNgovUOyVdy0B4kSFQwrvWtZlKy5XCsjXrFlrQcMcpOiILEnHveyf335rfGZBkEuXefFFHY738K9TAcm6u1eEP/zhS+scLNknr1pOSI8IC2ww8dNPR6UmeBoGxRPA5S2AmaUgzrP3SSKPs4MBEZULK4NxGX4qPgLoz/V5UIDOdnIjAvWRl8Oa4UcLeJjpR4eiZqpvGr8561+lE8IcQgbx+fdqhspKZBYNFVLnM9GYAHkOzjB1w5uCoFm//HI8DKuTMaoXU9dUEmExiZaGxLhs2VLzJy1H5eUgvWqXaKBsWwaosABisaRyVCkAK1PIeHmRlvCbZkEQ0+OCY62kJSeAHM8A9I//+q//kt7Uut0GlKoxIo+MaV9sMME2et99970tgiFccAZM8sSU9x3IGcwBc/omBy6L8PalAJywGi/1GaBHQh8eGTZpHSme9vbs2YCEgWjDCdou7dMOOnk2//nu0nr8cx51nX0LNBObpacnFT777DObTWb3j+xn8vleWSCvQ2MnTEOVcp8wtgLynxUz23Rw2sHmrQrOg8N0ziZJ46gAPvrosK1UJa5xHNjyeE3N30J5GiQJs+ihVQeNcybJmNV7ABnbfLEohgBaSEl5q0S8U4krqFdQ2fzpj38MBxUGgFgX8xnjopiKwSUXG8Gvv560WCu8w8ru5coGkhkyed+BPJstDurRmVWio9aXmVHTp1G7PH7yWCqZpybFR+qXMfsNzzSX2uGrzfcEupZUH9MGWa+nbALm+G6zSL0T4YbZ6h++/NLWyODJRRsuJdUmkItx1TR2MvVl5GaJ/k/aWIJNEJimTRuV8+Q6fRJAWyv/UeLF9PT0mPdGA/O6dyy5VOOAPNNghfREZ/rlFzaWuGigRn3PBPyzsckHADYcwZccoyoRMms54bVzRmoVov2hXoFPVnYHiDybRgLk02vZgZKr/tlAWeDJGaBGiEBvzufHjx+Zf/qdO3fDwwcPTXJ/pb4f/R6tY+Fd1q4JHkef9TrihyITtBBs67PPPjWPK3a0KjVqYgLkOSqDykZqunDxku0Q9OjhI9O52aicZyeLv5YGwHTq008/0W452y1aXzGgFX9nPX+mITM4shGxBSYTnwH3YnjCu0hI4ngC/F6DJSEBfDCpJT4BLrStm3K5ZDbS13fdZiYGFEUM7JSdcr6vOvJi6paBn3ogRRK6DKZqiwPSrZs6RuqZYUnu/IaeHdUMkjv1NiHPE3/WQL0YAvQMNDBr3MtCtn17BOZ7bCVoka+zxyoL5HVq7MTaPTw8ZNN+VCssD34qAwqdJu8KpK0A+jrwh8eH+oDcjnbJFY+YI6VOpUqp9Fp4FgMnm1uzSw4qhlF1lGKAnI7lgMZ2ev/3//wfinPRG5o0Vc27ruaJIXRgyk38nn//j/+wRS6WtQsHBUp7Xu6qAbnoxhuDVEo8cntBlf/QjlDJoGPHcEpoYew4uDeyGMln5dQhqRRBgXfgXdWjOFKsSkbAQ71SSkqAPAf36CBIiFevXjOJnMA96HELAvLYe3kfxr9NGzfJYr0nfPjhYRuRiwGu2Gvr+iMdhhga+On/oP0a0WEWww+XkOAxekfUV8Q9JwJdMe+rJFNR2RGaAJXdMQkIuGGWMthUHcjFLOd/vQM59Q4/AXPaIgdGUjyKcHVkFytAndWlqFm5l7orpv54lra5YkW3qVbY3QpBrxThrrJAXoqxU6MWBe7pmd+VnVSoJyL0HTv2S7gsz4pbt/oLA3KkrLSERTkYgZdqL8m90uX+7vMjtm1UuXxInd56OgNqGDxPnTod/vH119ZpSgFepBxcH9GV71FM6B1aRVfp0KGF8Js2wHT9hOKPEyL5mtQqDGYZyS42g/N2M9f7eSfPV00iF4HvEpDn4jd1hrMDYI4n20WpAXGEYEcjjPvEfLGZNw/nOaPK1JsCa+3Q7Pwvf/6zQH2FGUFz0ZDPtQTIZ+ESKhWMUewlSAUCNNbxipwK8/x2bXf2qQLPowZYuXLlLLm/2z8h+aB/xE//f/2vv5nvfrE2CDhF58AbgHguqK+Y9SzpXKKZT2tNMBI9K1IduyIR/oGpOjzIAHkRVGYAQS6fvb2btaHBJ7K/rLeY2HO9zlUJhEjAxZZNLvCkQSoshKZ3HcipIw505C9eDEr4eKDQw7+qHr+XgbI5tLTG9g8uAMiR5Hmelc9//ctfLJgcAbaKTbUL5FWKtRJnJJ2NqRSLNn6WZD4NyPOsNH8fDR6pEUMcsUdQsRCel05TzPTM31uvZ/iB+go1A/rihzIoI6EWO13lfdQPnYH4K4cOHQqEz2X6Wuw7y8Fb6OIgBCuqpJ9++tlWs1J2Uil1/y4AObyhXwCUHNHiuwm7Bn/oH8xmza1VA3VjY5OO6iz4os5ooydO/Br+++/MIofCq9HYXqt5YgJlJrGIjkVBSOTs97lkSfF68toEckm8VG41gmYZh9N/oAHD53/853+Gv/3t3yPQlRtSvlOo+LuoPDoe1urFWjDz5ZdfhCNyP6KRlqIbi+dRb5/hSV8f4Wx/kKqhT6s979oCH5MIfdZTRKHMg4UYL4q/QuTFQqXMIrKc8RHaEAdG3dOnfwtXrl4x10ui9RmIl1DOqgM5XaFEYyfSLvpovMRwy8QWxYKeUQEkicV0S6SSZEBevXqN2ZqqpZL0Poxwxwz9tOK9XFZ9ZgS8PIE83lh6ZZj/85//ZLH00ZMXmxIgz4NzR4/+bLt7P5BURTyHYiU8GgIgxZJ9luiiz12/fp1Z/Cu5e0geRZzxFqQkBjMSkhADTylSZHZGdF6m9SdPnTLDp+FaEa54/l54TFD/rq7lNuPZsX1bWCXDJ/YJOlw5afc8c52hA5DCA+LevXu2uIz4PcQGQerMbGr9ngJ5JCSNmwER8MZDhLbAcnsW8kyk2xyrhRF+APPu7uWaZa23mN7YBVClVWNGi9GTQGdHf/7ZAutBo4XRzdUQ5rjWu3lz+CoN5GwTV2yqLJDXqfthNjMxel5SJzx+/ES4cf1mBAhI5t4JCxiJfVRn9MWz4vDhQ9KTbbVFLIBktRP0cZA4Y+yxxVD6jk6PDoSE64DoZ3ugiD8YPYm98r2k8q9l9AT8WKxRSnIeY4dA4tknNdamTSnTlwPm85Fc0rx69aq5V6J/Rr2SkcSdCG9D/r2Ac9UlctHqbaVQrxXqHRvJ6TNnzB0TYMSoCMD7O+OsaG5uUSiGVrN/UJ9uCyhnBMF4frN9joD8uoD8WATkalM2i5ztofhvjheq+95eAflXksi1JRxhPIpNlQXyOvdacaayypMgT9/KwHFRvs+EpGQJb7EgRkOlATJFZBuordquDH35MgWbwtOi2Pc6vaWc0QESZtYAXAa6p0+e6fOgvbJVkQ27li8z6ZbVk4B6qdNcBzxWOrJ/JXw2jwDNXErhAzxGMkeS2yl3xK0aLFMC846OxTYQl8Kj2Z4lX8qEfQVwIpYMQgD+4xg8SzHoZudbz0B+V7MUdvw5I5UTfKK9ud0gu5x8J9Acg3B3d1dYvWqV7TYF+GHcpg3Sn+YrnZex+ke5zGLzYHAudqYH+G/duiX8+auvbGZOWy02JUCeB+cAN6KqffPPb236T3TEiYnxwkbhrHyQPACqZQpryRLdAwcO2FZlbNI6W5ySrNeU5SuAAPggJTFo0UCfKLAQ01wAaUjlJbVqikvQL/y1V61cZfGV0V2WQi95w4u+vus2SKJL7u+/bbwpBcihl3fzDiRz9vbEwMwsiKk6s4pyS+eUA1UU7YPtySgLaxAALVKp5bGXxP7UI5Az0HGcPXfOXE+JtYOE6yqSmSRbfw4DISqVTalUYEFN7+Ze058Tv4h2SL1WIpE/Aw2DMcbO//rvv2umOiz9/mikJkMd6JJ2HgTQFmh/eLH99a9/tc0mWGtSbKpNIBdP6BTVNnY6U6lAFgf8ig/w+fMBVQvqgLcaHRUp2vNJNAwqPgr92hnWa7/JLVIDoGZB7VLqSq98aPB7UJ28GHwR+uUrjwrguhatvHgxaMBOPXCQKG+jGl+7JHGkh107JelKolglCalY1ynvoPjm3pCEduLEiXDlWp9mPdr1Jb1dXCEdxMvEmVkTiSBezHa2idZUKhU2CNihny24ypmwnzCbAZyuy3h7W8ZbZjOjbBVYgVR1IAe7CjR20pboTz/+eDR8pxk7NgQA0YF8NjbRViIAVNz7Ns22li4Jq+XCi2Te05MyX+xKxNlxEI/sOVfM3kFoCfhvM/N8O32scMwwCG3NhuT/9q9/tT7EAFVsqgsgx/OAZazssFGNRIUhrfapc16WYY7ViERRc4NMKTTRSJAiUFOs0zQRoGG6uGLFSrPQU7nozoudvuWijTwpE9IFs41HMjIRNAgQx3OEJcl4EnAPHcclSZ7jQPJBZ7l5c8pc/YgZAZhz3e/Nle9s1/BaIN9fZIdgCTvf2ZnJVBGzPTjbb+lBFfAAzFl0sUbun7h6EfumW7GgmZbDY4zNLqHHy5z9eucBZ2YxSODwCj7iJ37v/r3Qd+26hXUgVgd5Y9i0FI0r2a8s+jv1AwDSdnp7q+BHXgSQ0+bQhRO+99vvfrCZLTyiHIUm2hsCBKoWNt4mwih1jGTr9Urf8vrMp23G65fP1KvNyNUe76pvXNBmIJzpM7yvGLp5b6McHhDWdu3aacZOtn6jPMWmygK5KmrgxUBRtFG5NNSenpS5kFUTyCkA9BDH+Oatm1rtecxWerK3J0JfPg2Ed2QSHZq+zaHPVKz+KNxtswHOOnmybNS2ZahcaJxIGQBNuaaNlAUAYkrLilX2z2TVGtIRHhURPRFdVrY0DkG//cYHJWgCEP/0pz9qirhN+ueODBhGd+T/FymNDoP3ylmtfLwhmtArmzdALP+835jjGTpds9zZsEOgYkEwANTXrFmd8Rzi/QC6g3p2fvAOAKdtAuDwjNkEqhQWkJn7nHhIeeK8yght1H2ZUtWBXOXwMuZr7IRftDUMhSxEok6KAUNnIe2TugIEAUOAnH6DMZR6RY3m9TlTnfq7OMNT6tgP6rRf7obQfFc7OT2QwINQR7kzQkaOthZ/Z/Zn8qDvbFA/Z7/ZI0c+M1AvGEdiL64skJfJ2FltiRx+UXF0XF9WjgELVQCVUnQF0ADSQO7voVFjkFu6ZKnApctW6aEGADCRJt3vHFCnYZK358+Z53mXdzAaJO6D6PQjFRE7quCz+yQ8lARMeZ4Sn1kDLvo+1FnTOlaORsp00qfUhONkm7Xd8tneLFeqYqeH0AxAota5fPlK+FWbLkAb9JO8jPYlnz/ZdPuAqWeNx2n10FJNz02VZaoWNsRYZAMSUi78dV5AH7Sg/44ORcfTZ6RL7AjYUIidgieG8/8tmtP1nQ/5+dxDPtBXNYlcRHo7yxfIscFg3EQYOvHrSRNOnMf5lDn7HvJ3GhYJtBdJQmfDb2xPS2XPwe2UOkYYQgImrwU64mGkeR5e0j/o49iGXqg/UKcEy0NdhgEeNZnHWSmFZvJiMxTUKrghf7B/f1hcwqpOeJIAeXbLmOM7lYw/MEv3CcNK1D7rsA4c+Uhcc3RoAIPK5r24/DF93Cr97gEqXADDdyQNpBAHc8gG3GlgLjFyDckbKRtpF88AJEY8Q/r6bqjBEmc9ivdhbnHEXM6Ijjyt5OWKvk19Vzmhk4EFoxPbVzFrQiovNtGhAEaMrRiWr8vV8+XLwvfzzOTvtHudpME8o3tP3wgP8chZps6+ctUKrb6Npuiu0uI2eEpHRyLDL/yBVqLS0Vm44oONgYTqbL5SPQI5eua+vuvh2C+/2A5J3mYz7czrqggmOiB736Feu7uXS/Jdbxtzr9OeAA0NC9VPNONKq1zIhvqbUN3ST9j/855mWHduR5K49yX6IvWbE8Cd5jyrHjpR/7ARCnGBWN1Jfy4l1SaQiyEGZpIOe3pqQ7XiTGZahTQLmKMGYFpNhy5nJ6aiOUg0RhoeAInUs0hGHsAc7xEaQ9QgI/0iUgYNDqCiMb9WA2X7Kwy1SI1IkEgUGJe4BsjTUOlEEYRntcSsr84DP5MH9CHRfrBvn6zvfzYjov9ezBma2HQC/+KL0pVfkR82NObsQMVkoGeYUfDfk3dSgBtdOvpVOlaDPCT4jcQM5LXCRvh2YsxeAHZ44HXFfTYQzsE37itHIm/4UjWJXOX0mVkhEjlqM8JDl0Mij/PR6sGqVn9Em2DXBCHqcrFmue2qV6Rx2mxLS6vqFlWKz1jTMVVkmEa44RjWMa1u0/0rnmden9NtjXbH+wgzwOKfI0c+NR05On7aXikpAfICuUfnAWxYpntB/qQXLlwKV7VRMx3ejwJfOevtVLwf5E0DZAq5XP60TMemJAvQYwqduBcgJ1g+033UKeicSRjfaMwOUrHH7Hf7zuvmSOTBO5BmWaX6P//H/2WgPsdjc/6MQQydMx5CdHimtKiHMvTO+YYZbsguE+zSNeOvgJozZZoz6Rlf2POWDj/9zjnfUYYboLXegByBgkBdR4/+LKn8uLXDcg7S2W0XHvmMyVmOodFUgKpHfmNANoHGb9CZtpaZpepzJvnHqa6W+Snnh9h91r4kZBHMDTsYUVCJC8RATH8sJdUmkKtEJpGrEnp6aksid1BFTYHh5kcF1Dp69JjAXcuKJTlOA8hSaib2LHla0okGhlSB22KUV/oajQ3QT6Myj3DQkDmgjbOnoiVHGnKaHN5XCSCn7tFVYoRlg2K8hQB2OvxbwOkFKvSc1SEzPM73PennF7zxF+nB2Md8X1PKffC/qkAu4p1v+Urk9Bt0zt/Ka+V72dD8+bKCeYyp/v7YJZs1WX6qL373I3NPun1TnyULD5mXThlSsfkRvvYDCT84M6BeKjWfBMhjjC7ko4/kBM5h6T6LPtCvvU5LdqVWTE5aDJwjsI43PvLiiF/z5/03P/v1bMklc32uD4BVDMhphITjRSL/4x++LFm1Es8ew1ifDGPntXjkvNQsSOrMhihLWVKsLLO+L/s+z947vJ/9+qwvK9+P9Qjk1B9qC1ZGfq/t7gB2Bm2AtWz1mg+LqbN4fWXXcT7vyPMe75fYu5gJHDp40Ban4VlTrvUiCZDnWRm5bqOCkC5wUUIFgCcLumdAviISRhZgkD8p3gH8mtMb/82vFXX2Ru806CWUk2Xw+6QfZ+PjnfKJRe1TrsSUF9UQunLilrNKEmOZBZyyGUi5cqrP99QjkNM+ofvMmd+0ZuC4GT4ZsDMz2UoBao72O2OtF3LvTC+JvYPy0ldWyjUSf/cPP/zQQnIA6ghC5UgJkJfIRYyfSBVsPsGKPvR/rIoEhEhlA9IS6Szn46a+EaCzMpKp4eHDh8KWrVusoZayqCGbRu/0LFJCzXJJizHYuJgVlONj4+8kb7N5MNt3+MOSdbyYcP2sp40l7kj4wejJmgFirgzJjkOfMUFEIGiqv9kKX8xvgGtMECnmFYU+Q3nAAAS73t7NNnMlthLSeDlnIQmQF1ozOe5ntMV7BV3uyVOnzb0PMPdKzPFIfVyKN3w6AN9j13pSKXOLPHTooPm4l0PXl4sxzHJwSzwv4ydBy/DfZ/DMpBhNRh8/zHOHzdAyXx/SZUaSxcuG4Gv1BOSuYsEGgtMAC9MYoOlLAF9dC0DeHtUG8SDDSwW/8f3afP1zGTht3UIJbrq5mlgC5Lm4UuA1ABu9H2oWJMa+vuvhmjxZXsjnHBemzMgbq+AM4BSY17ze7vSSqRol5aRhsriCBUoYbbC6I5XjHkk5K5Ew1BKv5PHjR2b0ZJk0K+3YVcjVC2/l6wPPWz+8OxeoD3iOG2q9SeTUGxI40QPv3btrarNbqlO8wcY02+L3twC91uuU/kJK9xXODQsXyJe921Y+b1eEU1ZAt0il0qw1IOVMlQXy77REn2XsXsACKGdkpjJ7emrLa2W2IiBlsLqPKeP5c5Iy+m9ZwHw6HEdGyqj1BumFTAO5AbjqAol7kfbA3KAgRcT5JnLbBoUS8IVJ/lglztBAx8d97dLlKxYe9orODJTwnZThL19qlcc+ONLZjcgY3dBMyqe/6F4G1QjIqxRrRaRSL6R8vVbs5vQfr1NmV6haWNV78eIli7nDwjsH8ky9klU+vIlnMp+fY/0FmvEsQ8BJpVLhsGat9BVAvRIpAfIyctWkDEmPw2qYSOd4tJzSwWD2SqvG4gtMLNt0xdcs6IhIOhuD6qtXY/JO6baFP0jhxLPA4o5+1jtcGVmZ81XwF9BmYdNtrU69qgBm+PCjavGUmRU4b/2HaoDADHma35G8mzwZ/0AoaCZl0x5dfesv/KgIkEvvnklTZGYuxT+UAuS8hzIw4/Kl8Riz2XmHULEkeLNQqzE5RxeiU+av82wOOjP3l/uD13G6zigPB+ouQgXs0v68W2U/IkIj/uKlLvyZifyyAzlS0yPF8Dh//kL4p5ZZE6uAghWaXCLfvn2bMQODGhH26iFBO3y4LIkRCaP/dr948thACCPduOKeZBpmrRVIDfPNgiggECtFWXBEuM329o6wSeFf0fMRnREJDP1sBjjnqRw+sKAzZ6k80ShZZYsEh3oLvtPeAMuKGMwKKad3cj1j0re+wy8MlCxKsaXiOr+SwXxUK0WLAXLqYIkGVMDiMwVfIhhYPhsUwEf41N9/W776J62dsm+q1akDOfTPkRzIo80eehR35yMz5KETLrRtUHe4mLLJyGnZmghKRyx8wmDwG4CP0JOpW8AzDaBzkFm5n6FH/YVEe4N/zFzXKSDbxk0bbFMTdzPkeqVS2YEcEMPQd1F6zL//4+vwSHpMn/pOK4SPpNMupr+IL5NaOktDAzhY/k24R8CjXhINnEaJAYdB7ZpibN9XiFNUA8Qyp9INzJ0Pfo7aRPmLmef7oZuDTsjUEIkbP/EDqgf0sNSBh3yt1mAEfbSNCe3U9ODBfdOXRx5D/cZfgJF73uJxnLfOj3JzOlceyoul7NBEZ25ra9GUu1Mrc9lhqc3Ub4RFzStBN3noiAxpjRb1b6cWmPzud5/b1N1WLebxMujBSH/6zG+RIVlCB/U+Z70670QD7yBtksRJLP0PPzxsNhPUbXO+J4tG3sVhnmDyYiHmN1vlMWC/EKgPK7yEDdLiZTn2PM3KPvfXWFlz3xDNKvgN3rHaGhvSgQP7DbNYik8fyouvM2WQx/WyAzmMBsCIcIbTP8a/J4pNol6VX8WmGwcVRaP//Re/C3hFACYwpJ4SvECSeKAofgRbAsg5E9WPwW5E3hhI59xn/HFwr0QhZ2mQlr/ypOPRAYk30rmkMx1EaqV1zJ5UykAckKBR1kpCv+rSuYUc7b+j3Y2emvqF6fqYjKRIcCTKVyi4FFzOKCvL0+KQiFWsRiV0LjE/GAiJg94tn2L4jHRugKWBHoEHQWhWGqlH8tABkFMf1A2CDrNW1F2FSH74cF+9es3A/LfffrP8aQ9GA3mR0mWKvqT/pn8jWib37tm900Ky7tmzx8pYahuBD2zIzEBDECtULoSR9phBzGy5x5JomZVn0wgv4ksWHxhs4BFlRAJnoQ+qFCKWrpQTwFpFKUX1SLRS6qeQ+iiCuogFIipXNRX7PhtRmQLBfHTESEqMqqR8mA05HDCgXRLLv/3bv4SPNMrDjFIbR9GFKsODSBmomYg8yCCHbzSSBkGsWN4fJfxN062GUzlrJqsxMnD4+x3I4TGDJXGd1ypSHIsX0O0xbXYpPE1oTZ1oL4AgIROuSNWC9wMAAEgR0IwOzz20Pz/eKkA2f966YYYLXkcxfnIn+QG0PtVmY122xevp6TGeRpH4Gkw3/ONPP9kGzaiHaCe08xn7iuejfBmg8FghKiYAikRcaBQ9BkF4hS3nl19OiJ6XtqHHWzRQznhZKaRo8bDHn37ysc2eU6lU2VYrkoX3G4Qf+gxeLfQhBnCiFXrbzckveEVyuqNvxf1N8516tboVkCP0tGiAJlQugma0h8CmkFI0UPoLv89XKrtEDuEwF4MUjEetcEpRAtktBUn9rQYSKykMIiGlACC4t9FAe3pSM3dAHqiDBJjYlFF8QPdHhD+kDCQM21lGoI6/9Ph42gODkLIAj/45X3I21uyyw0JvwNm/6bs3RDvTwvWfuOdIikRU7Opart28+d5lIUABdqQNACmv/HPkOR+XnL8AE5Lb06dPDNj5zAYa2G2ePotAHYOTWGvJeOxf8iU0zmNjYdS5nbe8JpK+xUcZvJYqNjZT7OXLuw3M4TO/kzd0swHxGQHpRQk9tAukdxNa4vnEaGOAAEAxnuEG+vmRIwLxbWZcK1T6o00SVO2s1Bj4dAOSDIhz1TdlpZ+jGiIIFGqdDz7YJxBfYhJqjNySPnq9Yv8g6Bu0PVHdWj2LV8xwCY0xKHWlg7pjjLXXNADPSITzOPs+risxWFJW0qTKywyPPrFMMc7ZuAIJHJsE/WeFPFL47EGwrA7tycr/qQiQQzYqBZh/+fIVA/L+/tu2kcHMRQK4gjUCGMH2YahU2PEjH+PNzO+trV9obDROOk/UMJ9q9vLApHSAnQaKdBkBegTi3kAdSL1hzVYyv9fv4Tv/SB79EKmBJfXslEOjBBTY25JA/IsWtavBLvLH6+qMSiXi76B5DLG0nwUnCBZRaNLIswC+Rhg+NVjScfk/WzI+RqyMeJr+jACyUMZLgBg+sgPM6tWrNCCuML0pag+AL9tzgfjr9BOCr7EbjQGRCDBachBidSnC12t3o829m8PH2tgD17a5wDfHqwz8aI94/rDYCtsWe7dO6FqmnRlL9CddTvgDjQwaqySJYsz76KPDtsE117LbXq58C73m/QZhkANBkf5y8ybrCR7Y4D2c3gyZexnsLEF7Goj9/FbeXi79kAmCpmvUs9cBnjN4nVG/zFjpL6hPmFnhYsjhAP7W++fhQsWAnOBRNBAkI6Zux4+fsEYyoumQWZ+zCkflsw/kKu3QjqcK00R8lQGbQqWMrFfX1FcaEwe8gQ8MeEhFgPqjx4/Cvbv3bTs5JKNJSV3RQeRCjL/RszM2yKySxiUCpnnwEbCJXKO6QmrTJut8bfINR5WFlAjIsBIt8qgoLbRmFjnz9pWODG+dv8x02ESDmU+/BAr8lZkh2o5IxteIt3R+j689F7EMhui+4TFGYfgLULNqb3NPjw2OfGcwhLdT/H/b0wdgQg2EauPipYsmZTIYzVTPSITszISgs2fvHpMEuVYMgHoeLvEeV/wTdPYPHz00tR+gbTMAG/QEbdHIp/yZDayyXW7Qz3dLGqW8/vtc/Cv0d+jkcECnbhF4IhWL1EHqQzgUsLqatRwjEpTG1LcYkHjGjc355BvVq+pXfcU3oiBU82oJOsx8TArXzAPgZmCO+lXkrVKp8s9Fd8WA3DOmQdJQL168FHBvev7sqaSllzLyTahiCMof7SQPYNMYWSXYq+XGnGkc70OigQLsSBmPHj3W4og74YGkdHiEUQcdOoBPw+Q+DqbWBjzinydABR07jYnPSGguSRDHHEmRFWWLBC5Mh9evXxdSqZQ9zjPFSHSedy2f4RedHikdAxoSMLYJ2uarUQyi4m8a+LnXO30k2UUMxhUTnsInQNyAWQCOG2GbgBqe4oXCbGbDho2mSokGxZn3/4zzDFroH9DGzAGAwiXR6lpAZPWpgRhXUGaoGEx37NgR0MdCC7+XmigvM4Pr1/vEpwc2OwQgnTeNade6JtHAgIWLXUrtB8kUGmg/85m831g9iXbiHDHzGhoeMs8wBqcovPRUzHHwBtzhGT6TVKXT+4zK0YQwo/ptVb9hJSZ13N293FYyM2AxOFPecvA9oqK0vxUHch9J6Uh0Hgx8zwTmBMlhF3p+Z49KGifT0SXylmiTTrbJpMf5bRilsbK0p+EDEjeSt0uTdGI6EgBEo2RAhI8AOro6PF4iCTJqkU3aWNg7NRI1QMLBps64RTFQRuASGY6RJDg8VUua8PwreY74G6m1xq3dRZ8ZPDngLbxmeTh852DwnJyU77ISU2p45+qTaBbTZrMY+IrREemN3+FpBvRBiTwS9JEfdGD0RO+LPhiAHxO9NgCrX5g3kUCU6b3XZTnrjfJj8MR2w4GNARpQ9dG+mLVFMw/2lF1ugEZ5y0lDHuzK3ALfPHm/AaTpI0Oa5bIbFvTD12gGFs3W6EcAOmkBMyvVW4s0AgyU9BeAu027cYFHqBkpH3Xr/Yvv1Sqzlzd+rjiQxzOjc9BpACU6DcYDhkWkRToGjQTJ/F2VDOO8yOczDdKnkHRyGp+DjE0Zxc94Q4ZvzjuT4PSdTmaLeiQxRUBUO1JEPjyo5D3wzoCSwVEHvIa/XIf3fOZMivgJQEeSOR06kkIbza5Duy1HIk/6BnTRT6LBhPAI7BSveNb0E4EM6rFKJcocgV9EAxt3QxeDGWokpFEOaKgViTSbFxEfI1sT9QofOVM2r9tM3xEoM+OyvpLuQ16/lJN+U+tpXoG81pmR0JdwIOFAwoF65EAC5PVYawnNCQcSDiQciHEgAfIYM5KPCQcSDiQcqEcOJEBej7WW0JxwIOFAwoEYBxIgjzEj+ZhwIOFAwoF65EAC5PVYawnNCQcSDiQciHEgAfIYM5KPCQcSDiQcqEcOJEBej7WW0Pz/bzQERkNgNASQQmC0IEcKjFHmaAiMhsBoCAzFEAAAss5iV2RmSU4AAAAASUVORK5CYII=;" vertex="1" parent="1">
          <mxGeometry x="942.5" y="1218" width="97" height="86.51" as="geometry" />
        </mxCell>
        <mxCell id="Kqu1EmaRAJuCwTaNFQil-3" value="Pharmacy&lt;div&gt;key: id&lt;/div&gt;" style="rounded=1;whiteSpace=wrap;html=1;" vertex="1" parent="1">
          <mxGeometry x="877.5" y="1334.5" width="97" height="38" as="geometry" />
        </mxCell>
        <mxCell id="Kqu1EmaRAJuCwTaNFQil-4" value="Depth&lt;div&gt;key: depthName&lt;br&gt;{id1,id2,.....}&lt;/div&gt;" style="rounded=1;whiteSpace=wrap;html=1;" vertex="1" parent="1">
          <mxGeometry x="1001.5" y="1331" width="96" height="45" as="geometry" />
        </mxCell>
        <mxCell id="Kqu1EmaRAJuCwTaNFQil-5" value="Database" style="shape=cylinder3;whiteSpace=wrap;html=1;boundedLbl=1;backgroundOutline=1;size=15;" vertex="1" parent="1">
          <mxGeometry x="958" y="1434" width="60" height="80" as="geometry" />
        </mxCell>
        <mxCell id="Kqu1EmaRAJuCwTaNFQil-6" value="Service" style="rounded=1;whiteSpace=wrap;html=1;" vertex="1" parent="1">
          <mxGeometry x="703" y="1331.5" width="92" height="44" as="geometry" />
        </mxCell>
        <mxCell id="Kqu1EmaRAJuCwTaNFQil-7" value="" style="html=1;shadow=0;dashed=0;align=center;verticalAlign=middle;shape=mxgraph.arrows2.arrow;dy=0.7;dx=20;notch=0;" vertex="1" parent="1">
          <mxGeometry x="808" y="1344" width="37" height="23" as="geometry" />
        </mxCell>
        <mxCell id="Kqu1EmaRAJuCwTaNFQil-8" value="" style="shape=flexArrow;endArrow=classic;html=1;rounded=0;endWidth=10;endSize=6.21;" edge="1" parent="1">
          <mxGeometry width="50" height="50" relative="1" as="geometry">
            <mxPoint x="812" y="1392" as="sourcePoint" />
            <mxPoint x="906" y="1444" as="targetPoint" />
          </mxGeometry>
        </mxCell>
        <mxCell id="Kqu1EmaRAJuCwTaNFQil-9" value="2. depth 정보가 없다면" style="edgeLabel;html=1;align=center;verticalAlign=middle;resizable=0;points=[];" vertex="1" connectable="0" parent="1">
          <mxGeometry x="857" y="1464" as="geometry" />
        </mxCell>
        <mxCell id="Kqu1EmaRAJuCwTaNFQil-10" value="" style="html=1;shadow=0;dashed=0;align=center;verticalAlign=middle;shape=mxgraph.arrows2.arrow;dy=0.6;dx=40;notch=0;" vertex="1" parent="1">
          <mxGeometry x="576" y="1318" width="100" height="70" as="geometry" />
        </mxCell>
        <mxCell id="Kqu1EmaRAJuCwTaNFQil-11" value="" style="html=1;shadow=0;dashed=0;align=center;verticalAlign=middle;shape=mxgraph.arrows2.arrow;dy=0.61;dx=17;direction=north;notch=0;" vertex="1" parent="1">
          <mxGeometry x="976.5" y="1392" width="23" height="38" as="geometry" />
        </mxCell>
        <mxCell id="Kqu1EmaRAJuCwTaNFQil-14" value="1. depth 조회" style="text;html=1;align=center;verticalAlign=middle;resizable=0;points=[];autosize=1;strokeColor=none;fillColor=none;" vertex="1" parent="1">
          <mxGeometry x="784" y="1314" width="85" height="26" as="geometry" />
        </mxCell>
        <mxCell id="Kqu1EmaRAJuCwTaNFQil-15" value="3. 조회된 정보 redis로 올리기" style="text;html=1;align=center;verticalAlign=middle;resizable=0;points=[];autosize=1;strokeColor=none;fillColor=none;" vertex="1" parent="1">
          <mxGeometry x="995" y="1410" width="161" height="26" as="geometry" />
        </mxCell>
      </root>
    </mxGraphModel>
  </diagram>
</mxfile>
